<svg width="235" height="170" viewBox="0 0 235 170" fill="none" xmlns="http://www.w3.org/2000/svg">
<g filter="url(#filter0_d)">
<path d="M87.726 95.0523C87.726 92.3125 85.9189 89.9808 85.1028 87.3576C78.3991 64.5651 68.1395 79.6047 69.4803 66.4305C70.5879 55.7046 55.1985 50.5165 53.9161 55.18C52.9251 58.9107 48.0285 60.951 45.6968 57.8031C42.7239 53.8392 43.8897 48.1848 41.2665 44.046C39.7509 41.656 36.8946 39.9655 33.9216 39.7324C31.2402 39.4992 28.4421 40.3153 25.8189 39.6158C21.1555 38.3333 18.7655 32.7372 13.9855 32.096C13.5774 32.0377 13.1694 32.0377 12.7613 32.2126C12.0035 32.504 11.7121 33.3784 11.5372 34.1362C11.0125 36.1765 10.5462 38.4499 11.7704 40.1987C12.8779 41.7726 15.093 42.4138 16.1423 43.9877C17.1916 45.5616 16.8418 47.6602 16.2006 49.409C15.5594 51.1578 14.6267 52.9648 14.7433 54.8302C14.8599 57.5117 17.075 59.8434 19.6399 60.951C22.2631 62.1168 25.1777 62.2917 28.0924 62.2917C28.8502 62.2917 29.608 62.2917 30.3075 62.5249C32.5809 63.2827 33.1055 66.3722 31.6482 68.1793C31.0653 68.8788 30.3075 69.4617 29.8994 70.2195C28.7919 72.2598 30.7738 74.7664 33.1055 75.4659C35.4373 76.1071 37.9438 75.5825 40.3921 75.291C42.8404 74.9995 45.5802 75.0578 47.3873 76.5734C49.6607 78.5554 49.4275 81.9364 50.7683 84.6179C52.1673 87.4742 55.3734 89.223 58.6378 89.9808C61.9022 90.7386 65.2832 90.622 68.6642 90.7969C75.7176 91.1467 82.771 92.6623 88.8335 96.0433" fill="#4DC591"/>
<path opacity="0.2" d="M28.4101 72.2519C30.2755 78.6058 36.0465 83.9688 41.2345 88.1659C46.7141 92.5961 52.8348 96.2686 59.0138 99.7661C71.9549 107.111 85.4788 113.931 95.5052 124.774C95.7966 125.065 96.263 124.657 95.9715 124.366C87.1693 114.048 74.6363 107.461 62.628 100.874C56.5655 97.4927 50.4448 94.1117 44.8487 90.0312C38.5531 85.4844 30.975 79.5385 28.6433 72.1936C28.585 72.077 28.3518 72.1353 28.4101 72.2519Z" fill="#444472"/>
</g>
<g filter="url(#filter1_d)">
<path d="M176.474 118.77C179.272 120.169 182.42 120.343 185.568 120.46C192.271 120.693 199.092 120.46 205.504 118.595C207.136 118.128 208.826 117.487 210.167 116.496C211.566 115.447 212.616 113.931 212.732 112.182C212.907 109.792 211.391 107.694 210.4 105.537C210.109 104.896 209.817 104.138 209.992 103.439C210.4 101.806 212.674 101.573 214.364 101.806C215.763 101.981 217.162 102.098 218.561 102.273C220.31 102.448 222.409 102.506 223.4 101.049C224.274 99.8243 223.808 98.0173 222.7 97.0263C221.593 96.0353 220.077 95.6856 218.561 95.6273C217.046 95.569 215.588 95.8021 214.073 95.6856C213.723 95.6856 213.373 95.6273 213.082 95.3941C212.382 94.8695 212.732 93.7619 213.198 93.0624C214.306 91.5468 216.055 90.4392 217.92 90.206C219.786 89.9729 221.593 90.4392 223.458 90.6141C225.323 90.789 227.364 90.6141 228.704 89.2733C229.987 87.9909 230.337 86.0672 230.278 84.2602C230.162 81.6953 226.606 78.4309 223.225 80.5294C221.359 81.6953 219.552 82.8611 217.745 84.027C216.579 84.7848 214.831 85.4843 213.898 84.3767C213.198 83.5024 213.665 82.1616 214.364 81.2289C216.929 77.5565 221.185 75.5745 224.624 72.6599C229.87 68.1713 221.768 60.3601 215.064 64.7903C213.315 65.9562 211.858 67.5884 210.808 69.3955C209.584 71.5523 208.943 74.0006 207.311 75.8077C206.728 76.4489 205.97 77.0318 205.096 77.2067C204.221 77.3233 203.23 76.9153 202.939 76.0409C202.647 75.1665 203.172 74.2921 203.522 73.4177C204.455 70.9111 203.58 68.0547 202.006 65.9562C201.074 64.732 199.675 63.6245 198.159 63.7411C196.294 63.9159 195.011 65.7813 194.72 67.5884C194.428 69.3955 194.836 71.2609 194.836 73.1262C194.894 74.9916 194.428 77.0318 192.913 78.0811C192.679 78.256 192.388 78.3726 192.096 78.3726C191.863 78.3726 191.63 78.256 191.397 78.0811C189.94 77.0318 189.473 75.1665 188.657 73.5926C187.841 72.0187 186.209 70.4448 184.518 70.9694C183.119 71.4357 182.536 73.0679 182.595 74.5252C182.711 75.9826 183.294 77.3233 183.586 78.7806C184.402 83.1526 181.371 87.8743 177.115 88.9236C175.891 89.2151 174.609 89.2733 173.501 89.7397C171.577 90.4975 170.178 92.3629 169.537 94.3448C168.896 96.3268 168.838 98.4253 168.838 100.524C168.896 105.887 169.77 111.949 174.084 115.155" fill="url(#paint0_linear)"/>
<g opacity="0.41">
<path opacity="0.41" d="M221.709 71.9604C221.476 72.0187 221.301 72.1352 221.068 72.1935C221.301 72.0769 221.476 72.0186 221.709 71.9021C221.709 71.8438 221.768 71.9604 221.709 71.9604Z" fill="#444472"/>
<path opacity="0.41" d="M219.028 72.8348C219.727 72.6599 220.369 72.4267 221.068 72.1935C220.427 72.485 219.727 72.6599 219.028 72.8348Z" fill="#444472"/>
<path opacity="0.47" d="M186.675 79.3636C184.46 87.6412 182.362 96.1519 184.518 104.604C187.491 100.524 190.639 96.56 193.962 92.7126C194.428 85.426 196.702 78.4892 198.917 71.5523C198.917 71.494 199.033 71.494 199.033 71.6106C197.168 78.3143 195.419 84.9597 194.72 91.8965C199.791 86.0672 205.271 80.646 211.158 75.7494C211.1 75.6911 211.1 75.6328 211.1 75.5745C212.616 72.1353 214.714 69.0457 217.337 66.3643C217.337 66.3643 217.396 66.3643 217.396 66.4226C214.889 69.0457 212.965 72.0187 211.566 75.3997C212.557 74.5836 213.548 73.7675 214.597 73.0096C214.597 72.8931 214.597 72.8348 214.714 72.8348H214.772C216.463 71.494 218.212 70.2116 220.019 68.9874C220.019 68.9874 220.077 68.9874 220.077 69.0457C218.328 70.2699 216.638 71.5523 215.006 72.8348C216.288 73.0096 217.687 73.0096 219.028 72.7765C217.629 73.1262 216.288 73.2428 214.714 73.0679C209.351 77.3233 204.396 82.045 199.791 87.0582C206.961 89.798 214.248 86.8834 221.476 86.009C221.534 86.009 221.534 86.0672 221.476 86.0672C214.248 87.1165 206.786 90.3226 199.558 87.5829C199.5 87.5829 199.441 87.5246 199.441 87.4663C197.751 89.2734 196.119 91.197 194.545 93.0624C194.545 93.2373 194.428 93.2956 194.312 93.3539C192.971 94.9861 191.63 96.6183 190.289 98.3087C197.809 100.582 205.446 101.398 213.198 100.116C213.257 100.116 213.257 100.174 213.198 100.174C205.446 101.748 197.459 101.398 189.998 98.6585C187.316 102.098 184.752 105.654 182.245 109.21C189.59 112.241 197.518 114.514 205.212 111.308C205.271 111.308 205.271 111.366 205.212 111.366C197.459 114.747 189.415 112.591 181.895 109.618C181.137 110.725 180.321 111.833 179.563 112.999C179.272 113.465 178.514 112.999 178.806 112.532C180.496 110.026 182.245 107.577 183.994 105.129C181.487 96.3851 183.877 87.816 186.384 79.3636C186.559 79.247 186.675 79.3053 186.675 79.3636Z" fill="#444472"/>
</g>
</g>
<g filter="url(#filter2_d)">
<path d="M58.1231 111.865C56.899 113.964 54.8587 115.421 52.8768 116.82C48.5631 119.793 44.0162 122.533 39.0031 123.99C37.7206 124.398 36.3799 124.69 35.0391 124.573C33.6984 124.457 32.3577 123.932 31.5416 122.824C30.434 121.367 30.5506 119.327 30.3174 117.462C30.2591 116.879 30.0843 116.296 29.6762 115.888C28.6852 114.955 27.1696 115.829 26.1203 116.645C25.2459 117.345 24.3716 118.044 23.5555 118.744C22.5062 119.618 21.1072 120.493 19.8247 119.968C18.7754 119.502 18.3091 118.161 18.6006 117.053C18.892 115.946 19.7664 115.072 20.6991 114.372C21.6318 113.731 22.7394 113.206 23.672 112.507C23.9052 112.332 24.1384 112.157 24.1967 111.924C24.4298 111.282 23.7303 110.7 23.1474 110.466C21.7484 109.942 20.1745 109.942 18.8337 110.583C17.493 111.166 16.502 112.273 15.3362 113.148C14.1703 114.022 12.7713 114.78 11.3722 114.489C10.0315 114.197 8.92394 113.09 8.22443 111.865C7.17516 110.117 8.22443 106.502 11.2557 106.444C12.9462 106.386 14.6366 106.444 16.3271 106.444C17.4347 106.444 18.8337 106.153 19.0086 105.045C19.1252 104.171 18.1925 103.53 17.3764 103.18C14.1703 101.839 10.4979 102.364 7.05857 101.897C1.75392 101.198 3.73588 92.6288 10.0315 92.7454C11.6637 92.7454 13.2959 93.2117 14.7532 93.9695C16.4437 94.8439 17.901 96.2429 19.7664 96.7093C20.4076 96.8841 21.1654 96.9424 21.8067 96.7093C22.4479 96.4178 22.9142 95.7183 22.7394 95.0188C22.5645 94.3193 21.865 93.9695 21.282 93.5615C19.6498 92.3373 18.9503 90.0639 19.1252 88.0236C19.2418 86.7995 19.6498 85.517 20.6991 84.9924C21.9815 84.2929 23.6137 84.9924 24.5464 86.1C25.5374 87.1492 26.0038 88.5483 26.7616 89.7724C27.5194 90.9966 28.6852 92.1624 30.1425 92.2207C30.3757 92.2207 30.6089 92.2207 30.8421 92.0458C31.0169 91.9293 31.0752 91.7544 31.1918 91.5795C31.7165 90.2971 31.2501 88.8397 31.0752 87.4407C30.9003 86.0417 31.3667 84.3512 32.7074 84.0014C33.815 83.71 34.9226 84.5261 35.4472 85.5753C35.9718 86.5663 36.1467 87.7322 36.613 88.7814C37.8955 91.9876 41.8594 93.7946 45.1238 92.7454C46.0565 92.4539 46.9309 91.9293 47.8636 91.7544C49.4375 91.4629 51.128 92.1041 52.4104 93.0951C53.6929 94.1444 54.6255 95.4851 55.4999 96.8842C57.7151 100.44 59.697 104.754 58.2397 108.718" fill="#4DC591"/>
<g opacity="0.41">
<path opacity="0.41" d="M16.7935 103.613C16.9683 103.554 17.1432 103.554 17.3181 103.496C17.1432 103.554 16.9683 103.554 16.7935 103.613C16.7935 103.554 16.7935 103.613 16.7935 103.613Z" fill="#444472"/>
<path opacity="0.41" d="M18.9503 103.03C18.4257 103.205 17.901 103.379 17.3181 103.496C17.901 103.438 18.4257 103.263 18.9503 103.03Z" fill="#444472"/>
</g>
</g>
<g filter="url(#filter3_d)">
<path d="M77.4766 118.867C77.9898 115.566 80.4225 113.029 81.7578 110.002C93.4556 83.5459 101.705 103.638 102.772 87.4401C103.659 74.2118 121.377 70.693 121.882 76.5693C122.238 81.218 127.17 84.5644 130.332 81.1915C134.34 76.9269 134.151 69.8912 137.829 65.2931C139.96 62.6679 143.386 61.1313 146.648 61.3171C149.617 61.4968 152.5 63.0156 155.483 62.6124C160.792 61.8855 164.461 55.503 169.788 55.6044C170.243 55.5907 170.708 55.6589 171.075 55.9466C171.845 56.476 172.02 57.5758 172.057 58.5678C172.237 61.0788 172.339 63.973 170.619 65.8839C169.125 67.6014 166.598 67.9909 165.15 69.7443C163.656 71.4618 163.682 74.0744 163.996 76.32C164.356 78.6016 165.007 80.8894 164.574 83.1425C163.923 86.3355 161.107 88.7945 158.021 89.7086C154.981 90.6586 151.7 90.3091 148.608 89.8121C147.806 89.7017 146.958 89.5555 146.104 89.7006C143.469 90.2278 142.295 93.8994 143.502 96.3273C143.949 97.2696 144.713 98.0905 145.006 99.1345C145.788 101.822 143.166 104.506 140.511 104.87C137.82 105.279 135.232 104.14 132.648 103.374C130.064 102.607 127.1 102.136 124.84 103.698C121.964 105.666 121.56 109.867 119.632 112.799C117.57 115.998 113.735 117.584 110.033 117.867C106.376 118.186 102.682 117.512 99.0177 117.085C91.4177 116.387 84.7118 115.872 77.4766 118.867Z" fill="#4DC591"/>
</g>
<g filter="url(#filter4_d)">
<path d="M69.2909 117.083C74.8195 111.183 80.4063 105.283 84.7186 98.4401C91.6299 87.4796 94.945 74.3324 94.1778 61.3846C94.0728 59.9846 93.5632 58.1733 92.1642 58.1617C91.523 58.1564 90.9955 58.5018 90.5258 58.906C89.2935 59.8868 88.1768 60.9851 87.234 62.2015C86.5855 63.0705 85.7612 64.0547 84.713 63.9295C83.9557 63.8649 83.4364 63.2193 83.0919 62.5752C81.3688 59.4713 82.3926 55.5158 84.2825 52.5584C86.1725 49.601 88.8741 47.175 90.7645 44.1593C92.6549 41.1437 93.6204 37.1876 91.8385 34.1415C91.3785 33.3799 90.6848 32.6746 89.8104 32.6673C89.4024 32.664 89.0512 32.8359 88.7 33.0079C84.8369 34.8996 83.3988 39.6096 81.5594 43.5001C81.3812 43.9067 81.0858 44.3706 80.6764 44.5421C80.0332 44.77 79.3964 44.24 78.9927 43.712C76.9193 40.6635 78.7596 36.6564 80.3032 33.2881C82.3811 28.7583 83.9396 23.583 82.5219 18.7911C82.1809 17.7389 81.665 16.6854 80.7371 16.0947C78.5327 14.794 75.7154 17.1024 75.2283 19.6051C74.7412 22.1077 75.5361 24.6793 75.5731 27.2446C75.5678 27.8858 75.5042 28.5265 75.034 28.9889C74.2704 29.6822 72.9336 29.2047 72.4162 28.326C71.8989 27.4473 71.9663 26.3403 72.0916 25.292C72.8004 17.1366 73.2245 8.16268 68.148 1.70819C67.6287 1.06265 67.0511 0.416621 66.237 0.176697C64.6665 -0.244377 63.1408 0.967176 62.3714 2.35988C60.3008 6.0153 61.2536 10.6285 62.9122 14.4897C64.5708 18.3509 66.9307 21.9847 67.713 26.0718C67.9924 27.5315 68.0377 29.1059 67.4436 30.4417C66.8496 31.7776 65.4415 32.8735 63.9852 32.7449C62.063 32.5541 60.8548 30.6203 60.0532 28.8648C59.3653 27.4601 58.6775 26.0553 57.9891 24.7088C57.5878 23.8893 57.0126 22.9519 56.08 22.9441C54.9146 22.8762 54.3192 24.3869 54.309 25.611C54.2805 29.0502 56.1776 32.2721 58.6055 34.7406C60.9751 37.2086 63.8737 39.1564 66.5368 41.3936C67.2314 41.9824 67.9256 42.6294 68.3269 43.4488C68.8428 44.5024 68.7739 45.7843 68.5311 46.9482C67.9293 49.2167 66.4557 51.1865 64.4058 52.3354C62.883 53.1972 61.1309 53.5908 59.781 54.6872C57.4927 56.4754 56.8804 60.0263 58.4922 62.488C59.8733 64.6564 62.4887 65.6108 64.9918 66.0396C67.495 66.4684 70.1185 66.4318 72.5605 67.2099C73.6651 67.5688 74.7688 68.0443 75.4022 68.9823C76.3238 70.3307 76.0756 72.1358 75.4224 73.5877C74.4131 75.7946 72.5906 77.6449 70.3678 78.5592C68.3204 79.4167 66.0456 79.5727 63.9414 80.2548C61.8376 80.8786 59.6692 82.2598 59.1267 84.4122C58.3429 87.5536 61.3513 90.3184 64.2538 91.7998C67.1567 93.2229 70.5862 94.4172 71.9611 97.3434C72.9356 99.3335 72.6243 101.721 72.1984 103.874C71.285 108.589 69.79 113.123 67.7719 117.479" fill="#4DC591"/>
</g>
<g filter="url(#filter5_d)">
<path d="M228.238 127.28C230.686 124.89 232.61 121.917 233.776 118.711C234.883 115.447 235 111.891 235 108.452C234.942 104.604 234.709 100.757 234.3 96.968C228.355 98.8334 222.467 101.049 217.104 104.196C211.741 107.344 206.728 111.425 203.58 116.846C198.217 126.114 200.024 136.782 200.024 136.782C200.024 136.782 215.006 140.221 228.238 127.28Z" fill="url(#paint1_linear)"/>
<path opacity="0.3" d="M210.808 128.038C213.84 125.415 216.813 122.617 219.552 119.702C224.799 114.106 229.229 107.811 232.202 100.582C232.26 100.407 232.027 100.291 231.91 100.466C228.646 107.869 223.749 114.339 218.212 119.994C215.588 122.675 212.849 125.182 209.992 127.63C207.019 130.195 203.755 132.41 200.84 135.092C200.491 135.383 200.957 135.849 201.307 135.616C204.688 133.401 207.777 130.661 210.808 128.038Z" fill="url(#paint2_linear)"/>
</g>
<g filter="url(#filter6_d)">
<path d="M97.4273 41.7508L57.8067 128.559L59.4506 129.31L99.0712 42.5011L97.4273 41.7508Z" fill="#00664F"/>
<path d="M57.4982 131.361C56.1575 130.778 55.5746 129.146 56.1575 127.805C56.7404 126.464 58.3726 125.881 59.7134 126.464C82.331 136.782 109.087 126.814 119.405 104.196C129.723 81.5787 119.755 54.8223 97.1374 44.5044C95.7966 43.9215 95.2137 42.2893 95.7966 40.9486C96.3796 39.6078 98.0118 39.0249 99.3525 39.6078C124.593 51.1498 135.786 81.054 124.244 106.353C112.702 131.769 82.7973 142.903 57.4982 131.361Z" fill="#00664F"/>
<path d="M78.4254 127.747C101.734 127.747 120.629 108.851 120.629 85.5426C120.629 62.234 101.734 43.3386 78.4254 43.3386C55.1168 43.3386 36.2214 62.234 36.2214 85.5426C36.2214 108.851 55.1168 127.747 78.4254 127.747Z" fill="#B0DDC9"/>
<path d="M116.84 103.089C115.383 106.295 113.576 109.209 111.477 111.891C106.464 113.989 100.868 114.689 95.5052 113.756C94.8056 113.64 94.1061 113.465 93.5815 112.999C92.0076 111.599 93.3483 109.093 93.3483 106.994C93.3483 105.246 92.299 103.672 91.3081 102.214C89.0929 98.9499 86.8778 94.9277 88.2185 91.1387C89.5593 87.3496 94.0478 85.3094 95.2137 81.4621C96.263 77.7896 93.873 74.0006 93.8147 70.1533C93.7564 67.1803 95.2137 64.324 97.2539 62.2254C99.3525 60.1269 102.034 58.7279 104.832 57.7369C106.289 57.2122 107.922 56.8625 109.495 56.8625C120.629 69.0457 124.127 87.1748 116.84 103.089ZM65.6009 124.949C67.7578 123.899 69.5648 121.917 69.9729 119.586C70.3809 117.021 69.0985 114.514 67.5246 112.474C65.8924 110.434 63.9687 108.685 62.628 106.47C62.0451 105.537 61.637 104.488 61.637 103.38C61.6953 100.349 64.9597 98.2504 65.3095 95.2775C65.6592 92.6543 63.5607 90.2643 61.229 89.0984C58.8389 87.9326 56.1575 87.6411 53.5926 86.9416C51.0277 86.2421 48.4628 84.8431 47.4135 82.3948C46.1311 79.3052 47.7633 75.6328 46.0145 72.7181C44.907 70.8528 41.9923 69.6286 39.4857 69.2206C30.6835 90.1477 40.0686 114.456 60.8792 123.958C62.1033 124.482 63.2692 125.007 64.4934 125.415C64.9014 125.298 65.2512 125.123 65.6009 124.949ZM53.8841 51.2081C54.0006 51.6744 54.1755 52.1408 54.4087 52.5488C56.4489 56.8625 60.8209 60.1269 61.4621 64.8486C61.637 66.1311 61.5787 67.5884 62.3948 68.5793C62.8029 69.104 63.4441 69.3955 64.0853 69.6869C69.39 71.902 76.0353 70.3281 79.7078 65.8979C83.2636 61.5842 83.9049 55.58 86.7029 50.7417C87.519 49.3427 88.51 48.002 88.51 46.3698C88.51 45.6703 88.2768 45.029 87.9271 44.4461C75.9188 41.648 63.5607 44.2712 53.8841 51.2081Z" fill="#2EA889"/>
<path d="M82.5642 134.917H74.2866V154.62H82.5642V134.917Z" fill="#00664F"/>
<path d="M111.128 161.673H45.7231C43.5662 161.673 41.8757 159.924 41.8757 157.826C41.8757 155.669 43.6245 153.978 45.7231 153.978H111.069C113.226 153.978 114.917 155.727 114.917 157.826C114.975 159.924 113.226 161.673 111.128 161.673Z" fill="#00664F"/>
<path d="M200.782 120.052C204.921 120.052 208.302 116.671 208.302 112.532C208.302 108.393 204.921 105.012 200.782 105.012H112.76C115.675 110.026 115.675 115.039 112.76 120.052H200.782Z" fill="#EDEDED"/>
<path d="M200.782 120.052C205.037 120.052 208.477 116.496 208.302 112.182C208.127 108.16 204.629 105.071 200.607 105.071H111.594C110.953 105.071 110.428 104.546 110.428 103.905C110.428 103.264 110.953 102.739 111.594 102.739H200.782C206.203 102.739 210.575 107.111 210.575 112.532C210.575 117.953 206.203 122.325 200.782 122.325H111.594C110.953 122.325 110.428 121.801 110.428 121.16C110.428 120.518 110.953 119.994 111.594 119.994H200.782V120.052Z" fill="#FFC278"/>
<path d="M205.154 106.47L198.042 106.528L184.693 106.645L157.937 106.703L131.18 106.645L117.831 106.586L113.518 106.528C113.459 106.47 113.459 106.411 113.401 106.353L117.773 106.295L131.122 106.237L157.879 106.178L184.635 106.237L197.984 106.295L204.863 106.353C205.038 106.353 205.096 106.411 205.154 106.47ZM206.903 108.219C206.903 108.16 206.845 108.16 206.845 108.102L198.101 107.985L184.752 107.927L157.995 107.869L131.239 107.927L117.89 107.985L114.217 108.044C114.217 108.102 114.276 108.16 114.276 108.277L117.89 108.335L131.239 108.393L157.995 108.452L184.693 108.393L198.042 108.335L206.903 108.219ZM207.836 109.967C207.836 109.967 207.836 109.909 207.777 109.909L198.042 109.792L184.693 109.734L157.937 109.676L131.18 109.734L117.831 109.792L114.684 109.851C114.684 109.909 114.684 110.026 114.742 110.084L117.89 110.142L131.239 110.2L157.995 110.259L184.693 110.142L198.042 110.084L207.836 109.967ZM113.401 118.828L117.773 118.886L131.122 118.944L157.879 119.003L184.635 118.944L197.984 118.886L204.863 118.828C204.921 118.77 204.979 118.711 205.037 118.711L197.926 118.653L184.577 118.595L157.82 118.536L131.064 118.595L117.715 118.653L113.401 118.711C113.459 118.653 113.459 118.77 113.401 118.828ZM206.845 117.021C206.845 116.962 206.903 116.962 206.903 116.904L198.101 116.788L184.752 116.729L157.995 116.671L131.239 116.729L117.89 116.788L114.276 116.846C114.276 116.904 114.217 116.962 114.217 117.079L117.89 117.137L131.239 117.196L157.995 117.254L184.752 117.196L198.101 117.137L206.845 117.021ZM207.777 115.214C207.777 115.214 207.777 115.155 207.836 115.155L198.101 115.039L184.752 114.98L157.995 114.922L131.239 114.98L117.89 115.039L114.742 115.097C114.742 115.155 114.742 115.272 114.684 115.33L117.831 115.389L131.18 115.447L157.937 115.505L184.693 115.447L198.042 115.389L207.777 115.214ZM208.244 113.465V113.407L198.042 113.29L184.693 113.232L157.937 113.173L131.18 113.232L117.831 113.29L114.917 113.348C114.917 113.407 114.917 113.523 114.917 113.581L117.831 113.64L131.18 113.698L157.937 113.756L184.693 113.64L198.042 113.581L208.244 113.465ZM208.244 111.716V111.658L198.101 111.541L184.752 111.483L157.995 111.425L131.239 111.483L117.89 111.541L114.975 111.599C114.975 111.658 114.975 111.774 114.975 111.833L117.89 111.891L131.239 111.949L157.995 112.008L184.693 111.891L198.042 111.833L208.244 111.716Z" fill="#E1E3EF"/>
<path d="M122.262 119.411L126.109 117.196L129.956 119.411V109.734H122.262V119.411Z" fill="#FFC278"/>
<path d="M120.28 139.697C116.141 139.697 112.76 136.316 112.76 132.177C112.76 128.038 116.141 124.657 120.28 124.657H208.302C205.387 129.67 205.387 134.683 208.302 139.697H120.28Z" fill="#EDEDED"/>
<path d="M120.28 139.697C116.024 139.697 112.585 136.141 112.76 131.827C112.935 127.805 116.432 124.715 120.455 124.715H209.409C210.051 124.715 210.575 124.191 210.575 123.55C210.575 122.908 210.051 122.384 209.409 122.384H120.221C114.8 122.384 110.428 126.756 110.428 132.177C110.428 137.598 114.8 141.97 120.221 141.97H209.409C210.051 141.97 210.575 141.445 210.575 140.804C210.575 140.163 210.051 139.638 209.409 139.638H120.28V139.697Z" fill="#FF7648"/>
<path d="M116.083 125.94L122.961 125.881L136.31 125.823L163.067 125.765L189.823 125.823L203.172 125.881L207.544 125.94C207.486 125.998 207.486 126.056 207.427 126.114L203.114 126.173L189.765 126.231L163.008 126.289L136.252 126.231L122.903 126.173L115.791 126.114C115.966 126.056 116.024 125.998 116.083 125.94ZM122.961 127.922L136.31 127.98L163.067 128.038L189.823 127.98L203.172 127.922L206.786 127.863C206.786 127.805 206.845 127.747 206.845 127.63L203.172 127.572L189.823 127.513L163.067 127.455L136.31 127.513L122.961 127.572L114.217 127.688C114.217 127.747 114.159 127.747 114.159 127.805L122.961 127.922ZM122.961 129.67L136.31 129.729L163.067 129.787L189.823 129.729L203.172 129.67L206.32 129.612C206.32 129.554 206.32 129.437 206.378 129.379L203.23 129.321L189.881 129.262L163.125 129.204L136.368 129.262L123.019 129.321L113.285 129.437C113.285 129.437 113.285 129.495 113.226 129.495L122.961 129.67ZM207.544 138.239L203.23 138.181L189.881 138.123L163.125 138.064L136.368 138.123L123.019 138.181L115.908 138.239C115.966 138.298 116.024 138.356 116.083 138.356L122.961 138.414L136.31 138.473L163.067 138.531L189.823 138.473L203.172 138.414L207.544 138.356C207.602 138.414 207.602 138.298 207.544 138.239ZM122.961 136.724L136.31 136.782L163.067 136.84L189.823 136.782L203.172 136.724L206.845 136.665C206.845 136.607 206.786 136.549 206.786 136.432L203.172 136.374L189.823 136.316L163.067 136.257L136.31 136.316L122.961 136.374L114.159 136.491C114.159 136.549 114.217 136.549 114.217 136.607L122.961 136.724ZM122.961 134.975L136.31 135.033L163.067 135.092L189.823 135.033L203.172 134.975L206.32 134.917C206.32 134.858 206.32 134.742 206.262 134.683L203.114 134.625L189.765 134.567L163.008 134.509L136.252 134.567L122.903 134.625L113.168 134.742C113.168 134.742 113.168 134.8 113.226 134.8L122.961 134.975ZM122.961 133.226L136.31 133.284L163.067 133.343L189.823 133.284L203.172 133.226L206.087 133.168C206.087 133.11 206.087 132.993 206.087 132.935L203.172 132.876L189.823 132.818L163.067 132.76L136.31 132.818L122.961 132.876L112.76 132.993V133.051L122.961 133.226ZM122.961 131.477L136.31 131.536L163.067 131.594L189.823 131.536L203.172 131.477L206.087 131.419C206.087 131.361 206.087 131.244 206.087 131.186L203.172 131.128L189.823 131.069L163.067 131.011L136.31 131.069L122.961 131.128L112.818 131.244V131.302L122.961 131.477Z" fill="#E1E3EF"/>
<path d="M201.19 135.616L197.343 133.401L193.554 135.616V125.881H201.19V135.616Z" fill="#FE9946"/>
<path d="M200.782 159.341C204.921 159.341 208.302 155.96 208.302 151.822C208.302 147.683 204.921 144.302 200.782 144.302H112.76C115.675 149.315 115.675 154.328 112.76 159.341H200.782Z" fill="#EDEDED"/>
<path d="M200.782 159.341C205.037 159.341 208.477 155.786 208.302 151.472C208.127 147.45 204.629 144.36 200.607 144.36H111.652C111.011 144.36 110.486 143.835 110.486 143.194C110.486 142.553 111.011 142.028 111.652 142.028H200.84C206.262 142.028 210.634 146.4 210.634 151.822C210.634 157.243 206.262 161.615 200.84 161.615H111.652C111.011 161.615 110.486 161.09 110.486 160.449C110.486 159.808 111.011 159.283 111.652 159.283H200.782V159.341Z" fill="#8F98FF"/>
<path d="M205.154 145.759L198.042 145.817L184.693 145.876L157.937 145.934L131.18 145.876L117.831 145.817L113.518 145.759C113.459 145.701 113.459 145.642 113.401 145.584L117.773 145.526L131.122 145.468L157.879 145.409L184.635 145.468L197.984 145.526L204.863 145.584C205.038 145.642 205.096 145.701 205.154 145.759ZM206.903 147.508C206.903 147.45 206.845 147.45 206.845 147.391L198.101 147.275L184.752 147.216L157.995 147.158L131.239 147.216L117.89 147.275L114.217 147.333C114.217 147.391 114.276 147.45 114.276 147.566L117.89 147.624L131.239 147.683L157.995 147.741L184.752 147.683L198.101 147.624L206.903 147.508ZM207.836 149.257C207.836 149.257 207.836 149.198 207.777 149.198L198.042 149.082L184.693 149.023L157.937 148.965L131.18 149.023L117.831 149.082L114.684 149.14C114.684 149.198 114.684 149.315 114.742 149.373L117.89 149.432L131.239 149.49L157.995 149.548L184.752 149.49L198.101 149.432L207.836 149.257ZM206.845 156.31C206.845 156.252 206.903 156.252 206.903 156.193L198.101 156.077L184.752 156.019L157.995 155.96L131.239 156.019L117.89 156.077L114.276 156.135C114.276 156.193 114.217 156.252 114.217 156.368L117.89 156.427L131.239 156.485L157.995 156.543L184.752 156.485L198.101 156.427L206.845 156.31ZM207.777 154.503C207.777 154.503 207.777 154.445 207.836 154.445L198.101 154.328L184.752 154.27L157.995 154.212L131.239 154.27L117.89 154.328L114.742 154.386C114.742 154.445 114.742 154.561 114.684 154.62L117.831 154.678L131.18 154.736L157.937 154.794L184.693 154.736L198.042 154.678L207.777 154.503ZM208.244 152.754V152.696L198.042 152.579L184.693 152.521L157.937 152.463L131.18 152.521L117.831 152.579L114.917 152.638C114.917 152.696 114.917 152.813 114.917 152.871L117.831 152.929L131.18 152.987L157.937 153.046L184.693 152.987L198.042 152.929L208.244 152.754ZM208.244 151.005V150.947L198.101 150.831L184.752 150.772L157.995 150.714L131.239 150.772L117.89 150.831L114.975 150.889C114.975 150.947 114.975 151.064 114.975 151.122L117.89 151.18L131.239 151.239L157.995 151.297L184.752 151.239L198.101 151.18L208.244 151.005Z" fill="#E1E3EF"/>
<path d="M143.422 158.7L147.269 156.485L151.058 158.7V148.965H143.422V158.7Z" fill="#8F98FF"/>
</g>
<defs>
<filter id="filter0_d" x="6.99512" y="32.0611" width="93.0687" height="100.813" filterUnits="userSpaceOnUse" color-interpolation-filters="sRGB">
<feFlood flood-opacity="0" result="BackgroundImageFix"/>
<feColorMatrix in="SourceAlpha" type="matrix" values="0 0 0 0 0 0 0 0 0 0 0 0 0 0 0 0 0 0 127 0"/>
<feOffset dy="4"/>
<feGaussianBlur stdDeviation="2"/>
<feColorMatrix type="matrix" values="0 0 0 0 0 0 0 0 0 0 0 0 0 0 0 0 0 0 0.25 0"/>
<feBlend mode="normal" in2="BackgroundImageFix" result="effect1_dropShadow"/>
<feBlend mode="normal" in="SourceGraphic" in2="effect1_dropShadow" result="shape"/>
</filter>
<filter id="filter1_d" x="164.838" y="63.4746" width="69.4468" height="65.06" filterUnits="userSpaceOnUse" color-interpolation-filters="sRGB">
<feFlood flood-opacity="0" result="BackgroundImageFix"/>
<feColorMatrix in="SourceAlpha" type="matrix" values="0 0 0 0 0 0 0 0 0 0 0 0 0 0 0 0 0 0 127 0"/>
<feOffset dy="4"/>
<feGaussianBlur stdDeviation="2"/>
<feColorMatrix type="matrix" values="0 0 0 0 0 0 0 0 0 0 0 0 0 0 0 0 0 0 0.25 0"/>
<feBlend mode="normal" in2="BackgroundImageFix" result="effect1_dropShadow"/>
<feBlend mode="normal" in="SourceGraphic" in2="effect1_dropShadow" result="shape"/>
</filter>
<filter id="filter2_d" x="0" y="83.9417" width="62.739" height="48.6574" filterUnits="userSpaceOnUse" color-interpolation-filters="sRGB">
<feFlood flood-opacity="0" result="BackgroundImageFix"/>
<feColorMatrix in="SourceAlpha" type="matrix" values="0 0 0 0 0 0 0 0 0 0 0 0 0 0 0 0 0 0 127 0"/>
<feOffset dy="4"/>
<feGaussianBlur stdDeviation="2"/>
<feColorMatrix type="matrix" values="0 0 0 0 0 0 0 0 0 0 0 0 0 0 0 0 0 0 0.25 0"/>
<feBlend mode="normal" in2="BackgroundImageFix" result="effect1_dropShadow"/>
<feBlend mode="normal" in="SourceGraphic" in2="effect1_dropShadow" result="shape"/>
</filter>
<filter id="filter3_d" x="70.5344" y="32.1359" width="114.335" height="123.907" filterUnits="userSpaceOnUse" color-interpolation-filters="sRGB">
<feFlood flood-opacity="0" result="BackgroundImageFix"/>
<feColorMatrix in="SourceAlpha" type="matrix" values="0 0 0 0 0 0 0 0 0 0 0 0 0 0 0 0 0 0 127 0"/>
<feOffset dy="4"/>
<feGaussianBlur stdDeviation="2"/>
<feColorMatrix type="matrix" values="0 0 0 0 0 0 0 0 0 0 0 0 0 0 0 0 0 0 0.25 0"/>
<feBlend mode="normal" in2="BackgroundImageFix" result="effect1_dropShadow"/>
<feBlend mode="normal" in="SourceGraphic" in2="effect1_dropShadow" result="shape"/>
</filter>
<filter id="filter4_d" x="49.549" y="1.52588e-05" width="49.2757" height="125.695" filterUnits="userSpaceOnUse" color-interpolation-filters="sRGB">
<feFlood flood-opacity="0" result="BackgroundImageFix"/>
<feColorMatrix in="SourceAlpha" type="matrix" values="0 0 0 0 0 0 0 0 0 0 0 0 0 0 0 0 0 0 127 0"/>
<feOffset dy="4"/>
<feGaussianBlur stdDeviation="2"/>
<feColorMatrix type="matrix" values="0 0 0 0 0 0 0 0 0 0 0 0 0 0 0 0 0 0 0.25 0"/>
<feBlend mode="normal" in2="BackgroundImageFix" result="effect1_dropShadow"/>
<feBlend mode="normal" in="SourceGraphic" in2="effect1_dropShadow" result="shape"/>
</filter>
<filter id="filter5_d" x="195.731" y="96.968" width="43.2686" height="48.2283" filterUnits="userSpaceOnUse" color-interpolation-filters="sRGB">
<feFlood flood-opacity="0" result="BackgroundImageFix"/>
<feColorMatrix in="SourceAlpha" type="matrix" values="0 0 0 0 0 0 0 0 0 0 0 0 0 0 0 0 0 0 127 0"/>
<feOffset dy="4"/>
<feGaussianBlur stdDeviation="2"/>
<feColorMatrix type="matrix" values="0 0 0 0 0 0 0 0 0 0 0 0 0 0 0 0 0 0 0.25 0"/>
<feBlend mode="normal" in2="BackgroundImageFix" result="effect1_dropShadow"/>
<feBlend mode="normal" in="SourceGraphic" in2="effect1_dropShadow" result="shape"/>
</filter>
<filter id="filter6_d" x="32.1877" y="39.3824" width="182.446" height="130.291" filterUnits="userSpaceOnUse" color-interpolation-filters="sRGB">
<feFlood flood-opacity="0" result="BackgroundImageFix"/>
<feColorMatrix in="SourceAlpha" type="matrix" values="0 0 0 0 0 0 0 0 0 0 0 0 0 0 0 0 0 0 127 0"/>
<feOffset dy="4"/>
<feGaussianBlur stdDeviation="2"/>
<feColorMatrix type="matrix" values="0 0 0 0 0 0 0 0 0 0 0 0 0 0 0 0 0 0 0.25 0"/>
<feBlend mode="normal" in2="BackgroundImageFix" result="effect1_dropShadow"/>
<feBlend mode="normal" in="SourceGraphic" in2="effect1_dropShadow" result="shape"/>
</filter>
<linearGradient id="paint0_linear" x1="227.348" y1="67.3607" x2="123.776" y2="158.369" gradientUnits="userSpaceOnUse">
<stop stop-color="#6CD3FF"/>
<stop offset="1" stop-color="#8582C9"/>
</linearGradient>
<linearGradient id="paint1_linear" x1="233.895" y1="105.158" x2="194.697" y2="139.788" gradientUnits="userSpaceOnUse">
<stop offset="0.00060096" stop-color="#B2DB90"/>
<stop offset="1" stop-color="#2BBA90"/>
</linearGradient>
<linearGradient id="paint2_linear" x1="212.611" y1="108.418" x2="220.571" y2="127.664" gradientUnits="userSpaceOnUse">
<stop stop-color="#2B6565"/>
<stop offset="1" stop-color="#2BBA90"/>
</linearGradient>
</defs>
</svg>
