<svg width="27" height="27" viewBox="0 0 27 27" fill="none" xmlns="http://www.w3.org/2000/svg">
<path d="M13.5 27C17.0804 27 20.5142 25.5777 23.0459 23.0459C25.5777 20.5142 27 17.0804 27 13.5C27 9.91958 25.5777 6.4858 23.0459 3.95406C20.5142 1.42232 17.0804 0 13.5 0C9.91958 0 6.4858 1.42232 3.95406 3.95406C1.42232 6.4858 0 9.91958 0 13.5C0 17.0804 1.42232 20.5142 3.95406 23.0459C6.4858 25.5777 9.91958 27 13.5 27ZM5.90625 8.4375H21.0938C21.3175 8.4375 21.5321 8.52639 21.6904 8.68463C21.8486 8.84286 21.9375 9.05747 21.9375 9.28125C21.9375 9.50503 21.8486 9.71964 21.6904 9.87787C21.5321 10.0361 21.3175 10.125 21.0938 10.125H5.90625C5.68247 10.125 5.46786 10.0361 5.30963 9.87787C5.15139 9.71964 5.0625 9.50503 5.0625 9.28125C5.0625 9.05747 5.15139 8.84286 5.30963 8.68463C5.46786 8.52639 5.68247 8.4375 5.90625 8.4375ZM8.4375 14.3438C8.4375 14.12 8.52639 13.9054 8.68463 13.7471C8.84286 13.5889 9.05747 13.5 9.28125 13.5H17.7188C17.9425 13.5 18.1571 13.5889 18.3154 13.7471C18.4736 13.9054 18.5625 14.12 18.5625 14.3438C18.5625 14.5675 18.4736 14.7821 18.3154 14.9404C18.1571 15.0986 17.9425 15.1875 17.7188 15.1875H9.28125C9.05747 15.1875 8.84286 15.0986 8.68463 14.9404C8.52639 14.7821 8.4375 14.5675 8.4375 14.3438ZM11.8125 19.4062C11.8125 19.1825 11.9014 18.9679 12.0596 18.8096C12.2179 18.6514 12.4325 18.5625 12.6562 18.5625H14.3438C14.5675 18.5625 14.7821 18.6514 14.9404 18.8096C15.0986 18.9679 15.1875 19.1825 15.1875 19.4062C15.1875 19.63 15.0986 19.8446 14.9404 20.0029C14.7821 20.1611 14.5675 20.25 14.3438 20.25H12.6562C12.4325 20.25 12.2179 20.1611 12.0596 20.0029C11.9014 19.8446 11.8125 19.63 11.8125 19.4062Z" fill="#007AFF"/>
</svg>
