<svg width="16" height="16" viewBox="0 0 16 16" fill="none" xmlns="http://www.w3.org/2000/svg">
<path d="M4.64598 4.64601C4.69242 4.59945 4.7476 4.5625 4.80834 4.5373C4.86909 4.51209 4.93421 4.49911 4.99998 4.49911C5.06575 4.49911 5.13087 4.51209 5.19161 4.5373C5.25236 4.5625 5.30753 4.59945 5.35398 4.64601L7.99998 7.29301L10.646 4.64601C10.6925 4.59952 10.7477 4.56264 10.8084 4.53749C10.8691 4.51233 10.9342 4.49938 11 4.49938C11.0657 4.49938 11.1308 4.51233 11.1916 4.53749C11.2523 4.56264 11.3075 4.59952 11.354 4.64601C11.4005 4.6925 11.4373 4.74769 11.4625 4.80842C11.4877 4.86916 11.5006 4.93426 11.5006 5.00001C11.5006 5.06575 11.4877 5.13085 11.4625 5.19159C11.4373 5.25233 11.4005 5.30752 11.354 5.35401L8.70698 8.00001L11.354 10.646C11.4005 10.6925 11.4373 10.7477 11.4625 10.8084C11.4877 10.8692 11.5006 10.9343 11.5006 11C11.5006 11.0658 11.4877 11.1309 11.4625 11.1916C11.4373 11.2523 11.4005 11.3075 11.354 11.354C11.3075 11.4005 11.2523 11.4374 11.1916 11.4625C11.1308 11.4877 11.0657 11.5006 11 11.5006C10.9342 11.5006 10.8691 11.4877 10.8084 11.4625C10.7477 11.4374 10.6925 11.4005 10.646 11.354L7.99998 8.70701L5.35398 11.354C5.30749 11.4005 5.2523 11.4374 5.19156 11.4625C5.13082 11.4877 5.06572 11.5006 4.99998 11.5006C4.93423 11.5006 4.86913 11.4877 4.80839 11.4625C4.74766 11.4374 4.69247 11.4005 4.64598 11.354C4.59949 11.3075 4.56261 11.2523 4.53745 11.1916C4.5123 11.1309 4.49935 11.0658 4.49935 11C4.49935 10.9343 4.5123 10.8692 4.53745 10.8084C4.56261 10.7477 4.59949 10.6925 4.64598 10.646L7.29298 8.00001L4.64598 5.35401C4.59941 5.30756 4.56247 5.25239 4.53727 5.19164C4.51206 5.1309 4.49908 5.06578 4.49908 5.00001C4.49908 4.93424 4.51206 4.86912 4.53727 4.80837C4.56247 4.74763 4.59941 4.69245 4.64598 4.64601Z" fill="black"/>
</svg>
