<svg width="32" height="32" viewBox="0 0 32 32" fill="none" xmlns="http://www.w3.org/2000/svg">
<path d="M30.7501 3.46586H25.4347C25.3282 3.46586 25.2261 3.50815 25.1508 3.58343C25.0756 3.6587 25.0333 3.7608 25.0333 3.86726C25.0333 3.93566 25.0549 3.99686 25.0846 4.05266V7.11086C25.0847 7.22294 25.0627 7.33394 25.0199 7.43751C24.977 7.54107 24.9142 7.63518 24.8349 7.71443C24.7557 7.79368 24.6616 7.85652 24.558 7.89935C24.4545 7.94219 24.3435 7.96418 24.2314 7.96406H22.5772C22.4732 7.96406 22.3702 7.94357 22.2741 7.90377C22.178 7.86397 22.0907 7.80563 22.0171 7.73209C21.9436 7.65854 21.8853 7.57123 21.8455 7.47514C21.8057 7.37905 21.7852 7.27607 21.7852 7.17206V4.10216C21.8383 4.03519 21.868 3.95269 21.8698 3.86726C21.8699 3.81451 21.8596 3.76226 21.8395 3.71351C21.8193 3.66476 21.7898 3.62046 21.7525 3.58316C21.7152 3.54587 21.6709 3.5163 21.6221 3.49617C21.5734 3.47604 21.5211 3.46574 21.4684 3.46586H10.7539C10.6474 3.46586 10.5453 3.50815 10.47 3.58343C10.3948 3.6587 10.3525 3.7608 10.3525 3.86726C10.3525 3.92936 10.3696 3.98606 10.3948 4.03916V7.13246C10.3948 7.24178 10.3732 7.35004 10.3314 7.45104C10.2896 7.55205 10.2282 7.64382 10.1509 7.72113C10.0736 7.79843 9.98186 7.85975 9.88086 7.90159C9.77985 7.94343 9.6716 7.96496 9.56227 7.96496H8.09347C7.87053 7.96496 7.65672 7.8764 7.49908 7.71875C7.34144 7.56111 7.25287 7.3473 7.25287 7.12436V4.06166C7.28861 4.00301 7.30818 3.93593 7.30957 3.86726C7.30969 3.81451 7.29939 3.76226 7.27926 3.71351C7.25913 3.66476 7.22957 3.62046 7.19227 3.58316C7.15497 3.54587 7.11068 3.5163 7.06192 3.49617C7.01317 3.47604 6.96092 3.46574 6.90817 3.46586H1.30747C1.07092 3.4661 0.844104 3.56011 0.676749 3.7273C0.509393 3.89449 0.415149 4.1212 0.414673 4.35776V30.9384C0.414673 31.4316 0.815173 31.8321 1.30747 31.8321H30.7501C30.9868 31.8316 31.2136 31.7372 31.3809 31.5697C31.5481 31.4021 31.642 31.1751 31.642 30.9384V4.35776C31.6415 4.12136 31.5474 3.89478 31.3802 3.72762C31.2131 3.56046 30.9865 3.46634 30.7501 3.46586ZM30.7501 31.0293H1.30747C1.29558 31.0293 1.2838 31.0269 1.27282 31.0223C1.26184 31.0177 1.25188 31.011 1.24351 31.0026C1.23514 30.9941 1.22853 30.9841 1.22406 30.9731C1.21959 30.9621 1.21735 30.9503 1.21747 30.9384V10.8927H30.8392V30.9375C30.8394 30.9494 30.8373 30.9612 30.8329 30.9722C30.8286 30.9833 30.8221 30.9934 30.8138 31.0019C30.8055 31.0105 30.7956 31.0173 30.7847 31.022C30.7737 31.0267 30.762 31.0291 30.7501 31.0293Z" fill="#008080"/>
<path d="M8.93222 7.04963C9.15362 7.04963 9.33362 6.86963 9.33362 6.64823V1.25003C9.33362 1.19732 9.32324 1.14512 9.30307 1.09642C9.2829 1.04772 9.25333 1.00347 9.21606 0.9662C9.17878 0.928927 9.13453 0.89936 9.08583 0.879188C9.03713 0.859015 8.98494 0.848633 8.93222 0.848633C8.87951 0.848633 8.82731 0.859015 8.77861 0.879188C8.72991 0.89936 8.68566 0.928927 8.64839 0.9662C8.61112 1.00347 8.58155 1.04772 8.56138 1.09642C8.54121 1.14512 8.53082 1.19732 8.53082 1.25003V6.64913C8.53082 6.87053 8.71082 7.04963 8.93222 7.04963Z" fill="#008080"/>
<path d="M23.4709 7.04963C23.6923 7.04963 23.8723 6.86963 23.8723 6.64823V1.25003C23.8723 1.14358 23.83 1.04148 23.7547 0.9662C23.6795 0.890923 23.5774 0.848633 23.4709 0.848633C23.3645 0.848633 23.2624 0.890923 23.1871 0.9662C23.1118 1.04148 23.0695 1.14358 23.0695 1.25003V6.64913C23.0695 6.87053 23.2486 7.04963 23.4709 7.04963Z" fill="#008080"/>
<path d="M6.85777 16.965C8.07953 16.965 9.06997 15.9745 9.06997 14.7528C9.06997 13.531 8.07953 12.5406 6.85777 12.5406C5.636 12.5406 4.64557 13.531 4.64557 14.7528C4.64557 15.9745 5.636 16.965 6.85777 16.965Z" fill="#008080"/>
<path d="M13.2154 16.965C14.4372 16.965 15.4276 15.9745 15.4276 14.7528C15.4276 13.531 14.4372 12.5406 13.2154 12.5406C11.9937 12.5406 11.0032 13.531 11.0032 14.7528C11.0032 15.9745 11.9937 16.965 13.2154 16.965Z" fill="#008080"/>
<path d="M19.5722 16.965C20.7939 16.965 21.7844 15.9745 21.7844 14.7528C21.7844 13.531 20.7939 12.5406 19.5722 12.5406C18.3504 12.5406 17.36 13.531 17.36 14.7528C17.36 15.9745 18.3504 16.965 19.5722 16.965Z" fill="#008080"/>
<path d="M6.85777 23.1254C8.07953 23.1254 9.06997 22.135 9.06997 20.9132C9.06997 19.6915 8.07953 18.701 6.85777 18.701C5.636 18.701 4.64557 19.6915 4.64557 20.9132C4.64557 22.135 5.636 23.1254 6.85777 23.1254Z" fill="#008080"/>
<path d="M13.2154 23.1254C14.4372 23.1254 15.4276 22.135 15.4276 20.9132C15.4276 19.6915 14.4372 18.701 13.2154 18.701C11.9937 18.701 11.0032 19.6915 11.0032 20.9132C11.0032 22.135 11.9937 23.1254 13.2154 23.1254Z" fill="#008080"/>
<path d="M19.5722 23.1254C20.7939 23.1254 21.7844 22.135 21.7844 20.9132C21.7844 19.6915 20.7939 18.701 19.5722 18.701C18.3504 18.701 17.36 19.6915 17.36 20.9132C17.36 22.135 18.3504 23.1254 19.5722 23.1254Z" fill="#008080"/>
<path d="M6.85777 29.2859C8.07953 29.2859 9.06997 28.2954 9.06997 27.0737C9.06997 25.8519 8.07953 24.8615 6.85777 24.8615C5.636 24.8615 4.64557 25.8519 4.64557 27.0737C4.64557 28.2954 5.636 29.2859 6.85777 29.2859Z" fill="#008080"/>
<path d="M13.2154 29.2859C14.4372 29.2859 15.4276 28.2954 15.4276 27.0737C15.4276 25.8519 14.4372 24.8615 13.2154 24.8615C11.9937 24.8615 11.0032 25.8519 11.0032 27.0737C11.0032 28.2954 11.9937 29.2859 13.2154 29.2859Z" fill="#008080"/>
<path d="M19.5722 29.2859C20.7939 29.2859 21.7844 28.2954 21.7844 27.0737C21.7844 25.8519 20.7939 24.8615 19.5722 24.8615C18.3504 24.8615 17.36 25.8519 17.36 27.0737C17.36 28.2954 18.3504 29.2859 19.5722 29.2859Z" fill="#008080"/>
<path d="M25.7804 16.965C27.0022 16.965 27.9926 15.9745 27.9926 14.7528C27.9926 13.531 27.0022 12.5406 25.7804 12.5406C24.5587 12.5406 23.5682 13.531 23.5682 14.7528C23.5682 15.9745 24.5587 16.965 25.7804 16.965Z" fill="#008080"/>
<path d="M25.7804 23.1254C27.0022 23.1254 27.9926 22.135 27.9926 20.9132C27.9926 19.6915 27.0022 18.701 25.7804 18.701C24.5587 18.701 23.5682 19.6915 23.5682 20.9132C23.5682 22.135 24.5587 23.1254 25.7804 23.1254Z" fill="#008080"/>
<path d="M25.7804 29.2859C27.0022 29.2859 27.9926 28.2954 27.9926 27.0737C27.9926 25.8519 27.0022 24.8615 25.7804 24.8615C24.5587 24.8615 23.5682 25.8519 23.5682 27.0737C23.5682 28.2954 24.5587 29.2859 25.7804 29.2859Z" fill="#008080"/>
</svg>
