<svg width="32" height="32" viewBox="0 0 32 32" fill="none" xmlns="http://www.w3.org/2000/svg">
<path d="M24 30H8C7.46973 29.9995 6.96133 29.7886 6.58637 29.4136C6.21141 29.0387 6.00053 28.5303 6 28V4C6.00053 3.46973 6.21141 2.96133 6.58637 2.58637C6.96133 2.21141 7.46973 2.00053 8 2H24C24.5303 2.00053 25.0387 2.21141 25.4136 2.58637C25.7886 2.96133 25.9995 3.46973 26 4V20.618L21 18.118L16 20.618V4H8V28H24V24H26V28C25.9992 28.5302 25.7882 29.0384 25.4133 29.4133C25.0384 29.7882 24.5302 29.9992 24 30ZM21 15.882L24 17.382V4H18V17.382L21 15.882Z" fill="#007AFF"/>
</svg>
