<svg width="24" height="24" viewBox="0 0 24 24" fill="none" xmlns="http://www.w3.org/2000/svg">
<path d="M9 2.25C12.709 2.25 15.75 5.29102 15.75 9C15.75 9.38965 15.6855 9.73242 15.6328 10.0781L21.5391 15.9609L21.75 16.1953V21.75H16.5V19.5H14.25V17.25H12V15.0234C11.1152 15.457 10.084 15.75 9 15.75C5.29102 15.75 2.25 12.709 2.25 9C2.25 5.29102 5.29102 2.25 9 2.25ZM9 3.75C6.1084 3.75 3.75 6.1084 3.75 9C3.75 11.8916 6.1084 14.25 9 14.25C9.9082 14.25 10.8428 13.9834 11.5547 13.5938L11.7422 13.5H13.5V15.75H15.75V18H18V20.25H20.25V16.8281L14.3203 10.875L14.0391 10.6172L14.1094 10.2188C14.1855 9.76758 14.25 9.36621 14.25 9C14.25 6.1084 11.8916 3.75 9 3.75ZM7.5 6C8.3291 6 9 6.6709 9 7.5C9 8.3291 8.3291 9 7.5 9C6.6709 9 6 8.3291 6 7.5C6 6.6709 6.6709 6 7.5 6Z" fill="#011E25"/>
</svg>
