<svg width="25" height="25" viewBox="0 0 25 25" fill="none" xmlns="http://www.w3.org/2000/svg">
<path d="M11.7188 3.90625C10.8641 3.90625 10.1562 4.61406 10.1562 5.46875V6.25H3.125V20.3125H21.875V6.25H14.8438V5.46875C14.8438 4.61406 14.1359 3.90625 13.2812 3.90625H11.7188ZM11.7188 5.46875H13.2812V7.03125H11.7188V5.46875ZM4.6875 7.8125H10.1562V8.59375H14.8438V7.8125H20.3125V18.75H4.6875V7.8125ZM12.5 9.375C10.7812 9.375 9.375 10.7812 9.375 12.5C9.37581 12.9164 9.46025 13.3284 9.6233 13.7115C9.78636 14.0947 10.0247 14.4412 10.3242 14.7305C9.79258 15.0872 9.35673 15.5691 9.05498 16.1337C8.75324 16.6984 8.59486 17.3285 8.59375 17.9688H10.1562C10.1562 16.6656 11.1969 15.625 12.5 15.625C13.8031 15.625 14.8438 16.6656 14.8438 17.9688H16.4062C16.4051 17.3285 16.2468 16.6984 15.945 16.1337C15.6433 15.5691 15.2074 15.0872 14.6758 14.7305C14.9753 14.4412 15.2136 14.0947 15.3767 13.7115C15.5398 13.3284 15.6242 12.9164 15.625 12.5C15.625 10.7812 14.2188 9.375 12.5 9.375ZM12.5 10.9375C13.3727 10.9375 14.0625 11.6273 14.0625 12.5C14.0625 13.3727 13.3727 14.0625 12.5 14.0625C11.6273 14.0625 10.9375 13.3727 10.9375 12.5C10.9375 11.6273 11.6273 10.9375 12.5 10.9375Z" fill="#011E25"/>
</svg>
