<svg width="39" height="39" viewBox="0 0 39 39" fill="none" xmlns="http://www.w3.org/2000/svg">
<path d="M22.75 19.5H25.1875V24.0825L29.1525 26.3737L27.9338 28.4863L22.75 25.4963V19.5ZM6.5 3.25H29.25C30.112 3.25 30.9386 3.59241 31.5481 4.2019C32.1576 4.8114 32.5 5.63805 32.5 6.5V16.4125C34.515 18.46 35.75 21.2712 35.75 24.375C35.75 27.3918 34.5516 30.2851 32.4183 32.4183C30.2851 34.5516 27.3918 35.75 24.375 35.75C21.2712 35.75 18.46 34.515 16.4125 32.5H6.5C5.63805 32.5 4.8114 32.1576 4.2019 31.5481C3.59241 30.9386 3.25 30.112 3.25 29.25V6.5C3.25 5.63805 3.59241 4.8114 4.2019 4.2019C4.8114 3.59241 5.63805 3.25 6.5 3.25ZM6.5 24.375V29.25H14.0887C13.39 27.7712 13 26.1138 13 24.375H6.5ZM6.5 13H16.25V8.125H6.5V13ZM29.25 13V8.125H19.5V13H29.25ZM6.5 21.125H13.4712C14.0238 19.2563 15.0475 17.5825 16.4125 16.25H6.5V21.125ZM24.375 16.4937C22.2848 16.4937 20.2801 17.3241 18.8021 18.8021C17.3241 20.2801 16.4937 22.2848 16.4937 24.375C16.4937 28.73 20.02 32.2563 24.375 32.2563C25.41 32.2563 26.4348 32.0524 27.391 31.6563C28.3472 31.2603 29.216 30.6797 29.9479 29.9479C30.6797 29.216 31.2603 28.3472 31.6563 27.391C32.0524 26.4348 32.2563 25.41 32.2563 24.375C32.2563 20.02 28.73 16.4937 24.375 16.4937Z" fill="#567DF4"/>
</svg>
