<svg width="20" height="20" viewBox="0 0 20 20" fill="none" xmlns="http://www.w3.org/2000/svg">
<g clip-path="url(#clip0)">
<path d="M13.7501 3.12515C13.75 2.39194 14.0077 1.68204 14.4782 1.11966C14.9486 0.557281 15.6018 0.178228 16.3235 0.0488198C17.0452 -0.0805882 17.7895 0.0478901 18.426 0.411776C19.0625 0.775663 19.5509 1.35178 19.8055 2.03935C20.0602 2.72691 20.065 3.48212 19.8191 4.17286C19.5732 4.86361 19.0922 5.44588 18.4603 5.81783C17.8285 6.18977 17.0859 6.32769 16.3627 6.20746C15.6394 6.08723 14.9814 5.71651 14.5038 5.16015L6.10634 9.06015C6.29939 9.67195 6.29939 10.3283 6.10634 10.9401L14.5038 14.8401C15.0086 14.2531 15.7134 13.8743 16.4816 13.7772C17.2497 13.6801 18.0266 13.8717 18.6616 14.3148C19.2965 14.7578 19.7444 15.4208 19.9184 16.1753C20.0924 16.9298 19.9801 17.722 19.6033 18.3984C19.2265 19.0748 18.612 19.5872 17.8789 19.8363C17.1458 20.0855 16.3464 20.0536 15.6354 19.7469C14.9245 19.4402 14.3527 18.8805 14.031 18.1762C13.7092 17.472 13.6603 16.6734 13.8938 15.9351L5.49634 12.0351C5.08063 12.5196 4.52653 12.8651 3.90856 13.0253C3.2906 13.1854 2.63842 13.1524 2.03976 12.9307C1.4411 12.7091 0.924682 12.3094 0.559971 11.7855C0.195261 11.2616 -0.000244141 10.6385 -0.000244141 10.0001C-0.000244141 9.36178 0.195261 8.73872 0.559971 8.21479C0.924682 7.69086 1.4411 7.29119 2.03976 7.06955C2.63842 6.84791 3.2906 6.81493 3.90856 6.97504C4.52653 7.13516 5.08063 7.48069 5.49634 7.96515L13.8938 4.06515C13.7982 3.76098 13.7498 3.44398 13.7501 3.12515Z" fill="#007AFF"/>
</g>
<defs>
<clipPath id="clip0">
<rect width="20" height="20" fill="white"/>
</clipPath>
</defs>
</svg>
