<svg width="29" height="30" viewBox="0 0 29 30" fill="none" xmlns="http://www.w3.org/2000/svg">
<g clip-path="url(#clip0)">
<path d="M10.8124 1.73859H3.55253C3.29687 1.74535 3.05421 1.85274 2.87728 2.0374C2.70035 2.22207 2.60344 2.4691 2.60761 2.72481V15.2101C2.60344 15.4658 2.70035 15.7128 2.87728 15.8975C3.05421 16.0821 3.29687 16.1895 3.55253 16.1963H14.055C14.3107 16.1895 14.5533 16.0821 14.7303 15.8975C14.9072 15.7128 15.0041 15.4658 14.9999 15.2101V5.82805L10.8124 1.73859ZM10.3528 6.38571V2.68866L14.1221 6.38571H10.3528Z" fill="#23B0B0"/>
</g>
<g clip-path="url(#clip1)">
<path d="M10.8124 15.8857H3.55253C3.29687 15.8924 3.05421 15.9998 2.87728 16.1845C2.70035 16.3692 2.60344 16.6162 2.60761 16.8719V29.3572C2.60344 29.6129 2.70035 29.8599 2.87728 30.0446C3.05421 30.2292 3.29687 30.3366 3.55253 30.3434H14.055C14.3107 30.3366 14.5533 30.2292 14.7303 30.0446C14.9072 29.8599 15.0041 29.6129 14.9999 29.3572V19.9751L10.8124 15.8857ZM10.3528 20.5328V16.8358L14.1221 20.5328H10.3528Z" fill="#23B0B0"/>
</g>
<g clip-path="url(#clip2)">
<path d="M23.4593 1.73859H16.1995C15.9438 1.74535 15.7012 1.85274 15.5243 2.0374C15.3473 2.22207 15.2504 2.4691 15.2546 2.72481V15.2101C15.2504 15.4658 15.3473 15.7128 15.5243 15.8975C15.7012 16.0821 15.9438 16.1895 16.1995 16.1963H26.702C26.9576 16.1895 27.2003 16.0821 27.3772 15.8975C27.5542 15.7128 27.6511 15.4658 27.6469 15.2101V5.82805L23.4593 1.73859ZM22.9998 6.38571V2.68866L26.7691 6.38571H22.9998Z" fill="#23B0B0"/>
</g>
<g clip-path="url(#clip3)">
<path d="M23.4593 15.8857H16.1995C15.9438 15.8924 15.7012 15.9998 15.5243 16.1845C15.3473 16.3692 15.2504 16.6162 15.2546 16.8719V29.3572C15.2504 29.6129 15.3473 29.8599 15.5243 30.0446C15.7012 30.2292 15.9438 30.3366 16.1995 30.3434H26.702C26.9576 30.3366 27.2003 30.2292 27.3772 30.0446C27.5542 29.8599 27.6511 29.6129 27.6469 29.3572V19.9751L23.4593 15.8857ZM22.9998 20.5328V16.8358L26.7691 20.5328H22.9998Z" fill="#23B0B0"/>
</g>
<defs>
<clipPath id="clip0">
<rect width="15.6471" height="15.6471" fill="white"/>
</clipPath>
<clipPath id="clip1">
<rect width="15.6471" height="15.6471" fill="white" transform="translate(0 14.1471)"/>
</clipPath>
<clipPath id="clip2">
<rect width="15.6471" height="15.6471" fill="white" transform="translate(12.647)"/>
</clipPath>
<clipPath id="clip3">
<rect width="15.6471" height="15.6471" fill="white" transform="translate(12.647 14.1471)"/>
</clipPath>
</defs>
</svg>
