<svg width="375" height="812" viewBox="0 0 375 812" fill="none" xmlns="http://www.w3.org/2000/svg">
<rect width="375" height="812" fill="white"/>
<path d="M168.524 709.225H174.334V711H166.301V698.203H168.524V709.225ZM175.433 706.157C175.433 705.226 175.617 704.388 175.986 703.644C176.355 702.894 176.874 702.319 177.542 701.921C178.21 701.517 178.978 701.314 179.845 701.314C181.128 701.314 182.168 701.728 182.965 702.554C183.768 703.38 184.201 704.476 184.266 705.841L184.274 706.342C184.274 707.279 184.093 708.117 183.729 708.855C183.372 709.594 182.856 710.165 182.183 710.569C181.515 710.974 180.741 711.176 179.862 711.176C178.521 711.176 177.445 710.73 176.637 709.84C175.834 708.943 175.433 707.751 175.433 706.263V706.157ZM177.568 706.342C177.568 707.32 177.771 708.088 178.175 708.645C178.579 709.195 179.142 709.471 179.862 709.471C180.583 709.471 181.143 709.189 181.541 708.627C181.945 708.064 182.147 707.241 182.147 706.157C182.147 705.196 181.939 704.435 181.523 703.872C181.113 703.31 180.554 703.028 179.845 703.028C179.147 703.028 178.594 703.307 178.184 703.863C177.773 704.414 177.568 705.24 177.568 706.342ZM185.707 706.175C185.707 704.698 186.053 703.521 186.744 702.642C187.441 701.757 188.364 701.314 189.513 701.314C190.597 701.314 191.449 701.692 192.07 702.448L192.167 701.49H194.092V710.71C194.092 711.958 193.702 712.942 192.923 713.663C192.149 714.384 191.104 714.744 189.785 714.744C189.088 714.744 188.405 714.598 187.737 714.305C187.075 714.018 186.571 713.64 186.226 713.171L187.236 711.888C187.893 712.667 188.701 713.057 189.662 713.057C190.371 713.057 190.931 712.863 191.341 712.477C191.751 712.096 191.956 711.533 191.956 710.789V710.147C191.341 710.833 190.521 711.176 189.495 711.176C188.382 711.176 187.471 710.733 186.762 709.849C186.059 708.964 185.707 707.739 185.707 706.175ZM187.834 706.359C187.834 707.314 188.027 708.067 188.414 708.618C188.807 709.163 189.349 709.436 190.04 709.436C190.901 709.436 191.54 709.066 191.956 708.328V704.145C191.552 703.424 190.919 703.063 190.058 703.063C189.354 703.063 188.807 703.342 188.414 703.898C188.027 704.455 187.834 705.275 187.834 706.359ZM198.565 711H196.43V701.49H198.565V711ZM196.298 699.021C196.298 698.692 196.4 698.42 196.605 698.203C196.816 697.986 197.115 697.878 197.502 697.878C197.889 697.878 198.188 697.986 198.398 698.203C198.609 698.42 198.715 698.692 198.715 699.021C198.715 699.343 198.609 699.612 198.398 699.829C198.188 700.04 197.889 700.146 197.502 700.146C197.115 700.146 196.816 700.04 196.605 699.829C196.4 699.612 196.298 699.343 196.298 699.021ZM202.881 701.49L202.942 702.589C203.646 701.739 204.568 701.314 205.711 701.314C207.691 701.314 208.699 702.448 208.734 704.716V711H206.599V704.839C206.599 704.235 206.467 703.79 206.203 703.503C205.945 703.21 205.521 703.063 204.929 703.063C204.067 703.063 203.426 703.453 203.004 704.232V711H200.868V701.49H202.881Z" fill="white"/>
<path opacity="0.35" d="M336.5 20C336.5 18.8034 337.47 17.8334 338.667 17.8334H355.333C356.53 17.8334 357.5 18.8034 357.5 20V26C357.5 27.1967 356.53 28.1667 355.333 28.1667H338.667C337.47 28.1667 336.5 27.1967 336.5 26V20Z" stroke="black"/>
<path opacity="0.4" d="M359 21V25C359.805 24.6612 360.328 23.8731 360.328 23C360.328 22.1269 359.805 21.3388 359 21Z" fill="black"/>
<path d="M338 20.6667C338 19.9303 338.597 19.3334 339.333 19.3334H354.667C355.403 19.3334 356 19.9303 356 20.6667V25.3334C356 26.0698 355.403 26.6667 354.667 26.6667H339.333C338.597 26.6667 338 26.0698 338 25.3334V20.6667Z" fill="black"/>
<path fill-rule="evenodd" clip-rule="evenodd" d="M323.33 19.608C325.546 19.6081 327.677 20.4596 329.283 21.9863C329.404 22.1042 329.598 22.1027 329.717 21.983L330.873 20.8163C330.933 20.7556 330.967 20.6734 330.966 20.5878C330.966 20.5022 330.931 20.4204 330.87 20.3603C326.655 16.3208 320.005 16.3208 315.79 20.3603C315.729 20.4203 315.694 20.5021 315.694 20.5877C315.693 20.6733 315.727 20.7556 315.787 20.8163L316.943 21.983C317.062 22.1029 317.256 22.1044 317.377 21.9863C318.983 20.4595 321.114 19.608 323.33 19.608ZM323.33 23.4037C324.548 23.4036 325.722 23.8561 326.624 24.6733C326.746 24.7893 326.939 24.7868 327.058 24.6677L328.212 23.501C328.273 23.4398 328.307 23.3568 328.306 23.2705C328.305 23.1843 328.27 23.102 328.208 23.042C325.459 20.4856 321.204 20.4856 318.455 23.042C318.393 23.102 318.358 23.1843 318.357 23.2706C318.356 23.3569 318.39 23.4399 318.451 23.501L319.605 24.6677C319.724 24.7868 319.917 24.7893 320.039 24.6733C320.941 23.8567 322.114 23.4042 323.33 23.4037ZM325.643 25.9575C325.645 26.044 325.611 26.1274 325.549 26.188L323.552 28.2037C323.493 28.2629 323.414 28.2963 323.33 28.2963C323.247 28.2963 323.167 28.2629 323.109 28.2037L321.111 26.188C321.049 26.1274 321.015 26.0439 321.017 25.9574C321.019 25.8709 321.056 25.789 321.121 25.731C322.396 24.6521 324.264 24.6521 325.54 25.731C325.604 25.7891 325.642 25.871 325.643 25.9575Z" fill="black"/>
<path fill-rule="evenodd" clip-rule="evenodd" d="M309.667 17.6666H308.667C308.114 17.6666 307.667 18.1143 307.667 18.6666V27.3333C307.667 27.8856 308.114 28.3333 308.667 28.3333H309.667C310.219 28.3333 310.667 27.8856 310.667 27.3333V18.6666C310.667 18.1143 310.219 17.6666 309.667 17.6666ZM304 20H305C305.552 20 306 20.4477 306 21V27.3333C306 27.8856 305.552 28.3333 305 28.3333H304C303.448 28.3333 303 27.8856 303 27.3333V21C303 20.4477 303.448 20 304 20ZM300.333 22.3333H299.333C298.781 22.3333 298.333 22.781 298.333 23.3333V27.3333C298.333 27.8856 298.781 28.3333 299.333 28.3333H300.333C300.886 28.3333 301.333 27.8856 301.333 27.3333V23.3333C301.333 22.781 300.886 22.3333 300.333 22.3333ZM295.667 24.3333H294.667C294.114 24.3333 293.667 24.781 293.667 25.3333V27.3333C293.667 27.8856 294.114 28.3333 294.667 28.3333H295.667C296.219 28.3333 296.667 27.8856 296.667 27.3333V25.3333C296.667 24.781 296.219 24.3333 295.667 24.3333Z" fill="black"/>
<path d="M37.3207 28.2563C40.0087 28.2563 41.6053 26.1543 41.6053 22.5947C41.6053 21.2544 41.349 20.1265 40.8583 19.2549C40.1478 17.8999 38.9247 17.1675 37.3793 17.1675C35.0795 17.1675 33.4535 18.7129 33.4535 20.8809C33.4535 22.917 34.9183 24.3965 36.9325 24.3965C38.1703 24.3965 39.1737 23.8179 39.6718 22.8145H39.6937C39.6937 22.8145 39.723 22.8145 39.7303 22.8145C39.745 22.8145 39.7963 22.8145 39.7963 22.8145C39.7963 25.2314 38.8807 26.6743 37.3353 26.6743C36.4271 26.6743 35.724 26.1763 35.4823 25.3779H33.6C33.9149 27.1138 35.3871 28.2563 37.3207 28.2563ZM37.3866 22.895C36.1708 22.895 35.3065 22.0308 35.3065 20.8223C35.3065 19.6431 36.2147 18.7422 37.3939 18.7422C38.5731 18.7422 39.4813 19.6577 39.4813 20.8516C39.4813 22.0308 38.5951 22.895 37.3866 22.895Z" fill="black"/>
<path d="M44.6965 28.1538C45.3923 28.1538 45.8683 27.6558 45.8683 26.9966C45.8683 26.3301 45.3923 25.8394 44.6965 25.8394C44.008 25.8394 43.5246 26.3301 43.5246 26.9966C43.5246 27.6558 44.008 28.1538 44.6965 28.1538ZM44.6965 22.6606C45.3923 22.6606 45.8683 22.1699 45.8683 21.5107C45.8683 20.8442 45.3923 20.3535 44.6965 20.3535C44.008 20.3535 43.5246 20.8442 43.5246 21.5107C43.5246 22.1699 44.008 22.6606 44.6965 22.6606Z" fill="black"/>
<path d="M52.7241 28H54.5332V26.0298H55.9614V24.4331H54.5332V17.4312H51.8672C49.9995 20.2437 48.5127 22.5947 47.5605 24.3452V26.0298H52.7241V28ZM49.311 24.3672C50.5415 22.1992 51.6401 20.4634 52.6509 18.9692H52.7534V24.4771H49.311V24.3672Z" fill="black"/>
<path d="M59.99 28H61.8797V17.4312H59.9973L57.2361 19.3647V21.1812L59.8655 19.3354H59.99V28Z" fill="black"/>
<path d="M146.934 100.785H141.707V115H138.191V100.785H133.035V97.9375H146.934V100.785ZM152.301 115H148.902V102.32H152.301V115ZM148.703 99.0391C148.703 98.5312 148.871 98.1133 149.207 97.7852C149.551 97.457 150.016 97.293 150.602 97.293C151.18 97.293 151.641 97.457 151.984 97.7852C152.328 98.1133 152.5 98.5312 152.5 99.0391C152.5 99.5547 152.324 99.9766 151.973 100.305C151.629 100.633 151.172 100.797 150.602 100.797C150.031 100.797 149.57 100.633 149.219 100.305C148.875 99.9766 148.703 99.5547 148.703 99.0391ZM158.277 102.32L158.383 103.738C159.281 102.637 160.496 102.086 162.027 102.086C163.66 102.086 164.781 102.73 165.391 104.02C166.281 102.73 167.551 102.086 169.199 102.086C170.574 102.086 171.598 102.488 172.27 103.293C172.941 104.09 173.277 105.293 173.277 106.902V115H169.879V106.914C169.879 106.195 169.738 105.672 169.457 105.344C169.176 105.008 168.68 104.84 167.969 104.84C166.953 104.84 166.25 105.324 165.859 106.293L165.871 115H162.484V106.926C162.484 106.191 162.34 105.66 162.051 105.332C161.762 105.004 161.27 104.84 160.574 104.84C159.613 104.84 158.918 105.238 158.488 106.035V115H155.102V102.32H158.277ZM181.727 115.234C179.867 115.234 178.352 114.664 177.18 113.523C176.016 112.383 175.434 110.863 175.434 108.965V108.637C175.434 107.363 175.68 106.227 176.172 105.227C176.664 104.219 177.359 103.445 178.258 102.906C179.164 102.359 180.195 102.086 181.352 102.086C183.086 102.086 184.449 102.633 185.441 103.727C186.441 104.82 186.941 106.371 186.941 108.379V109.762H178.867C178.977 110.59 179.305 111.254 179.852 111.754C180.406 112.254 181.105 112.504 181.949 112.504C183.254 112.504 184.273 112.031 185.008 111.086L186.672 112.949C186.164 113.668 185.477 114.23 184.609 114.637C183.742 115.035 182.781 115.234 181.727 115.234ZM181.34 104.828C180.668 104.828 180.121 105.055 179.699 105.508C179.285 105.961 179.02 106.609 178.902 107.453H183.613V107.184C183.598 106.434 183.395 105.855 183.004 105.449C182.613 105.035 182.059 104.828 181.34 104.828ZM192.93 99.2031V102.32H195.098V104.805H192.93V111.133C192.93 111.602 193.02 111.938 193.199 112.141C193.379 112.344 193.723 112.445 194.23 112.445C194.605 112.445 194.938 112.418 195.227 112.363V114.93C194.562 115.133 193.879 115.234 193.176 115.234C190.801 115.234 189.59 114.035 189.543 111.637V104.805H187.691V102.32H189.543V99.2031H192.93ZM204.332 115C204.176 114.695 204.062 114.316 203.992 113.863C203.172 114.777 202.105 115.234 200.793 115.234C199.551 115.234 198.52 114.875 197.699 114.156C196.887 113.438 196.48 112.531 196.48 111.438C196.48 110.094 196.977 109.062 197.969 108.344C198.969 107.625 200.41 107.262 202.293 107.254H203.852V106.527C203.852 105.941 203.699 105.473 203.395 105.121C203.098 104.77 202.625 104.594 201.977 104.594C201.406 104.594 200.957 104.73 200.629 105.004C200.309 105.277 200.148 105.652 200.148 106.129H196.762C196.762 105.395 196.988 104.715 197.441 104.09C197.895 103.465 198.535 102.977 199.363 102.625C200.191 102.266 201.121 102.086 202.152 102.086C203.715 102.086 204.953 102.48 205.867 103.27C206.789 104.051 207.25 105.152 207.25 106.574V112.07C207.258 113.273 207.426 114.184 207.754 114.801V115H204.332ZM201.531 112.645C202.031 112.645 202.492 112.535 202.914 112.316C203.336 112.09 203.648 111.789 203.852 111.414V109.234H202.586C200.891 109.234 199.988 109.82 199.879 110.992L199.867 111.191C199.867 111.613 200.016 111.961 200.312 112.234C200.609 112.508 201.016 112.645 201.531 112.645ZM221.277 108.777C221.277 110.809 220.844 112.395 219.977 113.535C219.109 114.668 217.898 115.234 216.344 115.234C214.969 115.234 213.871 114.707 213.051 113.652L212.898 115H209.852V97H213.238V103.457C214.02 102.543 215.047 102.086 216.32 102.086C217.867 102.086 219.078 102.656 219.953 103.797C220.836 104.93 221.277 106.527 221.277 108.59V108.777ZM217.891 108.531C217.891 107.25 217.688 106.316 217.281 105.73C216.875 105.137 216.27 104.84 215.465 104.84C214.387 104.84 213.645 105.281 213.238 106.164V111.168C213.652 112.059 214.402 112.504 215.488 112.504C216.582 112.504 217.301 111.965 217.645 110.887C217.809 110.371 217.891 109.586 217.891 108.531ZM226.949 115H223.551V97H226.949V115ZM235.586 115.234C233.727 115.234 232.211 114.664 231.039 113.523C229.875 112.383 229.293 110.863 229.293 108.965V108.637C229.293 107.363 229.539 106.227 230.031 105.227C230.523 104.219 231.219 103.445 232.117 102.906C233.023 102.359 234.055 102.086 235.211 102.086C236.945 102.086 238.309 102.633 239.301 103.727C240.301 104.82 240.801 106.371 240.801 108.379V109.762H232.727C232.836 110.59 233.164 111.254 233.711 111.754C234.266 112.254 234.965 112.504 235.809 112.504C237.113 112.504 238.133 112.031 238.867 111.086L240.531 112.949C240.023 113.668 239.336 114.23 238.469 114.637C237.602 115.035 236.641 115.234 235.586 115.234ZM235.199 104.828C234.527 104.828 233.98 105.055 233.559 105.508C233.145 105.961 232.879 106.609 232.762 107.453H237.473V107.184C237.457 106.434 237.254 105.855 236.863 105.449C236.473 105.035 235.918 104.828 235.199 104.828Z" fill="#AB8244"/>
<path d="M51.1091 176.611H47.7043V186H45.8219V176.611H42.4471V175.081H51.1091V176.611ZM54.1689 178.77C54.7638 178.081 55.5163 177.736 56.4262 177.736C58.1561 177.736 59.0335 178.723 59.0585 180.698V186H57.2362V180.765C57.2362 180.205 57.1137 179.81 56.8687 179.58C56.6287 179.345 56.2737 179.228 55.8038 179.228C55.0738 179.228 54.5288 179.553 54.1689 180.203V186H52.3465V174.481H54.1689V178.77ZM64.4807 186.15C63.3258 186.15 62.3883 185.788 61.6684 185.063C60.9534 184.333 60.5959 183.363 60.5959 182.153V181.928C60.5959 181.118 60.7509 180.395 61.0609 179.76C61.3759 179.12 61.8159 178.623 62.3808 178.268C62.9458 177.913 63.5757 177.736 64.2707 177.736C65.3756 177.736 66.2281 178.088 66.828 178.793C67.433 179.498 67.7355 180.495 67.7355 181.785V182.52H62.4333C62.4883 183.19 62.7108 183.72 63.1008 184.11C63.4958 184.5 63.9907 184.695 64.5857 184.695C65.4206 184.695 66.1006 184.358 66.6256 183.683L67.608 184.62C67.283 185.105 66.848 185.483 66.3031 185.753C65.7631 186.017 65.1556 186.15 64.4807 186.15ZM64.2632 179.198C63.7632 179.198 63.3583 179.373 63.0483 179.723C62.7433 180.073 62.5483 180.56 62.4633 181.185H65.9356V181.05C65.8956 180.44 65.7331 179.98 65.4481 179.67C65.1631 179.355 64.7682 179.198 64.2632 179.198ZM75.265 175.913V177.886H76.6974V179.235H75.265V183.765C75.265 184.075 75.325 184.3 75.445 184.44C75.57 184.575 75.79 184.643 76.1049 184.643C76.3149 184.643 76.5274 184.618 76.7424 184.568V185.978C76.3274 186.092 75.9275 186.15 75.5425 186.15C74.1426 186.15 73.4426 185.378 73.4426 183.833V179.235H72.1077V177.886H73.4426V175.913H75.265ZM80.0347 186H78.2123V177.886H80.0347V186ZM78.0998 175.778C78.0998 175.498 78.1873 175.266 78.3623 175.081C78.5423 174.896 78.7973 174.803 79.1272 174.803C79.4572 174.803 79.7122 174.896 79.8922 175.081C80.0722 175.266 80.1622 175.498 80.1622 175.778C80.1622 176.053 80.0722 176.283 79.8922 176.468C79.7122 176.648 79.4572 176.738 79.1272 176.738C78.7973 176.738 78.5423 176.648 78.3623 176.468C78.1873 176.283 78.0998 176.053 78.0998 175.778ZM83.7395 177.886L83.7919 178.733C84.3619 178.068 85.1419 177.736 86.1318 177.736C87.2167 177.736 87.9592 178.151 88.3592 178.98C88.9491 178.151 89.7791 177.736 90.849 177.736C91.7439 177.736 92.4089 177.983 92.8439 178.478C93.2838 178.973 93.5088 179.703 93.5188 180.668V186H91.6964V180.72C91.6964 180.205 91.5839 179.828 91.359 179.588C91.134 179.348 90.7615 179.228 90.2415 179.228C89.8266 179.228 89.4866 179.34 89.2216 179.565C88.9616 179.785 88.7791 180.075 88.6741 180.435L88.6816 186H86.8592V180.66C86.8343 179.705 86.3468 179.228 85.3968 179.228C84.6669 179.228 84.1494 179.525 83.8444 180.12V186H82.0221V177.886H83.7395ZM98.9635 186.15C97.8085 186.15 96.8711 185.788 96.1511 185.063C95.4362 184.333 95.0787 183.363 95.0787 182.153V181.928C95.0787 181.118 95.2337 180.395 95.5437 179.76C95.8587 179.12 96.2986 178.623 96.8636 178.268C97.4286 177.913 98.0585 177.736 98.7535 177.736C99.8584 177.736 100.711 178.088 101.311 178.793C101.916 179.498 102.218 180.495 102.218 181.785V182.52H96.9161C96.9711 183.19 97.1936 183.72 97.5836 184.11C97.9785 184.5 98.4735 184.695 99.0685 184.695C99.9034 184.695 100.583 184.358 101.108 183.683L102.091 184.62C101.766 185.105 101.331 185.483 100.786 185.753C100.246 186.017 99.6384 186.15 98.9635 186.15ZM98.746 179.198C98.246 179.198 97.841 179.373 97.5311 179.723C97.2261 180.073 97.0311 180.56 96.9461 181.185H100.418V181.05C100.378 180.44 100.216 179.98 99.9309 179.67C99.6459 179.355 99.2509 179.198 98.746 179.198ZM105.923 175.913V177.886H107.355V179.235H105.923V183.765C105.923 184.075 105.983 184.3 106.103 184.44C106.228 184.575 106.448 184.643 106.763 184.643C106.973 184.643 107.185 184.618 107.4 184.568V185.978C106.985 186.092 106.585 186.15 106.201 186.15C104.801 186.15 104.101 185.378 104.101 183.833V179.235H102.766V177.886H104.101V175.913H105.923ZM113.603 186C113.523 185.845 113.453 185.593 113.393 185.243C112.813 185.848 112.103 186.15 111.263 186.15C110.448 186.15 109.783 185.918 109.268 185.453C108.753 184.988 108.495 184.413 108.495 183.728C108.495 182.863 108.815 182.2 109.455 181.74C110.1 181.275 111.02 181.043 112.215 181.043H113.333V180.51C113.333 180.09 113.215 179.755 112.98 179.505C112.745 179.25 112.388 179.123 111.908 179.123C111.493 179.123 111.153 179.228 110.888 179.438C110.623 179.643 110.49 179.905 110.49 180.225H108.668C108.668 179.78 108.815 179.365 109.11 178.98C109.405 178.59 109.805 178.285 110.31 178.066C110.82 177.846 111.388 177.736 112.013 177.736C112.963 177.736 113.72 177.976 114.285 178.455C114.85 178.93 115.14 179.6 115.155 180.465V184.125C115.155 184.855 115.257 185.438 115.462 185.873V186H113.603ZM111.6 184.688C111.96 184.688 112.298 184.6 112.613 184.425C112.933 184.25 113.173 184.015 113.333 183.72V182.19H112.35C111.675 182.19 111.168 182.308 110.828 182.543C110.488 182.778 110.318 183.11 110.318 183.54C110.318 183.89 110.433 184.17 110.663 184.38C110.898 184.585 111.21 184.688 111.6 184.688ZM124.184 182.025C124.184 183.285 123.902 184.288 123.337 185.033C122.777 185.778 122.004 186.15 121.02 186.15C120.07 186.15 119.33 185.808 118.8 185.123L118.71 186H117.06V174.481H118.882V178.665C119.407 178.046 120.115 177.736 121.005 177.736C121.994 177.736 122.772 178.103 123.337 178.838C123.902 179.573 124.184 180.6 124.184 181.92V182.025ZM122.362 181.868C122.362 180.988 122.207 180.328 121.897 179.888C121.587 179.448 121.137 179.228 120.547 179.228C119.757 179.228 119.202 179.573 118.882 180.263V183.608C119.207 184.313 119.767 184.665 120.562 184.665C121.132 184.665 121.572 184.453 121.882 184.028C122.192 183.603 122.352 182.96 122.362 182.1V181.868ZM127.657 186H125.834V174.481H127.657V186ZM133.221 186.15C132.066 186.15 131.129 185.788 130.409 185.063C129.694 184.333 129.337 183.363 129.337 182.153V181.928C129.337 181.118 129.492 180.395 129.801 179.76C130.116 179.12 130.556 178.623 131.121 178.268C131.686 177.913 132.316 177.736 133.011 177.736C134.116 177.736 134.969 178.088 135.569 178.793C136.174 179.498 136.476 180.495 136.476 181.785V182.52H131.174C131.229 183.19 131.451 183.72 131.841 184.11C132.236 184.5 132.731 184.695 133.326 184.695C134.161 184.695 134.841 184.358 135.366 183.683L136.349 184.62C136.024 185.105 135.589 185.483 135.044 185.753C134.504 186.017 133.896 186.15 133.221 186.15ZM133.004 179.198C132.504 179.198 132.099 179.373 131.789 179.723C131.484 180.073 131.289 180.56 131.204 181.185H134.676V181.05C134.636 180.44 134.474 179.98 134.189 179.67C133.904 179.355 133.509 179.198 133.004 179.198ZM143.661 186H141.838V177.886H143.661V186ZM141.726 175.778C141.726 175.498 141.813 175.266 141.988 175.081C142.168 174.896 142.423 174.803 142.753 174.803C143.083 174.803 143.338 174.896 143.518 175.081C143.698 175.266 143.788 175.498 143.788 175.778C143.788 176.053 143.698 176.283 143.518 176.468C143.338 176.648 143.083 176.738 142.753 176.738C142.423 176.738 142.168 176.648 141.988 176.468C141.813 176.283 141.726 176.053 141.726 175.778ZM150.2 183.795C150.2 183.47 150.065 183.223 149.795 183.053C149.53 182.883 149.088 182.733 148.468 182.603C147.848 182.473 147.33 182.308 146.915 182.108C146.005 181.668 145.55 181.03 145.55 180.195C145.55 179.495 145.845 178.91 146.435 178.44C147.025 177.971 147.775 177.736 148.685 177.736C149.655 177.736 150.438 177.976 151.033 178.455C151.633 178.935 151.933 179.558 151.933 180.323H150.11C150.11 179.973 149.98 179.683 149.72 179.453C149.46 179.218 149.115 179.1 148.685 179.1C148.285 179.1 147.958 179.193 147.703 179.378C147.453 179.563 147.328 179.81 147.328 180.12C147.328 180.4 147.445 180.618 147.68 180.773C147.915 180.928 148.39 181.085 149.105 181.245C149.82 181.4 150.38 181.588 150.785 181.808C151.195 182.023 151.498 182.283 151.693 182.588C151.893 182.893 151.993 183.263 151.993 183.698C151.993 184.428 151.69 185.02 151.085 185.475C150.48 185.925 149.688 186.15 148.708 186.15C148.043 186.15 147.45 186.03 146.93 185.79C146.41 185.55 146.005 185.22 145.715 184.8C145.425 184.38 145.28 183.928 145.28 183.443H147.05C147.075 183.873 147.238 184.205 147.538 184.44C147.838 184.67 148.235 184.785 148.73 184.785C149.21 184.785 149.575 184.695 149.825 184.515C150.075 184.33 150.2 184.09 150.2 183.795ZM159.102 177.886L159.155 178.823C159.755 178.098 160.542 177.736 161.517 177.736C163.207 177.736 164.067 178.703 164.097 180.638V186H162.274V180.743C162.274 180.228 162.162 179.848 161.937 179.603C161.717 179.353 161.354 179.228 160.849 179.228C160.115 179.228 159.567 179.56 159.207 180.225V186H157.385V177.886H159.102ZM165.619 181.868C165.619 181.073 165.777 180.358 166.092 179.723C166.407 179.083 166.849 178.593 167.419 178.253C167.989 177.908 168.644 177.736 169.384 177.736C170.479 177.736 171.366 178.088 172.046 178.793C172.731 179.498 173.101 180.433 173.156 181.598L173.164 182.025C173.164 182.825 173.009 183.54 172.699 184.17C172.394 184.8 171.954 185.288 171.379 185.633C170.809 185.978 170.149 186.15 169.399 186.15C168.254 186.15 167.337 185.77 166.647 185.01C165.962 184.245 165.619 183.228 165.619 181.958V181.868ZM167.442 182.025C167.442 182.86 167.614 183.515 167.959 183.99C168.304 184.46 168.784 184.695 169.399 184.695C170.014 184.695 170.491 184.455 170.831 183.975C171.176 183.495 171.349 182.793 171.349 181.868C171.349 181.048 171.171 180.398 170.816 179.918C170.466 179.438 169.989 179.198 169.384 179.198C168.789 179.198 168.316 179.435 167.967 179.91C167.617 180.38 167.442 181.085 167.442 182.025ZM176.988 175.913V177.886H178.421V179.235H176.988V183.765C176.988 184.075 177.048 184.3 177.168 184.44C177.293 184.575 177.513 184.643 177.828 184.643C178.038 184.643 178.251 184.618 178.466 184.568V185.978C178.051 186.092 177.651 186.15 177.266 186.15C175.866 186.15 175.166 185.378 175.166 183.833V179.235H173.831V177.886H175.166V175.913H176.988ZM190.75 182.025C190.75 183.28 190.465 184.283 189.895 185.033C189.325 185.778 188.56 186.15 187.6 186.15C186.71 186.15 185.998 185.858 185.463 185.273V189.12H183.64V177.886H185.32L185.395 178.71C185.93 178.061 186.658 177.736 187.578 177.736C188.568 177.736 189.343 178.106 189.903 178.845C190.468 179.58 190.75 180.603 190.75 181.913V182.025ZM188.935 181.868C188.935 181.058 188.773 180.415 188.448 179.94C188.128 179.465 187.668 179.228 187.068 179.228C186.323 179.228 185.788 179.535 185.463 180.15V183.75C185.793 184.38 186.333 184.695 187.083 184.695C187.663 184.695 188.115 184.463 188.44 183.998C188.77 183.528 188.935 182.818 188.935 181.868ZM196.547 179.55C196.307 179.51 196.06 179.49 195.805 179.49C194.97 179.49 194.407 179.81 194.117 180.45V186H192.295V177.886H194.035L194.08 178.793C194.52 178.088 195.13 177.736 195.91 177.736C196.17 177.736 196.385 177.771 196.555 177.841L196.547 179.55ZM197.087 181.868C197.087 181.073 197.245 180.358 197.56 179.723C197.875 179.083 198.317 178.593 198.887 178.253C199.457 177.908 200.112 177.736 200.852 177.736C201.947 177.736 202.834 178.088 203.514 178.793C204.199 179.498 204.569 180.433 204.624 181.598L204.632 182.025C204.632 182.825 204.477 183.54 204.167 184.17C203.862 184.8 203.422 185.288 202.847 185.633C202.277 185.978 201.617 186.15 200.867 186.15C199.722 186.15 198.805 185.77 198.115 185.01C197.43 184.245 197.087 183.228 197.087 181.958V181.868ZM198.91 182.025C198.91 182.86 199.082 183.515 199.427 183.99C199.772 184.46 200.252 184.695 200.867 184.695C201.482 184.695 201.959 184.455 202.299 183.975C202.644 183.495 202.817 182.793 202.817 181.868C202.817 181.048 202.639 180.398 202.284 179.918C201.934 179.438 201.457 179.198 200.852 179.198C200.257 179.198 199.784 179.435 199.434 179.91C199.085 180.38 198.91 181.085 198.91 182.025ZM209.506 184.695C209.961 184.695 210.339 184.563 210.639 184.298C210.939 184.033 211.099 183.705 211.119 183.315H212.836C212.816 183.82 212.659 184.293 212.364 184.733C212.069 185.168 211.669 185.513 211.164 185.768C210.659 186.022 210.114 186.15 209.529 186.15C208.394 186.15 207.494 185.783 206.829 185.048C206.164 184.313 205.832 183.298 205.832 182.003V181.815C205.832 180.58 206.162 179.593 206.822 178.853C207.481 178.108 208.381 177.736 209.521 177.736C210.486 177.736 211.271 178.018 211.876 178.583C212.486 179.143 212.806 179.88 212.836 180.795H211.119C211.099 180.33 210.939 179.948 210.639 179.648C210.344 179.348 209.966 179.198 209.506 179.198C208.916 179.198 208.461 179.413 208.141 179.843C207.821 180.268 207.659 180.915 207.654 181.785V182.078C207.654 182.958 207.811 183.615 208.126 184.05C208.446 184.48 208.906 184.695 209.506 184.695ZM217.786 186.15C216.631 186.15 215.693 185.788 214.973 185.063C214.259 184.333 213.901 183.363 213.901 182.153V181.928C213.901 181.118 214.056 180.395 214.366 179.76C214.681 179.12 215.121 178.623 215.686 178.268C216.251 177.913 216.881 177.736 217.576 177.736C218.681 177.736 219.533 178.088 220.133 178.793C220.738 179.498 221.041 180.495 221.041 181.785V182.52H215.738C215.793 183.19 216.016 183.72 216.406 184.11C216.801 184.5 217.296 184.695 217.891 184.695C218.726 184.695 219.406 184.358 219.931 183.683L220.913 184.62C220.588 185.105 220.153 185.483 219.608 185.753C219.068 186.017 218.461 186.15 217.786 186.15ZM217.568 179.198C217.068 179.198 216.663 179.373 216.353 179.723C216.048 180.073 215.853 180.56 215.768 181.185H219.241V181.05C219.201 180.44 219.038 179.98 218.753 179.67C218.468 179.355 218.073 179.198 217.568 179.198ZM227.01 183.795C227.01 183.47 226.875 183.223 226.605 183.053C226.34 182.883 225.898 182.733 225.278 182.603C224.658 182.473 224.14 182.308 223.725 182.108C222.815 181.668 222.361 181.03 222.361 180.195C222.361 179.495 222.655 178.91 223.245 178.44C223.835 177.971 224.585 177.736 225.495 177.736C226.465 177.736 227.248 177.976 227.843 178.455C228.443 178.935 228.743 179.558 228.743 180.323H226.92C226.92 179.973 226.79 179.683 226.53 179.453C226.27 179.218 225.925 179.1 225.495 179.1C225.095 179.1 224.768 179.193 224.513 179.378C224.263 179.563 224.138 179.81 224.138 180.12C224.138 180.4 224.255 180.618 224.49 180.773C224.725 180.928 225.2 181.085 225.915 181.245C226.63 181.4 227.19 181.588 227.595 181.808C228.005 182.023 228.308 182.283 228.503 182.588C228.703 182.893 228.803 183.263 228.803 183.698C228.803 184.428 228.5 185.02 227.895 185.475C227.29 185.925 226.498 186.15 225.518 186.15C224.853 186.15 224.26 186.03 223.74 185.79C223.22 185.55 222.815 185.22 222.525 184.8C222.236 184.38 222.091 183.928 222.091 183.443H223.86C223.885 183.873 224.048 184.205 224.348 184.44C224.648 184.67 225.045 184.785 225.54 184.785C226.02 184.785 226.385 184.695 226.635 184.515C226.885 184.33 227.01 184.09 227.01 183.795ZM234.945 183.795C234.945 183.47 234.81 183.223 234.54 183.053C234.275 182.883 233.832 182.733 233.212 182.603C232.592 182.473 232.075 182.308 231.66 182.108C230.75 181.668 230.295 181.03 230.295 180.195C230.295 179.495 230.59 178.91 231.18 178.44C231.77 177.971 232.52 177.736 233.43 177.736C234.4 177.736 235.182 177.976 235.777 178.455C236.377 178.935 236.677 179.558 236.677 180.323H234.855C234.855 179.973 234.725 179.683 234.465 179.453C234.205 179.218 233.86 179.1 233.43 179.1C233.03 179.1 232.702 179.193 232.447 179.378C232.197 179.563 232.072 179.81 232.072 180.12C232.072 180.4 232.19 180.618 232.425 180.773C232.66 180.928 233.135 181.085 233.85 181.245C234.565 181.4 235.125 181.588 235.53 181.808C235.94 182.023 236.242 182.283 236.437 182.588C236.637 182.893 236.737 183.263 236.737 183.698C236.737 184.428 236.435 185.02 235.83 185.475C235.225 185.925 234.432 186.15 233.452 186.15C232.787 186.15 232.195 186.03 231.675 185.79C231.155 185.55 230.75 185.22 230.46 184.8C230.17 184.38 230.025 183.928 230.025 183.443H231.795C231.82 183.873 231.982 184.205 232.282 184.44C232.582 184.67 232.98 184.785 233.475 184.785C233.955 184.785 234.32 184.695 234.57 184.515C234.82 184.33 234.945 184.09 234.945 183.795ZM241.904 186.15C240.749 186.15 239.812 185.788 239.092 185.063C238.377 184.333 238.019 183.363 238.019 182.153V181.928C238.019 181.118 238.174 180.395 238.484 179.76C238.799 179.12 239.239 178.623 239.804 178.268C240.369 177.913 240.999 177.736 241.694 177.736C242.799 177.736 243.652 178.088 244.252 178.793C244.857 179.498 245.159 180.495 245.159 181.785V182.52H239.857C239.912 183.19 240.134 183.72 240.524 184.11C240.919 184.5 241.414 184.695 242.009 184.695C242.844 184.695 243.524 184.358 244.049 183.683L245.032 184.62C244.707 185.105 244.272 185.483 243.727 185.753C243.187 186.017 242.579 186.15 241.904 186.15ZM241.687 179.198C241.187 179.198 240.782 179.373 240.472 179.723C240.167 180.073 239.972 180.56 239.887 181.185H243.359V181.05C243.319 180.44 243.157 179.98 242.872 179.67C242.587 179.355 242.192 179.198 241.687 179.198ZM246.239 181.883C246.239 180.633 246.529 179.63 247.109 178.875C247.689 178.116 248.466 177.736 249.441 177.736C250.301 177.736 250.996 178.036 251.526 178.635V174.481H253.349V186H251.699L251.609 185.16C251.064 185.82 250.336 186.15 249.426 186.15C248.476 186.15 247.706 185.768 247.116 185.003C246.531 184.238 246.239 183.198 246.239 181.883ZM248.061 182.04C248.061 182.865 248.219 183.51 248.534 183.975C248.854 184.435 249.306 184.665 249.891 184.665C250.636 184.665 251.181 184.333 251.526 183.668V180.203C251.191 179.553 250.651 179.228 249.906 179.228C249.316 179.228 248.861 179.463 248.541 179.933C248.221 180.398 248.061 181.1 248.061 182.04ZM261.913 183.39L263.563 177.886H265.505L262.28 187.23C261.785 188.595 260.946 189.277 259.761 189.277C259.496 189.277 259.203 189.232 258.883 189.142V187.732L259.228 187.755C259.688 187.755 260.033 187.67 260.263 187.5C260.498 187.335 260.683 187.055 260.818 186.66L261.081 185.963L258.231 177.886H260.196L261.913 183.39ZM270.027 186.15C268.873 186.15 267.935 185.788 267.215 185.063C266.5 184.333 266.143 183.363 266.143 182.153V181.928C266.143 181.118 266.298 180.395 266.608 179.76C266.923 179.12 267.363 178.623 267.928 178.268C268.493 177.913 269.122 177.736 269.817 177.736C270.922 177.736 271.775 178.088 272.375 178.793C272.98 179.498 273.282 180.495 273.282 181.785V182.52H267.98C268.035 183.19 268.258 183.72 268.648 184.11C269.042 184.5 269.537 184.695 270.132 184.695C270.967 184.695 271.647 184.358 272.172 183.683L273.155 184.62C272.83 185.105 272.395 185.483 271.85 185.753C271.31 186.017 270.702 186.15 270.027 186.15ZM269.81 179.198C269.31 179.198 268.905 179.373 268.595 179.723C268.29 180.073 268.095 180.56 268.01 181.185H271.482V181.05C271.442 180.44 271.28 179.98 270.995 179.67C270.71 179.355 270.315 179.198 269.81 179.198ZM276.987 175.913V177.886H278.419V179.235H276.987V183.765C276.987 184.075 277.047 184.3 277.167 184.44C277.292 184.575 277.512 184.643 277.827 184.643C278.037 184.643 278.249 184.618 278.464 184.568V185.978C278.049 186.092 277.649 186.15 277.264 186.15C275.865 186.15 275.165 185.378 275.165 183.833V179.235H273.83V177.886H275.165V175.913H276.987ZM280.954 184.08C281.294 184.08 281.557 184.178 281.742 184.373C281.927 184.563 282.019 184.803 282.019 185.093C282.019 185.378 281.927 185.615 281.742 185.805C281.557 185.99 281.294 186.082 280.954 186.082C280.629 186.082 280.372 185.99 280.182 185.805C279.992 185.62 279.897 185.383 279.897 185.093C279.897 184.803 279.989 184.563 280.174 184.373C280.359 184.178 280.619 184.08 280.954 184.08ZM284.284 186V175.081H288.026C289.261 175.081 290.201 175.328 290.846 175.823C291.491 176.318 291.814 177.056 291.814 178.036C291.814 178.535 291.679 178.985 291.409 179.385C291.139 179.785 290.744 180.095 290.224 180.315C290.814 180.475 291.269 180.778 291.589 181.223C291.914 181.663 292.076 182.193 292.076 182.813C292.076 183.838 291.746 184.625 291.086 185.175C290.431 185.725 289.491 186 288.266 186H284.284ZM286.181 181.073V184.485H288.289C288.884 184.485 289.349 184.338 289.684 184.043C290.019 183.748 290.186 183.338 290.186 182.813C290.186 181.678 289.606 181.098 288.446 181.073H286.181ZM286.181 179.678H288.041C288.631 179.678 289.091 179.545 289.421 179.28C289.756 179.01 289.924 178.63 289.924 178.141C289.924 177.601 289.769 177.211 289.459 176.971C289.154 176.731 288.676 176.611 288.026 176.611H286.181V179.678ZM297.371 186.15C296.216 186.15 295.278 185.788 294.558 185.063C293.843 184.333 293.486 183.363 293.486 182.153V181.928C293.486 181.118 293.641 180.395 293.951 179.76C294.266 179.12 294.706 178.623 295.271 178.268C295.836 177.913 296.466 177.736 297.161 177.736C298.266 177.736 299.118 178.088 299.718 178.793C300.323 179.498 300.625 180.495 300.625 181.785V182.52H295.323C295.378 183.19 295.601 183.72 295.991 184.11C296.386 184.5 296.881 184.695 297.476 184.695C298.311 184.695 298.991 184.358 299.516 183.683L300.498 184.62C300.173 185.105 299.738 185.483 299.193 185.753C298.653 186.017 298.046 186.15 297.371 186.15ZM297.153 179.198C296.653 179.198 296.248 179.373 295.938 179.723C295.633 180.073 295.438 180.56 295.353 181.185H298.826V181.05C298.786 180.44 298.623 179.98 298.338 179.67C298.053 179.355 297.658 179.198 297.153 179.198ZM303.985 186H302.163V174.481H303.985V186ZM305.635 181.868C305.635 181.073 305.793 180.358 306.108 179.723C306.423 179.083 306.865 178.593 307.435 178.253C308.005 177.908 308.66 177.736 309.4 177.736C310.495 177.736 311.382 178.088 312.062 178.793C312.747 179.498 313.117 180.433 313.172 181.598L313.18 182.025C313.18 182.825 313.025 183.54 312.715 184.17C312.41 184.8 311.97 185.288 311.395 185.633C310.825 185.978 310.165 186.15 309.415 186.15C308.27 186.15 307.353 185.77 306.663 185.01C305.978 184.245 305.635 183.228 305.635 181.958V181.868ZM307.458 182.025C307.458 182.86 307.63 183.515 307.975 183.99C308.32 184.46 308.8 184.695 309.415 184.695C310.03 184.695 310.507 184.455 310.847 183.975C311.192 183.495 311.365 182.793 311.365 181.868C311.365 181.048 311.187 180.398 310.832 179.918C310.482 179.438 310.005 179.198 309.4 179.198C308.805 179.198 308.332 179.435 307.982 179.91C307.632 180.38 307.458 181.085 307.458 182.025ZM321.849 183.488L323.139 177.886H324.916L322.704 186H321.204L319.464 180.428L317.754 186H316.254L314.035 177.886H315.812L317.124 183.428L318.789 177.886H320.162L321.849 183.488ZM331.898 186H330.076V177.886H331.898V186ZM329.964 175.778C329.964 175.498 330.051 175.266 330.226 175.081C330.406 174.896 330.661 174.803 330.991 174.803C331.321 174.803 331.576 174.896 331.756 175.081C331.936 175.266 332.026 175.498 332.026 175.778C332.026 176.053 331.936 176.283 331.756 176.468C331.576 176.648 331.321 176.738 330.991 176.738C330.661 176.738 330.406 176.648 330.226 176.468C330.051 176.283 329.964 176.053 329.964 175.778ZM338.438 183.795C338.438 183.47 338.303 183.223 338.033 183.053C337.768 182.883 337.326 182.733 336.706 182.603C336.086 182.473 335.568 182.308 335.153 182.108C334.243 181.668 333.788 181.03 333.788 180.195C333.788 179.495 334.083 178.91 334.673 178.44C335.263 177.971 336.013 177.736 336.923 177.736C337.893 177.736 338.676 177.976 339.27 178.455C339.87 178.935 340.17 179.558 340.17 180.323H338.348C338.348 179.973 338.218 179.683 337.958 179.453C337.698 179.218 337.353 179.1 336.923 179.1C336.523 179.1 336.196 179.193 335.941 179.378C335.691 179.563 335.566 179.81 335.566 180.12C335.566 180.4 335.683 180.618 335.918 180.773C336.153 180.928 336.628 181.085 337.343 181.245C338.058 181.4 338.618 181.588 339.023 181.808C339.433 182.023 339.735 182.283 339.93 182.588C340.13 182.893 340.23 183.263 340.23 183.698C340.23 184.428 339.928 185.02 339.323 185.475C338.718 185.925 337.926 186.15 336.946 186.15C336.281 186.15 335.688 186.03 335.168 185.79C334.648 185.55 334.243 185.22 333.953 184.8C333.663 184.38 333.518 183.928 333.518 183.443H335.288C335.313 183.873 335.476 184.205 335.776 184.44C336.076 184.67 336.473 184.785 336.968 184.785C337.448 184.785 337.813 184.695 338.063 184.515C338.313 184.33 338.438 184.09 338.438 183.795ZM117.427 193.913V195.886H118.86V197.235H117.427V201.765C117.427 202.075 117.487 202.3 117.607 202.44C117.732 202.575 117.952 202.643 118.267 202.643C118.477 202.643 118.69 202.618 118.905 202.568V203.978C118.49 204.092 118.09 204.15 117.705 204.15C116.305 204.15 115.605 203.378 115.605 201.833V197.235H114.27V195.886H115.605V193.913H117.427ZM122.054 196.77C122.649 196.081 123.402 195.736 124.312 195.736C126.042 195.736 126.919 196.723 126.944 198.698V204H125.122V198.765C125.122 198.205 124.999 197.81 124.754 197.58C124.514 197.345 124.159 197.228 123.689 197.228C122.959 197.228 122.414 197.553 122.054 198.203V204H120.232V192.481H122.054V196.77ZM132.366 204.15C131.211 204.15 130.274 203.788 129.554 203.063C128.839 202.333 128.482 201.363 128.482 200.153V199.928C128.482 199.118 128.637 198.395 128.947 197.76C129.262 197.12 129.701 196.623 130.266 196.268C130.831 195.913 131.461 195.736 132.156 195.736C133.261 195.736 134.114 196.088 134.714 196.793C135.319 197.498 135.621 198.495 135.621 199.785V200.52H130.319C130.374 201.19 130.596 201.72 130.986 202.11C131.381 202.5 131.876 202.695 132.471 202.695C133.306 202.695 133.986 202.358 134.511 201.683L135.494 202.62C135.169 203.105 134.734 203.483 134.189 203.753C133.649 204.017 133.041 204.15 132.366 204.15ZM132.149 197.198C131.649 197.198 131.244 197.373 130.934 197.723C130.629 198.073 130.434 198.56 130.349 199.185H133.821V199.05C133.781 198.44 133.619 197.98 133.334 197.67C133.049 197.355 132.654 197.198 132.149 197.198ZM145.415 201.795C145.415 201.47 145.28 201.223 145.01 201.053C144.746 200.883 144.303 200.733 143.683 200.603C143.063 200.473 142.546 200.308 142.131 200.108C141.221 199.668 140.766 199.03 140.766 198.195C140.766 197.495 141.061 196.91 141.651 196.44C142.241 195.971 142.991 195.736 143.901 195.736C144.871 195.736 145.653 195.976 146.248 196.455C146.848 196.935 147.148 197.558 147.148 198.323H145.325C145.325 197.973 145.195 197.683 144.936 197.453C144.676 197.218 144.331 197.1 143.901 197.1C143.501 197.1 143.173 197.193 142.918 197.378C142.668 197.563 142.543 197.81 142.543 198.12C142.543 198.4 142.661 198.618 142.896 198.773C143.131 198.928 143.606 199.085 144.321 199.245C145.035 199.4 145.595 199.588 146 199.808C146.41 200.023 146.713 200.283 146.908 200.588C147.108 200.893 147.208 201.263 147.208 201.698C147.208 202.428 146.905 203.02 146.3 203.475C145.695 203.925 144.903 204.15 143.923 204.15C143.258 204.15 142.666 204.03 142.146 203.79C141.626 203.55 141.221 203.22 140.931 202.8C140.641 202.38 140.496 201.928 140.496 201.443H142.266C142.291 201.873 142.453 202.205 142.753 202.44C143.053 202.67 143.451 202.785 143.946 202.785C144.426 202.785 144.791 202.695 145.04 202.515C145.29 202.33 145.415 202.09 145.415 201.795ZM151.085 193.913V195.886H152.518V197.235H151.085V201.765C151.085 202.075 151.145 202.3 151.265 202.44C151.39 202.575 151.61 202.643 151.925 202.643C152.135 202.643 152.348 202.618 152.563 202.568V203.978C152.148 204.092 151.748 204.15 151.363 204.15C149.963 204.15 149.263 203.378 149.263 201.833V197.235H147.928V195.886H149.263V193.913H151.085ZM158.765 204C158.685 203.845 158.615 203.593 158.555 203.243C157.975 203.848 157.265 204.15 156.425 204.15C155.61 204.15 154.945 203.918 154.43 203.453C153.915 202.988 153.657 202.413 153.657 201.728C153.657 200.863 153.977 200.2 154.617 199.74C155.262 199.275 156.182 199.043 157.377 199.043H158.495V198.51C158.495 198.09 158.377 197.755 158.142 197.505C157.907 197.25 157.55 197.123 157.07 197.123C156.655 197.123 156.315 197.228 156.05 197.438C155.785 197.643 155.652 197.905 155.652 198.225H153.83C153.83 197.78 153.977 197.365 154.272 196.98C154.567 196.59 154.967 196.285 155.472 196.066C155.982 195.846 156.55 195.736 157.175 195.736C158.125 195.736 158.882 195.976 159.447 196.455C160.012 196.93 160.302 197.6 160.317 198.465V202.125C160.317 202.855 160.42 203.438 160.624 203.873V204H158.765ZM156.762 202.688C157.122 202.688 157.46 202.6 157.775 202.425C158.095 202.25 158.335 202.015 158.495 201.72V200.19H157.512C156.837 200.19 156.33 200.308 155.99 200.543C155.65 200.778 155.48 201.11 155.48 201.54C155.48 201.89 155.595 202.17 155.825 202.38C156.06 202.585 156.372 202.688 156.762 202.688ZM164.509 193.913V195.886H165.942V197.235H164.509V201.765C164.509 202.075 164.569 202.3 164.689 202.44C164.814 202.575 165.034 202.643 165.349 202.643C165.559 202.643 165.772 202.618 165.987 202.568V203.978C165.572 204.092 165.172 204.15 164.787 204.15C163.387 204.15 162.687 203.378 162.687 201.833V197.235H161.352V195.886H162.687V193.913H164.509ZM172.256 203.205C171.721 203.835 170.961 204.15 169.976 204.15C169.096 204.15 168.429 203.893 167.974 203.378C167.524 202.863 167.299 202.118 167.299 201.143V195.886H169.121V201.12C169.121 202.15 169.549 202.665 170.404 202.665C171.289 202.665 171.886 202.348 172.196 201.713V195.886H174.019V204H172.301L172.256 203.205ZM180.423 201.795C180.423 201.47 180.288 201.223 180.018 201.053C179.753 200.883 179.311 200.733 178.691 200.603C178.071 200.473 177.553 200.308 177.138 200.108C176.228 199.668 175.774 199.03 175.774 198.195C175.774 197.495 176.068 196.91 176.658 196.44C177.248 195.971 177.998 195.736 178.908 195.736C179.878 195.736 180.661 195.976 181.256 196.455C181.856 196.935 182.156 197.558 182.156 198.323H180.333C180.333 197.973 180.203 197.683 179.943 197.453C179.683 197.218 179.338 197.1 178.908 197.1C178.508 197.1 178.181 197.193 177.926 197.378C177.676 197.563 177.551 197.81 177.551 198.12C177.551 198.4 177.668 198.618 177.903 198.773C178.138 198.928 178.613 199.085 179.328 199.245C180.043 199.4 180.603 199.588 181.008 199.808C181.418 200.023 181.721 200.283 181.916 200.588C182.116 200.893 182.216 201.263 182.216 201.698C182.216 202.428 181.913 203.02 181.308 203.475C180.703 203.925 179.911 204.15 178.931 204.15C178.266 204.15 177.673 204.03 177.153 203.79C176.633 203.55 176.228 203.22 175.939 202.8C175.649 202.38 175.504 201.928 175.504 201.443H177.273C177.298 201.873 177.461 202.205 177.761 202.44C178.061 202.67 178.458 202.785 178.953 202.785C179.433 202.785 179.798 202.695 180.048 202.515C180.298 202.33 180.423 202.09 180.423 201.795ZM187.293 199.868C187.293 199.073 187.45 198.358 187.765 197.723C188.08 197.083 188.523 196.593 189.093 196.253C189.663 195.908 190.318 195.736 191.058 195.736C192.152 195.736 193.04 196.088 193.72 196.793C194.405 197.498 194.775 198.433 194.83 199.598L194.837 200.025C194.837 200.825 194.682 201.54 194.372 202.17C194.067 202.8 193.627 203.288 193.052 203.633C192.482 203.978 191.822 204.15 191.073 204.15C189.928 204.15 189.01 203.77 188.32 203.01C187.635 202.245 187.293 201.228 187.293 199.958V199.868ZM189.115 200.025C189.115 200.86 189.288 201.515 189.633 201.99C189.978 202.46 190.458 202.695 191.073 202.695C191.687 202.695 192.165 202.455 192.505 201.975C192.85 201.495 193.022 200.793 193.022 199.868C193.022 199.048 192.845 198.398 192.49 197.918C192.14 197.438 191.662 197.198 191.058 197.198C190.463 197.198 189.99 197.435 189.64 197.91C189.29 198.38 189.115 199.085 189.115 200.025ZM197.02 204V197.235H195.782V195.886H197.02V195.143C197.02 194.243 197.27 193.548 197.77 193.058C198.27 192.568 198.97 192.323 199.869 192.323C200.189 192.323 200.529 192.368 200.889 192.458L200.844 193.883C200.644 193.843 200.412 193.823 200.147 193.823C199.277 193.823 198.842 194.271 198.842 195.166V195.886H200.492V197.235H198.842V204H197.02ZM207.931 193.913V195.886H209.364V197.235H207.931V201.765C207.931 202.075 207.991 202.3 208.111 202.44C208.236 202.575 208.456 202.643 208.771 202.643C208.981 202.643 209.194 202.618 209.409 202.568V203.978C208.994 204.092 208.594 204.15 208.209 204.15C206.809 204.15 206.109 203.378 206.109 201.833V197.235H204.774V195.886H206.109V193.913H207.931ZM212.559 196.77C213.154 196.081 213.906 195.736 214.816 195.736C216.546 195.736 217.423 196.723 217.448 198.698V204H215.626V198.765C215.626 198.205 215.503 197.81 215.258 197.58C215.018 197.345 214.663 197.228 214.194 197.228C213.464 197.228 212.919 197.553 212.559 198.203V204H210.736V192.481H212.559V196.77ZM222.87 204.15C221.716 204.15 220.778 203.788 220.058 203.063C219.343 202.333 218.986 201.363 218.986 200.153V199.928C218.986 199.118 219.141 198.395 219.451 197.76C219.766 197.12 220.206 196.623 220.771 196.268C221.336 195.913 221.966 195.736 222.66 195.736C223.765 195.736 224.618 196.088 225.218 196.793C225.823 197.498 226.125 198.495 226.125 199.785V200.52H220.823C220.878 201.19 221.101 201.72 221.491 202.11C221.886 202.5 222.381 202.695 222.975 202.695C223.81 202.695 224.49 202.358 225.015 201.683L225.998 202.62C225.673 203.105 225.238 203.483 224.693 203.753C224.153 204.017 223.545 204.15 222.87 204.15ZM222.653 197.198C222.153 197.198 221.748 197.373 221.438 197.723C221.133 198.073 220.938 198.56 220.853 199.185H224.325V199.05C224.285 198.44 224.123 197.98 223.838 197.67C223.553 197.355 223.158 197.198 222.653 197.198ZM236.287 203.205C235.752 203.835 234.992 204.15 234.007 204.15C233.127 204.15 232.46 203.893 232.005 203.378C231.555 202.863 231.33 202.118 231.33 201.143V195.886H233.152V201.12C233.152 202.15 233.58 202.665 234.435 202.665C235.32 202.665 235.917 202.348 236.227 201.713V195.886H238.049V204H236.332L236.287 203.205ZM241.597 195.886L241.649 196.823C242.249 196.098 243.037 195.736 244.012 195.736C245.701 195.736 246.561 196.703 246.591 198.638V204H244.769V198.743C244.769 198.228 244.657 197.848 244.432 197.603C244.212 197.353 243.849 197.228 243.344 197.228C242.609 197.228 242.062 197.56 241.702 198.225V204H239.879V195.886H241.597ZM250.394 204H248.571V195.886H250.394V204ZM248.459 193.778C248.459 193.498 248.546 193.266 248.721 193.081C248.901 192.896 249.156 192.803 249.486 192.803C249.816 192.803 250.071 192.896 250.251 193.081C250.431 193.266 250.521 193.498 250.521 193.778C250.521 194.053 250.431 194.283 250.251 194.468C250.071 194.648 249.816 194.738 249.486 194.738C249.156 194.738 248.901 194.648 248.721 194.468C248.546 194.283 248.459 194.053 248.459 193.778ZM254.668 193.913V195.886H256.101V197.235H254.668V201.765C254.668 202.075 254.728 202.3 254.848 202.44C254.973 202.575 255.193 202.643 255.508 202.643C255.718 202.643 255.931 202.618 256.146 202.568V203.978C255.731 204.092 255.331 204.15 254.946 204.15C253.546 204.15 252.846 203.378 252.846 201.833V197.235H251.511V195.886H252.846V193.913H254.668ZM262.048 201.795C262.048 201.47 261.913 201.223 261.643 201.053C261.378 200.883 260.936 200.733 260.316 200.603C259.696 200.473 259.178 200.308 258.763 200.108C257.853 199.668 257.398 199.03 257.398 198.195C257.398 197.495 257.693 196.91 258.283 196.44C258.873 195.971 259.623 195.736 260.533 195.736C261.503 195.736 262.285 195.976 262.88 196.455C263.48 196.935 263.78 197.558 263.78 198.323H261.958C261.958 197.973 261.828 197.683 261.568 197.453C261.308 197.218 260.963 197.1 260.533 197.1C260.133 197.1 259.806 197.193 259.551 197.378C259.301 197.563 259.176 197.81 259.176 198.12C259.176 198.4 259.293 198.618 259.528 198.773C259.763 198.928 260.238 199.085 260.953 199.245C261.668 199.4 262.228 199.588 262.633 199.808C263.043 200.023 263.345 200.283 263.54 200.588C263.74 200.893 263.84 201.263 263.84 201.698C263.84 202.428 263.538 203.02 262.933 203.475C262.328 203.925 261.535 204.15 260.556 204.15C259.891 204.15 259.298 204.03 258.778 203.79C258.258 203.55 257.853 203.22 257.563 202.8C257.273 202.38 257.128 201.928 257.128 201.443H258.898C258.923 201.873 259.086 202.205 259.386 202.44C259.686 202.67 260.083 202.785 260.578 202.785C261.058 202.785 261.423 202.695 261.673 202.515C261.923 202.33 262.048 202.09 262.048 201.795ZM266.57 202.08C266.91 202.08 267.173 202.178 267.358 202.373C267.543 202.563 267.635 202.803 267.635 203.093C267.635 203.378 267.543 203.615 267.358 203.805C267.173 203.99 266.91 204.082 266.57 204.082C266.245 204.082 265.988 203.99 265.798 203.805C265.608 203.62 265.513 203.383 265.513 203.093C265.513 202.803 265.605 202.563 265.79 202.373C265.975 202.178 266.235 202.08 266.57 202.08Z" fill="#65676D"/>
<g filter="url(#filter0_d)">
<rect x="52" y="660" width="270" height="55" rx="27.5" fill="#137D4E"/>
</g>
<path d="M114.524 689.245V694H112.301V681.203H117.196C118.626 681.203 119.76 681.575 120.598 682.319C121.441 683.063 121.863 684.048 121.863 685.272C121.863 686.526 121.45 687.502 120.624 688.199C119.804 688.896 118.652 689.245 117.17 689.245H114.524ZM114.524 687.461H117.196C117.987 687.461 118.591 687.276 119.007 686.907C119.423 686.532 119.631 685.993 119.631 685.29C119.631 684.599 119.42 684.048 118.998 683.638C118.576 683.222 117.996 683.008 117.258 682.996H114.524V687.461ZM128.587 686.441C128.306 686.395 128.016 686.371 127.717 686.371C126.738 686.371 126.079 686.746 125.739 687.496V694H123.604V684.49H125.643L125.695 685.554C126.211 684.728 126.926 684.314 127.84 684.314C128.145 684.314 128.396 684.355 128.596 684.438L128.587 686.441ZM129.22 689.157C129.22 688.226 129.404 687.388 129.773 686.644C130.143 685.894 130.661 685.319 131.329 684.921C131.997 684.517 132.765 684.314 133.632 684.314C134.915 684.314 135.955 684.728 136.752 685.554C137.555 686.38 137.988 687.476 138.053 688.841L138.062 689.342C138.062 690.279 137.88 691.117 137.517 691.855C137.159 692.594 136.644 693.165 135.97 693.569C135.302 693.974 134.528 694.176 133.649 694.176C132.308 694.176 131.232 693.73 130.424 692.84C129.621 691.943 129.22 690.751 129.22 689.263V689.157ZM131.355 689.342C131.355 690.32 131.558 691.088 131.962 691.645C132.366 692.195 132.929 692.471 133.649 692.471C134.37 692.471 134.93 692.189 135.328 691.627C135.732 691.064 135.935 690.241 135.935 689.157C135.935 688.196 135.727 687.435 135.311 686.872C134.9 686.31 134.341 686.028 133.632 686.028C132.935 686.028 132.381 686.307 131.971 686.863C131.561 687.414 131.355 688.24 131.355 689.342ZM143.774 692.471C144.308 692.471 144.75 692.315 145.102 692.005C145.453 691.694 145.641 691.311 145.664 690.854H147.677C147.653 691.445 147.469 691.999 147.123 692.515C146.777 693.024 146.309 693.429 145.717 693.728C145.125 694.026 144.486 694.176 143.801 694.176C142.471 694.176 141.416 693.745 140.637 692.884C139.857 692.022 139.468 690.833 139.468 689.315V689.096C139.468 687.648 139.854 686.491 140.628 685.624C141.401 684.751 142.456 684.314 143.792 684.314C144.923 684.314 145.843 684.646 146.552 685.308C147.267 685.964 147.642 686.828 147.677 687.9H145.664C145.641 687.355 145.453 686.907 145.102 686.556C144.756 686.204 144.313 686.028 143.774 686.028C143.083 686.028 142.55 686.28 142.175 686.784C141.8 687.282 141.609 688.041 141.604 689.061V689.403C141.604 690.435 141.788 691.205 142.157 691.715C142.532 692.219 143.071 692.471 143.774 692.471ZM153.478 694.176C152.124 694.176 151.025 693.751 150.182 692.901C149.344 692.046 148.925 690.909 148.925 689.491V689.228C148.925 688.278 149.106 687.432 149.47 686.688C149.839 685.938 150.354 685.354 151.017 684.938C151.679 684.522 152.417 684.314 153.231 684.314C154.526 684.314 155.525 684.728 156.229 685.554C156.938 686.38 157.292 687.549 157.292 689.061V689.922H151.078C151.143 690.707 151.403 691.328 151.86 691.785C152.323 692.242 152.903 692.471 153.601 692.471C154.579 692.471 155.376 692.075 155.991 691.284L157.143 692.383C156.762 692.951 156.252 693.394 155.613 693.71C154.98 694.021 154.269 694.176 153.478 694.176ZM153.223 686.028C152.637 686.028 152.162 686.233 151.799 686.644C151.441 687.054 151.213 687.625 151.113 688.357H155.183V688.199C155.136 687.484 154.945 686.945 154.611 686.582C154.277 686.213 153.814 686.028 153.223 686.028ZM164.288 691.416C164.288 691.035 164.13 690.745 163.813 690.546C163.503 690.347 162.984 690.171 162.258 690.019C161.531 689.866 160.925 689.673 160.438 689.438C159.372 688.923 158.839 688.176 158.839 687.197C158.839 686.377 159.185 685.691 159.876 685.141C160.567 684.59 161.446 684.314 162.513 684.314C163.649 684.314 164.566 684.596 165.264 685.158C165.967 685.721 166.318 686.45 166.318 687.347H164.183C164.183 686.937 164.03 686.597 163.726 686.327C163.421 686.052 163.017 685.914 162.513 685.914C162.044 685.914 161.66 686.022 161.361 686.239C161.068 686.456 160.922 686.746 160.922 687.109C160.922 687.438 161.06 687.692 161.335 687.874C161.61 688.056 162.167 688.24 163.005 688.428C163.843 688.609 164.499 688.829 164.974 689.087C165.454 689.339 165.809 689.644 166.037 690.001C166.271 690.358 166.389 690.792 166.389 691.302C166.389 692.157 166.034 692.852 165.325 693.385C164.616 693.912 163.688 694.176 162.539 694.176C161.76 694.176 161.065 694.035 160.456 693.754C159.847 693.473 159.372 693.086 159.032 692.594C158.692 692.102 158.522 691.571 158.522 691.003H160.597C160.626 691.507 160.816 691.896 161.168 692.172C161.52 692.441 161.985 692.576 162.565 692.576C163.128 692.576 163.556 692.471 163.849 692.26C164.142 692.043 164.288 691.762 164.288 691.416ZM173.587 691.416C173.587 691.035 173.429 690.745 173.112 690.546C172.802 690.347 172.283 690.171 171.557 690.019C170.83 689.866 170.224 689.673 169.737 689.438C168.671 688.923 168.138 688.176 168.138 687.197C168.138 686.377 168.483 685.691 169.175 685.141C169.866 684.59 170.745 684.314 171.812 684.314C172.948 684.314 173.865 684.596 174.562 685.158C175.266 685.721 175.617 686.45 175.617 687.347H173.481C173.481 686.937 173.329 686.597 173.024 686.327C172.72 686.052 172.315 685.914 171.812 685.914C171.343 685.914 170.959 686.022 170.66 686.239C170.367 686.456 170.221 686.746 170.221 687.109C170.221 687.438 170.358 687.692 170.634 687.874C170.909 688.056 171.466 688.24 172.304 688.428C173.142 688.609 173.798 688.829 174.272 689.087C174.753 689.339 175.107 689.644 175.336 690.001C175.57 690.358 175.688 690.792 175.688 691.302C175.688 692.157 175.333 692.852 174.624 693.385C173.915 693.912 172.986 694.176 171.838 694.176C171.059 694.176 170.364 694.035 169.755 693.754C169.146 693.473 168.671 693.086 168.331 692.594C167.991 692.102 167.821 691.571 167.821 691.003H169.896C169.925 691.507 170.115 691.896 170.467 692.172C170.818 692.441 171.284 692.576 171.864 692.576C172.427 692.576 172.854 692.471 173.147 692.26C173.44 692.043 173.587 691.762 173.587 691.416ZM190.963 682.996H186.973V694H184.767V682.996H180.812V681.203H190.963V682.996ZM194.716 694H192.58V684.49H194.716V694ZM192.448 682.021C192.448 681.692 192.551 681.42 192.756 681.203C192.967 680.986 193.266 680.878 193.652 680.878C194.039 680.878 194.338 680.986 194.549 681.203C194.76 681.42 194.865 681.692 194.865 682.021C194.865 682.343 194.76 682.612 194.549 682.829C194.338 683.04 194.039 683.146 193.652 683.146C193.266 683.146 192.967 683.04 192.756 682.829C192.551 682.612 192.448 682.343 192.448 682.021ZM199.058 684.49L199.119 685.483C199.787 684.704 200.701 684.314 201.861 684.314C203.133 684.314 204.003 684.801 204.472 685.773C205.163 684.801 206.136 684.314 207.39 684.314C208.438 684.314 209.218 684.604 209.728 685.185C210.243 685.765 210.507 686.62 210.519 687.751V694H208.383V687.812C208.383 687.209 208.251 686.767 207.987 686.485C207.724 686.204 207.287 686.063 206.678 686.063C206.191 686.063 205.793 686.195 205.482 686.459C205.178 686.717 204.964 687.057 204.841 687.479L204.85 694H202.714V687.742C202.685 686.623 202.113 686.063 201 686.063C200.145 686.063 199.538 686.412 199.181 687.109V694H197.045V684.49H199.058ZM216.899 694.176C215.546 694.176 214.447 693.751 213.604 692.901C212.766 692.046 212.347 690.909 212.347 689.491V689.228C212.347 688.278 212.528 687.432 212.892 686.688C213.261 685.938 213.776 685.354 214.438 684.938C215.101 684.522 215.839 684.314 216.653 684.314C217.948 684.314 218.947 684.728 219.65 685.554C220.359 686.38 220.714 687.549 220.714 689.061V689.922H214.5C214.564 690.707 214.825 691.328 215.282 691.785C215.745 692.242 216.325 692.471 217.022 692.471C218.001 692.471 218.798 692.075 219.413 691.284L220.564 692.383C220.184 692.951 219.674 693.394 219.035 693.71C218.402 694.021 217.69 694.176 216.899 694.176ZM216.645 686.028C216.059 686.028 215.584 686.233 215.221 686.644C214.863 687.054 214.635 687.625 214.535 688.357H218.604V688.199C218.558 687.484 218.367 686.945 218.033 686.582C217.699 686.213 217.236 686.028 216.645 686.028ZM225.056 682.179V684.49H226.734V686.072H225.056V691.381C225.056 691.744 225.126 692.008 225.267 692.172C225.413 692.33 225.671 692.409 226.04 692.409C226.286 692.409 226.535 692.38 226.787 692.321V693.974C226.301 694.108 225.832 694.176 225.381 694.176C223.74 694.176 222.92 693.271 222.92 691.46V686.072H221.355V684.49H222.92V682.179H225.056ZM234.056 694C233.962 693.818 233.88 693.522 233.81 693.112C233.13 693.821 232.298 694.176 231.313 694.176C230.358 694.176 229.579 693.903 228.976 693.358C228.372 692.813 228.07 692.14 228.07 691.337C228.07 690.323 228.445 689.547 229.195 689.008C229.951 688.463 231.029 688.19 232.43 688.19H233.739V687.566C233.739 687.074 233.602 686.682 233.326 686.389C233.051 686.09 232.632 685.94 232.069 685.94C231.583 685.94 231.185 686.063 230.874 686.31C230.563 686.55 230.408 686.857 230.408 687.232H228.272C228.272 686.711 228.445 686.225 228.791 685.773C229.137 685.316 229.605 684.959 230.197 684.701C230.795 684.443 231.46 684.314 232.192 684.314C233.306 684.314 234.193 684.596 234.855 685.158C235.518 685.715 235.857 686.5 235.875 687.514V691.803C235.875 692.658 235.995 693.341 236.235 693.851V694H234.056ZM231.709 692.462C232.131 692.462 232.526 692.359 232.896 692.154C233.271 691.949 233.552 691.674 233.739 691.328V689.535H232.588C231.797 689.535 231.202 689.673 230.804 689.948C230.405 690.224 230.206 690.613 230.206 691.117C230.206 691.527 230.341 691.855 230.61 692.102C230.886 692.342 231.252 692.462 231.709 692.462ZM246.457 689.342C246.457 690.818 246.126 691.993 245.464 692.866C244.808 693.739 243.902 694.176 242.748 694.176C241.635 694.176 240.768 693.774 240.146 692.972L240.041 694H238.107V680.5H240.243V685.404C240.858 684.678 241.688 684.314 242.73 684.314C243.891 684.314 244.802 684.745 245.464 685.606C246.126 686.468 246.457 687.672 246.457 689.219V689.342ZM244.321 689.157C244.321 688.126 244.14 687.353 243.776 686.837C243.413 686.321 242.886 686.063 242.194 686.063C241.269 686.063 240.618 686.468 240.243 687.276V691.196C240.624 692.022 241.28 692.436 242.212 692.436C242.88 692.436 243.396 692.187 243.759 691.688C244.122 691.19 244.31 690.438 244.321 689.43V689.157ZM250.526 694H248.391V680.5H250.526V694ZM257.048 694.176C255.694 694.176 254.596 693.751 253.752 692.901C252.914 692.046 252.495 690.909 252.495 689.491V689.228C252.495 688.278 252.677 687.432 253.04 686.688C253.409 685.938 253.925 685.354 254.587 684.938C255.249 684.522 255.987 684.314 256.802 684.314C258.097 684.314 259.096 684.728 259.799 685.554C260.508 686.38 260.862 687.549 260.862 689.061V689.922H254.648C254.713 690.707 254.974 691.328 255.431 691.785C255.894 692.242 256.474 692.471 257.171 692.471C258.149 692.471 258.946 692.075 259.562 691.284L260.713 692.383C260.332 692.951 259.822 693.394 259.184 693.71C258.551 694.021 257.839 694.176 257.048 694.176ZM256.793 686.028C256.207 686.028 255.732 686.233 255.369 686.644C255.012 687.054 254.783 687.625 254.684 688.357H258.753V688.199C258.706 687.484 258.516 686.945 258.182 686.582C257.848 686.213 257.385 686.028 256.793 686.028Z" fill="white"/>
<path d="M118.569 308.203V316.904C118.563 318.111 118.182 319.099 117.426 319.866C116.676 320.634 115.657 321.064 114.368 321.158L113.919 321.176C112.519 321.176 111.403 320.798 110.571 320.042C109.739 319.286 109.317 318.246 109.305 316.922V308.203H110.975V316.869C110.975 317.795 111.23 318.516 111.74 319.031C112.249 319.541 112.976 319.796 113.919 319.796C114.874 319.796 115.604 319.541 116.108 319.031C116.618 318.521 116.872 317.804 116.872 316.878V308.203H118.569ZM122.484 311.49L122.537 312.686C123.264 311.771 124.213 311.314 125.385 311.314C127.395 311.314 128.408 312.448 128.426 314.716V321H126.8V314.707C126.794 314.021 126.636 313.515 126.325 313.187C126.021 312.858 125.543 312.694 124.893 312.694C124.365 312.694 123.902 312.835 123.504 313.116C123.105 313.397 122.795 313.767 122.572 314.224V321H120.946V311.49H122.484ZM132.614 321H130.988V311.49H132.614V321ZM130.856 308.968C130.856 308.704 130.935 308.481 131.093 308.3C131.257 308.118 131.498 308.027 131.814 308.027C132.131 308.027 132.371 308.118 132.535 308.3C132.699 308.481 132.781 308.704 132.781 308.968C132.781 309.231 132.699 309.451 132.535 309.627C132.371 309.803 132.131 309.891 131.814 309.891C131.498 309.891 131.257 309.803 131.093 309.627C130.935 309.451 130.856 309.231 130.856 308.968ZM137.4 309.188V311.49H139.175V312.747H137.4V318.645C137.4 319.025 137.479 319.312 137.637 319.506C137.795 319.693 138.065 319.787 138.446 319.787C138.633 319.787 138.891 319.752 139.219 319.682V321C138.791 321.117 138.375 321.176 137.971 321.176C137.244 321.176 136.697 320.956 136.327 320.517C135.958 320.077 135.774 319.453 135.774 318.645V312.747H134.042V311.49H135.774V309.188H137.4ZM146.589 318.478C146.589 318.038 146.422 317.698 146.088 317.458C145.76 317.212 145.183 317.001 144.356 316.825C143.536 316.649 142.883 316.438 142.396 316.192C141.916 315.946 141.559 315.653 141.324 315.313C141.096 314.974 140.981 314.569 140.981 314.101C140.981 313.321 141.31 312.662 141.966 312.123C142.628 311.584 143.472 311.314 144.497 311.314C145.575 311.314 146.448 311.593 147.116 312.149C147.79 312.706 148.127 313.418 148.127 314.285H146.492C146.492 313.84 146.302 313.456 145.921 313.134C145.546 312.812 145.071 312.65 144.497 312.65C143.905 312.65 143.442 312.779 143.108 313.037C142.774 313.295 142.607 313.632 142.607 314.048C142.607 314.44 142.763 314.736 143.073 314.936C143.384 315.135 143.943 315.325 144.752 315.507C145.566 315.688 146.226 315.905 146.729 316.157C147.233 316.409 147.605 316.714 147.846 317.071C148.092 317.423 148.215 317.854 148.215 318.363C148.215 319.213 147.875 319.896 147.195 320.411C146.516 320.921 145.634 321.176 144.55 321.176C143.788 321.176 143.114 321.041 142.528 320.771C141.942 320.502 141.482 320.127 141.148 319.646C140.82 319.16 140.656 318.636 140.656 318.073H142.282C142.312 318.618 142.528 319.052 142.933 319.374C143.343 319.69 143.882 319.849 144.55 319.849C145.165 319.849 145.657 319.726 146.026 319.479C146.401 319.228 146.589 318.894 146.589 318.478ZM162.77 316.351C162.77 317.798 162.439 318.964 161.777 319.849C161.115 320.733 160.218 321.176 159.087 321.176C157.933 321.176 157.025 320.81 156.363 320.077V324.656H154.737V311.49H156.222L156.301 312.545C156.963 311.725 157.883 311.314 159.061 311.314C160.203 311.314 161.106 311.745 161.768 312.606C162.436 313.468 162.77 314.666 162.77 316.201V316.351ZM161.144 316.166C161.144 315.094 160.915 314.247 160.458 313.626C160.001 313.005 159.374 312.694 158.577 312.694C157.593 312.694 156.855 313.131 156.363 314.004V318.548C156.849 319.415 157.593 319.849 158.595 319.849C159.374 319.849 159.993 319.541 160.45 318.926C160.912 318.305 161.144 317.385 161.144 316.166ZM166.58 321H164.954V311.49H166.58V321ZM164.822 308.968C164.822 308.704 164.901 308.481 165.06 308.3C165.224 308.118 165.464 308.027 165.78 308.027C166.097 308.027 166.337 308.118 166.501 308.3C166.665 308.481 166.747 308.704 166.747 308.968C166.747 309.231 166.665 309.451 166.501 309.627C166.337 309.803 166.097 309.891 165.78 309.891C165.464 309.891 165.224 309.803 165.06 309.627C164.901 309.451 164.822 309.231 164.822 308.968ZM172.974 319.849C173.554 319.849 174.061 319.673 174.495 319.321C174.928 318.97 175.169 318.53 175.215 318.003H176.754C176.724 318.548 176.537 319.066 176.191 319.559C175.845 320.051 175.382 320.443 174.802 320.736C174.228 321.029 173.619 321.176 172.974 321.176C171.679 321.176 170.648 320.745 169.881 319.884C169.119 319.017 168.738 317.833 168.738 316.333V316.061C168.738 315.135 168.908 314.312 169.248 313.591C169.588 312.87 170.074 312.311 170.707 311.912C171.345 311.514 172.098 311.314 172.965 311.314C174.032 311.314 174.917 311.634 175.62 312.272C176.329 312.911 176.707 313.74 176.754 314.76H175.215C175.169 314.145 174.934 313.641 174.512 313.248C174.096 312.85 173.581 312.65 172.965 312.65C172.139 312.65 171.498 312.949 171.041 313.547C170.59 314.139 170.364 314.997 170.364 316.122V316.43C170.364 317.525 170.59 318.369 171.041 318.961C171.492 319.553 172.136 319.849 172.974 319.849ZM181.205 316.597L180.186 317.66V321H178.56V307.5H180.186V315.665L181.056 314.619L184.018 311.49H185.995L182.295 315.463L186.426 321H184.519L181.205 316.597ZM191.414 321.176C190.125 321.176 189.076 320.754 188.268 319.91C187.459 319.061 187.055 317.927 187.055 316.509V316.21C187.055 315.267 187.233 314.426 187.591 313.688C187.954 312.943 188.458 312.363 189.103 311.947C189.753 311.525 190.456 311.314 191.212 311.314C192.448 311.314 193.409 311.722 194.095 312.536C194.78 313.351 195.123 314.517 195.123 316.034V316.711H188.681C188.704 317.648 188.977 318.407 189.498 318.987C190.025 319.562 190.693 319.849 191.502 319.849C192.076 319.849 192.562 319.731 192.961 319.497C193.359 319.263 193.708 318.952 194.007 318.565L195 319.339C194.203 320.563 193.008 321.176 191.414 321.176ZM191.212 312.65C190.556 312.65 190.005 312.891 189.56 313.371C189.114 313.846 188.839 314.514 188.733 315.375H193.497V315.252C193.45 314.426 193.228 313.787 192.829 313.336C192.431 312.879 191.892 312.65 191.212 312.65ZM196.587 316.166C196.587 314.707 196.932 313.535 197.624 312.65C198.315 311.76 199.22 311.314 200.34 311.314C201.453 311.314 202.335 311.695 202.985 312.457V307.5H204.611V321H203.117L203.038 319.98C202.387 320.777 201.482 321.176 200.322 321.176C199.22 321.176 198.321 320.725 197.624 319.822C196.932 318.92 196.587 317.742 196.587 316.289V316.166ZM198.213 316.351C198.213 317.429 198.435 318.272 198.881 318.882C199.326 319.491 199.941 319.796 200.726 319.796C201.757 319.796 202.51 319.333 202.985 318.407V314.039C202.499 313.143 201.752 312.694 200.744 312.694C199.947 312.694 199.326 313.002 198.881 313.617C198.435 314.232 198.213 315.144 198.213 316.351ZM211.484 315.806C211.484 314.481 211.66 313.21 212.012 311.991C212.369 310.772 212.899 309.665 213.603 308.669C214.306 307.673 215.035 306.97 215.791 306.56L216.125 307.632C215.27 308.288 214.566 309.29 214.016 310.638C213.471 311.985 213.172 313.494 213.119 315.164L213.11 315.911C213.11 318.173 213.523 320.136 214.35 321.8C214.848 322.796 215.439 323.575 216.125 324.138L215.791 325.131C215.012 324.697 214.268 323.971 213.559 322.951C212.176 320.959 211.484 318.577 211.484 315.806ZM219.865 313.811H221.087C221.854 313.799 222.458 313.597 222.897 313.204C223.337 312.812 223.556 312.281 223.556 311.613C223.556 310.113 222.809 309.363 221.315 309.363C220.612 309.363 220.049 309.565 219.628 309.97C219.212 310.368 219.004 310.898 219.004 311.561H217.378C217.378 310.547 217.747 309.706 218.485 309.038C219.229 308.364 220.173 308.027 221.315 308.027C222.522 308.027 223.468 308.347 224.154 308.985C224.84 309.624 225.182 310.512 225.182 311.648C225.182 312.205 225.001 312.744 224.637 313.266C224.28 313.787 223.791 314.177 223.17 314.435C223.873 314.657 224.415 315.026 224.796 315.542C225.182 316.058 225.376 316.688 225.376 317.432C225.376 318.58 225.001 319.491 224.251 320.165C223.501 320.839 222.525 321.176 221.324 321.176C220.123 321.176 219.144 320.851 218.388 320.2C217.638 319.55 217.263 318.691 217.263 317.625H218.898C218.898 318.299 219.118 318.838 219.557 319.242C219.997 319.646 220.586 319.849 221.324 319.849C222.109 319.849 222.71 319.644 223.126 319.233C223.542 318.823 223.75 318.234 223.75 317.467C223.75 316.723 223.521 316.151 223.064 315.753C222.607 315.354 221.948 315.149 221.087 315.138H219.865V313.811ZM235.962 321H227.577V319.831L232.007 314.909C232.663 314.165 233.115 313.562 233.361 313.099C233.613 312.63 233.739 312.146 233.739 311.648C233.739 310.98 233.536 310.433 233.132 310.005C232.728 309.577 232.189 309.363 231.515 309.363C230.706 309.363 230.076 309.595 229.625 310.058C229.18 310.515 228.957 311.153 228.957 311.974H227.331C227.331 310.796 227.709 309.844 228.465 309.117C229.227 308.391 230.243 308.027 231.515 308.027C232.704 308.027 233.645 308.341 234.336 308.968C235.028 309.589 235.373 310.418 235.373 311.455C235.373 312.715 234.571 314.215 232.965 315.955L229.537 319.673H235.962V321ZM245.679 315.542C245.679 317.446 245.354 318.861 244.703 319.787C244.053 320.713 243.036 321.176 241.653 321.176C240.288 321.176 239.277 320.725 238.621 319.822C237.965 318.914 237.625 317.561 237.602 315.762V313.591C237.602 311.71 237.927 310.312 238.577 309.398C239.228 308.484 240.247 308.027 241.636 308.027C243.013 308.027 244.026 308.47 244.677 309.354C245.327 310.233 245.661 311.593 245.679 313.433V315.542ZM244.053 313.318C244.053 311.941 243.859 310.939 243.473 310.312C243.086 309.68 242.474 309.363 241.636 309.363C240.804 309.363 240.197 309.677 239.816 310.304C239.436 310.931 239.239 311.895 239.228 313.195V315.797C239.228 317.18 239.427 318.202 239.825 318.864C240.229 319.521 240.839 319.849 241.653 319.849C242.456 319.849 243.051 319.538 243.438 318.917C243.83 318.296 244.035 317.317 244.053 315.981V313.318ZM251.651 315.894C251.651 317.2 251.478 318.454 251.132 319.655C250.793 320.851 250.268 321.955 249.559 322.969C248.856 323.982 248.118 324.703 247.344 325.131L247.002 324.138C247.904 323.446 248.628 322.374 249.173 320.921C249.723 319.462 250.005 317.845 250.016 316.069V315.788C250.016 314.558 249.887 313.415 249.63 312.36C249.372 311.3 249.011 310.351 248.548 309.513C248.091 308.675 247.576 308.021 247.002 307.553L247.344 306.56C248.118 306.987 248.853 307.702 249.55 308.704C250.254 309.706 250.778 310.811 251.124 312.018C251.475 313.225 251.651 314.517 251.651 315.894Z" fill="#2F80ED"/>
<path d="M114.976 353.99V359H113.289V346.203H118.008C119.409 346.203 120.505 346.561 121.296 347.275C122.092 347.99 122.491 348.937 122.491 350.114C122.491 351.356 122.101 352.314 121.322 352.988C120.549 353.656 119.438 353.99 117.991 353.99H114.976ZM114.976 352.61H118.008C118.911 352.61 119.602 352.399 120.083 351.978C120.563 351.55 120.803 350.935 120.803 350.132C120.803 349.37 120.563 348.761 120.083 348.304C119.602 347.847 118.943 347.609 118.105 347.592H114.976V352.61ZM128.182 359.176C126.893 359.176 125.844 358.754 125.035 357.91C124.227 357.061 123.823 355.927 123.823 354.509V354.21C123.823 353.267 124.001 352.426 124.359 351.688C124.722 350.943 125.226 350.363 125.87 349.947C126.521 349.525 127.224 349.314 127.98 349.314C129.216 349.314 130.177 349.722 130.863 350.536C131.548 351.351 131.891 352.517 131.891 354.034V354.711H125.449C125.472 355.648 125.744 356.407 126.266 356.987C126.793 357.562 127.461 357.849 128.27 357.849C128.844 357.849 129.33 357.731 129.729 357.497C130.127 357.263 130.476 356.952 130.775 356.565L131.768 357.339C130.971 358.563 129.776 359.176 128.182 359.176ZM127.98 350.65C127.324 350.65 126.773 350.891 126.327 351.371C125.882 351.846 125.607 352.514 125.501 353.375H130.265V353.252C130.218 352.426 129.995 351.787 129.597 351.336C129.199 350.879 128.66 350.65 127.98 350.65ZM135.288 349.49L135.341 350.686C136.067 349.771 137.017 349.314 138.188 349.314C140.198 349.314 141.212 350.448 141.229 352.716V359H139.604V352.707C139.598 352.021 139.439 351.515 139.129 351.187C138.824 350.858 138.347 350.694 137.696 350.694C137.169 350.694 136.706 350.835 136.308 351.116C135.909 351.397 135.599 351.767 135.376 352.224V359H133.75V349.49H135.288ZM143.256 354.166C143.256 352.707 143.601 351.535 144.293 350.65C144.984 349.76 145.889 349.314 147.008 349.314C148.122 349.314 149.004 349.695 149.654 350.457V345.5H151.28V359H149.786L149.707 357.98C149.056 358.777 148.151 359.176 146.991 359.176C145.889 359.176 144.99 358.725 144.293 357.822C143.601 356.92 143.256 355.742 143.256 354.289V354.166ZM144.882 354.351C144.882 355.429 145.104 356.272 145.549 356.882C145.995 357.491 146.61 357.796 147.395 357.796C148.426 357.796 149.179 357.333 149.654 356.407V352.039C149.168 351.143 148.421 350.694 147.413 350.694C146.616 350.694 145.995 351.002 145.549 351.617C145.104 352.232 144.882 353.144 144.882 354.351ZM155.547 359H153.921V349.49H155.547V359ZM153.789 346.968C153.789 346.704 153.868 346.481 154.027 346.3C154.191 346.118 154.431 346.027 154.747 346.027C155.064 346.027 155.304 346.118 155.468 346.3C155.632 346.481 155.714 346.704 155.714 346.968C155.714 347.231 155.632 347.451 155.468 347.627C155.304 347.803 155.064 347.891 154.747 347.891C154.431 347.891 154.191 347.803 154.027 347.627C153.868 347.451 153.789 347.231 153.789 346.968ZM159.665 349.49L159.718 350.686C160.444 349.771 161.394 349.314 162.565 349.314C164.575 349.314 165.589 350.448 165.606 352.716V359H163.98V352.707C163.975 352.021 163.816 351.515 163.506 351.187C163.201 350.858 162.724 350.694 162.073 350.694C161.546 350.694 161.083 350.835 160.685 351.116C160.286 351.397 159.976 351.767 159.753 352.224V359H158.127V349.49H159.665ZM167.641 354.166C167.641 352.684 167.984 351.506 168.67 350.633C169.355 349.754 170.263 349.314 171.394 349.314C172.554 349.314 173.46 349.725 174.11 350.545L174.189 349.49H175.674V358.771C175.674 360.002 175.308 360.972 174.576 361.681C173.849 362.39 172.871 362.744 171.64 362.744C170.955 362.744 170.284 362.598 169.628 362.305C168.971 362.012 168.47 361.61 168.125 361.101L168.968 360.125C169.666 360.986 170.518 361.417 171.526 361.417C172.317 361.417 172.932 361.194 173.372 360.749C173.817 360.304 174.04 359.677 174.04 358.868V358.051C173.389 358.801 172.502 359.176 171.377 359.176C170.263 359.176 169.361 358.728 168.67 357.831C167.984 356.935 167.641 355.713 167.641 354.166ZM169.276 354.351C169.276 355.423 169.496 356.267 169.935 356.882C170.375 357.491 170.99 357.796 171.781 357.796C172.806 357.796 173.559 357.33 174.04 356.398V352.057C173.542 351.148 172.795 350.694 171.799 350.694C171.007 350.694 170.389 351.002 169.944 351.617C169.499 352.232 169.276 353.144 169.276 354.351ZM191.803 346.203V354.904C191.797 356.111 191.416 357.099 190.66 357.866C189.91 358.634 188.891 359.064 187.602 359.158L187.153 359.176C185.753 359.176 184.637 358.798 183.805 358.042C182.973 357.286 182.551 356.246 182.539 354.922V346.203H184.209V354.869C184.209 355.795 184.464 356.516 184.974 357.031C185.483 357.541 186.21 357.796 187.153 357.796C188.108 357.796 188.838 357.541 189.342 357.031C189.852 356.521 190.106 355.804 190.106 354.878V346.203H191.803ZM195.718 349.49L195.771 350.686C196.498 349.771 197.447 349.314 198.619 349.314C200.629 349.314 201.642 350.448 201.66 352.716V359H200.034V352.707C200.028 352.021 199.87 351.515 199.559 351.187C199.255 350.858 198.777 350.694 198.127 350.694C197.599 350.694 197.136 350.835 196.738 351.116C196.34 351.397 196.029 351.767 195.806 352.224V359H194.18V349.49H195.718ZM205.848 359H204.222V349.49H205.848V359ZM204.09 346.968C204.09 346.704 204.169 346.481 204.327 346.3C204.492 346.118 204.732 346.027 205.048 346.027C205.365 346.027 205.605 346.118 205.769 346.3C205.933 346.481 206.015 346.704 206.015 346.968C206.015 347.231 205.933 347.451 205.769 347.627C205.605 347.803 205.365 347.891 205.048 347.891C204.732 347.891 204.492 347.803 204.327 347.627C204.169 347.451 204.09 347.231 204.09 346.968ZM210.634 347.188V349.49H212.409V350.747H210.634V356.645C210.634 357.025 210.713 357.312 210.871 357.506C211.029 357.693 211.299 357.787 211.68 357.787C211.867 357.787 212.125 357.752 212.453 357.682V359C212.025 359.117 211.609 359.176 211.205 359.176C210.479 359.176 209.931 358.956 209.562 358.517C209.192 358.077 209.008 357.453 209.008 356.645V350.747H207.276V349.49H209.008V347.188H210.634ZM219.823 356.478C219.823 356.038 219.656 355.698 219.322 355.458C218.994 355.212 218.417 355.001 217.59 354.825C216.77 354.649 216.117 354.438 215.631 354.192C215.15 353.946 214.793 353.653 214.558 353.313C214.33 352.974 214.215 352.569 214.215 352.101C214.215 351.321 214.544 350.662 215.2 350.123C215.862 349.584 216.706 349.314 217.731 349.314C218.809 349.314 219.682 349.593 220.35 350.149C221.024 350.706 221.361 351.418 221.361 352.285H219.726C219.726 351.84 219.536 351.456 219.155 351.134C218.78 350.812 218.305 350.65 217.731 350.65C217.139 350.65 216.676 350.779 216.342 351.037C216.008 351.295 215.841 351.632 215.841 352.048C215.841 352.44 215.997 352.736 216.307 352.936C216.618 353.135 217.177 353.325 217.986 353.507C218.8 353.688 219.46 353.905 219.964 354.157C220.467 354.409 220.84 354.714 221.08 355.071C221.326 355.423 221.449 355.854 221.449 356.363C221.449 357.213 221.109 357.896 220.429 358.411C219.75 358.921 218.868 359.176 217.784 359.176C217.022 359.176 216.348 359.041 215.762 358.771C215.176 358.502 214.716 358.127 214.382 357.646C214.054 357.16 213.89 356.636 213.89 356.073H215.516C215.546 356.618 215.762 357.052 216.167 357.374C216.577 357.69 217.116 357.849 217.784 357.849C218.399 357.849 218.891 357.726 219.26 357.479C219.635 357.228 219.823 356.894 219.823 356.478ZM227.909 353.806C227.909 352.481 228.085 351.21 228.437 349.991C228.794 348.772 229.324 347.665 230.027 346.669C230.73 345.673 231.46 344.97 232.216 344.56L232.55 345.632C231.694 346.288 230.991 347.29 230.44 348.638C229.896 349.985 229.597 351.494 229.544 353.164L229.535 353.911C229.535 356.173 229.948 358.136 230.774 359.8C231.272 360.796 231.864 361.575 232.55 362.138L232.216 363.131C231.437 362.697 230.692 361.971 229.983 360.951C228.601 358.959 227.909 356.577 227.909 353.806ZM241.686 349.543C241.686 350.182 241.516 350.75 241.176 351.248C240.842 351.746 240.388 352.136 239.814 352.417C240.482 352.704 241.009 353.123 241.396 353.674C241.789 354.225 241.985 354.849 241.985 355.546C241.985 356.653 241.61 357.535 240.86 358.191C240.116 358.848 239.134 359.176 237.916 359.176C236.685 359.176 235.698 358.848 234.954 358.191C234.215 357.529 233.846 356.647 233.846 355.546C233.846 354.854 234.034 354.23 234.409 353.674C234.79 353.117 235.314 352.695 235.982 352.408C235.414 352.127 234.965 351.737 234.637 351.239C234.309 350.741 234.145 350.176 234.145 349.543C234.145 348.465 234.491 347.609 235.182 346.977C235.874 346.344 236.785 346.027 237.916 346.027C239.041 346.027 239.949 346.344 240.64 346.977C241.338 347.609 241.686 348.465 241.686 349.543ZM240.359 355.511C240.359 354.796 240.131 354.213 239.673 353.762C239.222 353.311 238.631 353.085 237.898 353.085C237.166 353.085 236.577 353.308 236.132 353.753C235.692 354.198 235.472 354.784 235.472 355.511C235.472 356.237 235.686 356.809 236.114 357.225C236.548 357.641 237.148 357.849 237.916 357.849C238.677 357.849 239.275 357.641 239.709 357.225C240.142 356.803 240.359 356.231 240.359 355.511ZM237.916 347.363C237.277 347.363 236.758 347.562 236.36 347.961C235.967 348.354 235.771 348.89 235.771 349.569C235.771 350.22 235.965 350.747 236.351 351.151C236.744 351.55 237.265 351.749 237.916 351.749C238.566 351.749 239.085 351.55 239.471 351.151C239.864 350.747 240.06 350.22 240.06 349.569C240.06 348.919 239.858 348.389 239.454 347.979C239.049 347.568 238.537 347.363 237.916 347.363ZM247.922 353.894C247.922 355.2 247.749 356.454 247.404 357.655C247.064 358.851 246.539 359.955 245.83 360.969C245.127 361.982 244.389 362.703 243.616 363.131L243.273 362.138C244.175 361.446 244.899 360.374 245.444 358.921C245.994 357.462 246.276 355.845 246.287 354.069V353.788C246.287 352.558 246.159 351.415 245.901 350.36C245.643 349.3 245.283 348.351 244.82 347.513C244.363 346.675 243.847 346.021 243.273 345.553L243.616 344.56C244.389 344.987 245.124 345.702 245.822 346.704C246.525 347.706 247.049 348.811 247.395 350.018C247.746 351.225 247.922 352.517 247.922 353.894Z" fill="#2F80ED"/>
<path d="M67 326H294" stroke="black" stroke-width="0.2"/>
<path d="M50.3334 60.6667H34.52L39.36 54.8534C39.5864 54.5811 39.6952 54.23 39.6627 53.8775C39.6302 53.5249 39.459 53.1997 39.1867 52.9734C38.9144 52.7471 38.5634 52.6382 38.2108 52.6707C37.8582 52.7032 37.533 52.8744 37.3067 53.1467L30.64 61.1467C30.5952 61.2103 30.5551 61.2772 30.52 61.3467C30.52 61.4134 30.52 61.4534 30.4267 61.52C30.3663 61.6729 30.3346 61.8357 30.3334 62C30.3346 62.1644 30.3663 62.3272 30.4267 62.48C30.4267 62.5467 30.4267 62.5867 30.52 62.6534C30.5551 62.7229 30.5952 62.7897 30.64 62.8534L37.3067 70.8534C37.4321 71.0039 37.5891 71.1249 37.7665 71.2079C37.9439 71.2908 38.1375 71.3337 38.3334 71.3334C38.6449 71.334 38.9468 71.2255 39.1867 71.0267C39.3217 70.9148 39.4333 70.7773 39.5151 70.6222C39.5969 70.467 39.6473 70.2973 39.6634 70.1227C39.6795 69.948 39.661 69.7719 39.609 69.6045C39.5569 69.437 39.4723 69.2814 39.36 69.1467L34.52 63.3334H50.3334C50.687 63.3334 51.0261 63.1929 51.2762 62.9429C51.5262 62.6928 51.6667 62.3537 51.6667 62C51.6667 61.6464 51.5262 61.3073 51.2762 61.0572C51.0261 60.8072 50.687 60.6667 50.3334 60.6667Z" fill="black"/>
<defs>
<filter id="filter0_d" x="22" y="634" width="330" height="115" filterUnits="userSpaceOnUse" color-interpolation-filters="sRGB">
<feFlood flood-opacity="0" result="BackgroundImageFix"/>
<feColorMatrix in="SourceAlpha" type="matrix" values="0 0 0 0 0 0 0 0 0 0 0 0 0 0 0 0 0 0 127 0" result="hardAlpha"/>
<feOffset dy="4"/>
<feGaussianBlur stdDeviation="15"/>
<feColorMatrix type="matrix" values="0 0 0 0 0.0745098 0 0 0 0 0.490196 0 0 0 0 0.305882 0 0 0 0.3 0"/>
<feBlend mode="normal" in2="BackgroundImageFix" result="effect1_dropShadow"/>
<feBlend mode="normal" in="SourceGraphic" in2="effect1_dropShadow" result="shape"/>
</filter>
</defs>
</svg>
