<svg width="503" height="900" viewBox="0 0 503 900" fill="none" xmlns="http://www.w3.org/2000/svg">
<rect x="64" width="375" height="812" fill="white"/>
<path d="M353.05 7.25016e-05H149.95H64V11.0001L64 85.9501V372.647H139V325H214V348.294H364V397H439V289V85.9501L439 1.71884e-05H430L353.05 7.25016e-05Z" fill="white"/>
<path d="M232.524 709.225H238.334V711H230.301V698.203H232.524V709.225ZM239.433 706.157C239.433 705.226 239.617 704.388 239.986 703.644C240.355 702.894 240.874 702.319 241.542 701.921C242.21 701.517 242.978 701.314 243.845 701.314C245.128 701.314 246.168 701.728 246.965 702.554C247.768 703.38 248.201 704.476 248.266 705.841L248.274 706.342C248.274 707.279 248.093 708.117 247.729 708.855C247.372 709.594 246.856 710.165 246.183 710.569C245.515 710.974 244.741 711.176 243.862 711.176C242.521 711.176 241.445 710.73 240.637 709.84C239.834 708.943 239.433 707.751 239.433 706.263V706.157ZM241.568 706.342C241.568 707.32 241.771 708.088 242.175 708.645C242.579 709.195 243.142 709.471 243.862 709.471C244.583 709.471 245.143 709.189 245.541 708.627C245.945 708.064 246.147 707.241 246.147 706.157C246.147 705.196 245.939 704.435 245.523 703.872C245.113 703.31 244.554 703.028 243.845 703.028C243.147 703.028 242.594 703.307 242.184 703.863C241.773 704.414 241.568 705.24 241.568 706.342ZM249.707 706.175C249.707 704.698 250.053 703.521 250.744 702.642C251.441 701.757 252.364 701.314 253.513 701.314C254.597 701.314 255.449 701.692 256.07 702.448L256.167 701.49H258.092V710.71C258.092 711.958 257.702 712.942 256.923 713.663C256.149 714.384 255.104 714.744 253.785 714.744C253.088 714.744 252.405 714.598 251.737 714.305C251.075 714.018 250.571 713.64 250.226 713.171L251.236 711.888C251.893 712.667 252.701 713.057 253.662 713.057C254.371 713.057 254.931 712.863 255.341 712.477C255.751 712.096 255.956 711.533 255.956 710.789V710.147C255.341 710.833 254.521 711.176 253.495 711.176C252.382 711.176 251.471 710.733 250.762 709.849C250.059 708.964 249.707 707.739 249.707 706.175ZM251.834 706.359C251.834 707.314 252.027 708.067 252.414 708.618C252.807 709.163 253.349 709.436 254.04 709.436C254.901 709.436 255.54 709.066 255.956 708.328V704.145C255.552 703.424 254.919 703.063 254.058 703.063C253.354 703.063 252.807 703.342 252.414 703.898C252.027 704.455 251.834 705.275 251.834 706.359ZM262.565 711H260.43V701.49H262.565V711ZM260.298 699.021C260.298 698.692 260.4 698.42 260.605 698.203C260.816 697.986 261.115 697.878 261.502 697.878C261.889 697.878 262.188 697.986 262.398 698.203C262.609 698.42 262.715 698.692 262.715 699.021C262.715 699.343 262.609 699.612 262.398 699.829C262.188 700.04 261.889 700.146 261.502 700.146C261.115 700.146 260.816 700.04 260.605 699.829C260.4 699.612 260.298 699.343 260.298 699.021ZM266.881 701.49L266.942 702.589C267.646 701.739 268.568 701.314 269.711 701.314C271.691 701.314 272.699 702.448 272.734 704.716V711H270.599V704.839C270.599 704.235 270.467 703.79 270.203 703.503C269.945 703.21 269.521 703.063 268.929 703.063C268.067 703.063 267.426 703.453 267.004 704.232V711H264.868V701.49H266.881Z" fill="white"/>
<path opacity="0.35" d="M400.5 20C400.5 18.8034 401.47 17.8334 402.667 17.8334H419.333C420.53 17.8334 421.5 18.8034 421.5 20V26C421.5 27.1967 420.53 28.1667 419.333 28.1667H402.667C401.47 28.1667 400.5 27.1967 400.5 26V20Z" stroke="black"/>
<path opacity="0.4" d="M423 21V25C423.805 24.6613 424.328 23.8732 424.328 23C424.328 22.1269 423.805 21.3388 423 21Z" fill="black"/>
<path d="M402 20.6667C402 19.9303 402.597 19.3334 403.333 19.3334H418.667C419.403 19.3334 420 19.9303 420 20.6667V25.3334C420 26.0698 419.403 26.6667 418.667 26.6667H403.333C402.597 26.6667 402 26.0698 402 25.3334V20.6667Z" fill="black"/>
<path fill-rule="evenodd" clip-rule="evenodd" d="M387.33 19.608C389.546 19.6081 391.677 20.4596 393.283 21.9863C393.404 22.1042 393.598 22.1027 393.717 21.983L394.873 20.8163C394.933 20.7556 394.967 20.6734 394.966 20.5878C394.966 20.5022 394.931 20.4204 394.87 20.3603C390.655 16.3208 384.005 16.3208 379.79 20.3603C379.729 20.4203 379.694 20.5021 379.694 20.5877C379.693 20.6733 379.727 20.7556 379.787 20.8163L380.943 21.983C381.062 22.1029 381.256 22.1044 381.377 21.9863C382.983 20.4595 385.114 19.608 387.33 19.608ZM387.33 23.4037C388.548 23.4036 389.722 23.8561 390.624 24.6733C390.746 24.7893 390.939 24.7868 391.058 24.6677L392.212 23.501C392.273 23.4398 392.307 23.3568 392.306 23.2705C392.305 23.1843 392.27 23.102 392.208 23.042C389.459 20.4856 385.204 20.4856 382.455 23.042C382.393 23.102 382.358 23.1843 382.357 23.2706C382.356 23.3569 382.39 23.4399 382.451 23.501L383.605 24.6677C383.724 24.7868 383.917 24.7893 384.039 24.6733C384.941 23.8567 386.114 23.4042 387.33 23.4037ZM389.643 25.9575C389.645 26.044 389.611 26.1274 389.549 26.188L387.552 28.2037C387.493 28.2629 387.414 28.2963 387.33 28.2963C387.247 28.2963 387.167 28.2629 387.109 28.2037L385.111 26.188C385.049 26.1274 385.015 26.0439 385.017 25.9574C385.019 25.8709 385.056 25.789 385.121 25.731C386.396 24.6521 388.264 24.6521 389.54 25.731C389.604 25.7891 389.642 25.871 389.643 25.9575Z" fill="black"/>
<path fill-rule="evenodd" clip-rule="evenodd" d="M373.667 17.6666H372.667C372.114 17.6666 371.667 18.1143 371.667 18.6666V27.3333C371.667 27.8856 372.114 28.3333 372.667 28.3333H373.667C374.219 28.3333 374.667 27.8856 374.667 27.3333V18.6666C374.667 18.1143 374.219 17.6666 373.667 17.6666ZM368 20H369C369.552 20 370 20.4477 370 21V27.3333C370 27.8856 369.552 28.3333 369 28.3333H368C367.448 28.3333 367 27.8856 367 27.3333V21C367 20.4477 367.448 20 368 20ZM364.333 22.3333H363.333C362.781 22.3333 362.333 22.781 362.333 23.3333V27.3333C362.333 27.8856 362.781 28.3333 363.333 28.3333H364.333C364.886 28.3333 365.333 27.8856 365.333 27.3333V23.3333C365.333 22.781 364.886 22.3333 364.333 22.3333ZM359.667 24.3333H358.667C358.114 24.3333 357.667 24.781 357.667 25.3333V27.3333C357.667 27.8856 358.114 28.3333 358.667 28.3333H359.667C360.219 28.3333 360.667 27.8856 360.667 27.3333V25.3333C360.667 24.781 360.219 24.3333 359.667 24.3333Z" fill="black"/>
<path d="M101.321 28.2563C104.009 28.2563 105.605 26.1543 105.605 22.5947C105.605 21.2544 105.349 20.1265 104.858 19.2549C104.148 17.8999 102.925 17.1675 101.379 17.1675C99.0795 17.1675 97.4535 18.7129 97.4535 20.8809C97.4535 22.917 98.9183 24.3965 100.932 24.3965C102.17 24.3965 103.174 23.8179 103.672 22.8145H103.694C103.694 22.8145 103.723 22.8145 103.73 22.8145C103.745 22.8145 103.796 22.8145 103.796 22.8145C103.796 25.2314 102.881 26.6743 101.335 26.6743C100.427 26.6743 99.724 26.1763 99.4823 25.3779H97.6C97.9149 27.1138 99.3871 28.2563 101.321 28.2563ZM101.387 22.895C100.171 22.895 99.3065 22.0308 99.3065 20.8223C99.3065 19.6431 100.215 18.7422 101.394 18.7422C102.573 18.7422 103.481 19.6577 103.481 20.8516C103.481 22.0308 102.595 22.895 101.387 22.895Z" fill="black"/>
<path d="M108.696 28.1538C109.392 28.1538 109.868 27.6558 109.868 26.9966C109.868 26.3301 109.392 25.8394 108.696 25.8394C108.008 25.8394 107.525 26.3301 107.525 26.9966C107.525 27.6558 108.008 28.1538 108.696 28.1538ZM108.696 22.6606C109.392 22.6606 109.868 22.1699 109.868 21.5107C109.868 20.8442 109.392 20.3535 108.696 20.3535C108.008 20.3535 107.525 20.8442 107.525 21.5107C107.525 22.1699 108.008 22.6606 108.696 22.6606Z" fill="black"/>
<path d="M116.724 28H118.533V26.0298H119.961V24.4331H118.533V17.4312H115.867C113.999 20.2437 112.513 22.5947 111.561 24.3452V26.0298H116.724V28ZM113.311 24.3672C114.541 22.1992 115.64 20.4634 116.651 18.9692H116.753V24.4771H113.311V24.3672Z" fill="black"/>
<path d="M123.99 28H125.88V17.4312H123.997L121.236 19.3647V21.1812L123.865 19.3354H123.99V28Z" fill="black"/>
<path d="M100.438 105.938V117.176C100.438 119.043 99.8516 120.52 98.6797 121.605C97.5156 122.691 95.9219 123.234 93.8984 123.234C91.9062 123.234 90.3242 122.707 89.1523 121.652C87.9805 120.598 87.3828 119.148 87.3594 117.305V105.938H90.875V117.199C90.875 118.316 91.1406 119.133 91.6719 119.648C92.2109 120.156 92.9531 120.41 93.8984 120.41C95.875 120.41 96.8789 119.371 96.9102 117.293V105.938H100.438ZM106.215 110.32L106.32 111.785C107.227 110.652 108.441 110.086 109.965 110.086C111.309 110.086 112.309 110.48 112.965 111.27C113.621 112.059 113.957 113.238 113.973 114.809V123H110.586V114.891C110.586 114.172 110.43 113.652 110.117 113.332C109.805 113.004 109.285 112.84 108.559 112.84C107.605 112.84 106.891 113.246 106.414 114.059V123H103.027V110.32H106.215ZM120.125 123H116.727V110.32H120.125V123ZM116.527 107.039C116.527 106.531 116.695 106.113 117.031 105.785C117.375 105.457 117.84 105.293 118.426 105.293C119.004 105.293 119.465 105.457 119.809 105.785C120.152 106.113 120.324 106.531 120.324 107.039C120.324 107.555 120.148 107.977 119.797 108.305C119.453 108.633 118.996 108.797 118.426 108.797C117.855 108.797 117.395 108.633 117.043 108.305C116.699 107.977 116.527 107.555 116.527 107.039ZM126.98 107.203V110.32H129.148V112.805H126.98V119.133C126.98 119.602 127.07 119.938 127.25 120.141C127.43 120.344 127.773 120.445 128.281 120.445C128.656 120.445 128.988 120.418 129.277 120.363V122.93C128.613 123.133 127.93 123.234 127.227 123.234C124.852 123.234 123.641 122.035 123.594 119.637V112.805H121.742V110.32H123.594V107.203H126.98ZM137.902 119.496C137.902 119.082 137.695 118.758 137.281 118.523C136.875 118.281 136.219 118.066 135.312 117.879C132.297 117.246 130.789 115.965 130.789 114.035C130.789 112.91 131.254 111.973 132.184 111.223C133.121 110.465 134.344 110.086 135.852 110.086C137.461 110.086 138.746 110.465 139.707 111.223C140.676 111.98 141.16 112.965 141.16 114.176H137.773C137.773 113.691 137.617 113.293 137.305 112.98C136.992 112.66 136.504 112.5 135.84 112.5C135.27 112.5 134.828 112.629 134.516 112.887C134.203 113.145 134.047 113.473 134.047 113.871C134.047 114.246 134.223 114.551 134.574 114.785C134.934 115.012 135.535 115.211 136.379 115.383C137.223 115.547 137.934 115.734 138.512 115.945C140.301 116.602 141.195 117.738 141.195 119.355C141.195 120.512 140.699 121.449 139.707 122.168C138.715 122.879 137.434 123.234 135.863 123.234C134.801 123.234 133.855 123.047 133.027 122.672C132.207 122.289 131.562 121.77 131.094 121.113C130.625 120.449 130.391 119.734 130.391 118.969H133.602C133.633 119.57 133.855 120.031 134.27 120.352C134.684 120.672 135.238 120.832 135.934 120.832C136.582 120.832 137.07 120.711 137.398 120.469C137.734 120.219 137.902 119.895 137.902 119.496ZM158.434 118.523C158.434 117.859 158.199 117.352 157.73 117C157.262 116.641 156.418 116.266 155.199 115.875C153.98 115.477 153.016 115.086 152.305 114.703C150.367 113.656 149.398 112.246 149.398 110.473C149.398 109.551 149.656 108.73 150.172 108.012C150.695 107.285 151.441 106.719 152.41 106.312C153.387 105.906 154.48 105.703 155.691 105.703C156.91 105.703 157.996 105.926 158.949 106.371C159.902 106.809 160.641 107.43 161.164 108.234C161.695 109.039 161.961 109.953 161.961 110.977H158.445C158.445 110.195 158.199 109.59 157.707 109.16C157.215 108.723 156.523 108.504 155.633 108.504C154.773 108.504 154.105 108.688 153.629 109.055C153.152 109.414 152.914 109.891 152.914 110.484C152.914 111.039 153.191 111.504 153.746 111.879C154.309 112.254 155.133 112.605 156.219 112.934C158.219 113.535 159.676 114.281 160.59 115.172C161.504 116.062 161.961 117.172 161.961 118.5C161.961 119.977 161.402 121.137 160.285 121.98C159.168 122.816 157.664 123.234 155.773 123.234C154.461 123.234 153.266 122.996 152.188 122.52C151.109 122.035 150.285 121.375 149.715 120.539C149.152 119.703 148.871 118.734 148.871 117.633H152.398C152.398 119.516 153.523 120.457 155.773 120.457C156.609 120.457 157.262 120.289 157.73 119.953C158.199 119.609 158.434 119.133 158.434 118.523ZM168.184 107.203V110.32H170.352V112.805H168.184V119.133C168.184 119.602 168.273 119.938 168.453 120.141C168.633 120.344 168.977 120.445 169.484 120.445C169.859 120.445 170.191 120.418 170.48 120.363V122.93C169.816 123.133 169.133 123.234 168.43 123.234C166.055 123.234 164.844 122.035 164.797 119.637V112.805H162.945V110.32H164.797V107.203H168.184ZM179.586 123C179.43 122.695 179.316 122.316 179.246 121.863C178.426 122.777 177.359 123.234 176.047 123.234C174.805 123.234 173.773 122.875 172.953 122.156C172.141 121.438 171.734 120.531 171.734 119.438C171.734 118.094 172.23 117.062 173.223 116.344C174.223 115.625 175.664 115.262 177.547 115.254H179.105V114.527C179.105 113.941 178.953 113.473 178.648 113.121C178.352 112.77 177.879 112.594 177.23 112.594C176.66 112.594 176.211 112.73 175.883 113.004C175.562 113.277 175.402 113.652 175.402 114.129H172.016C172.016 113.395 172.242 112.715 172.695 112.09C173.148 111.465 173.789 110.977 174.617 110.625C175.445 110.266 176.375 110.086 177.406 110.086C178.969 110.086 180.207 110.48 181.121 111.27C182.043 112.051 182.504 113.152 182.504 114.574V120.07C182.512 121.273 182.68 122.184 183.008 122.801V123H179.586ZM176.785 120.645C177.285 120.645 177.746 120.535 178.168 120.316C178.59 120.09 178.902 119.789 179.105 119.414V117.234H177.84C176.145 117.234 175.242 117.82 175.133 118.992L175.121 119.191C175.121 119.613 175.27 119.961 175.566 120.234C175.863 120.508 176.27 120.645 176.785 120.645ZM189.16 107.203V110.32H191.328V112.805H189.16V119.133C189.16 119.602 189.25 119.938 189.43 120.141C189.609 120.344 189.953 120.445 190.461 120.445C190.836 120.445 191.168 120.418 191.457 120.363V122.93C190.793 123.133 190.109 123.234 189.406 123.234C187.031 123.234 185.82 122.035 185.773 119.637V112.805H183.922V110.32H185.773V107.203H189.16ZM200.809 121.711C199.973 122.727 198.816 123.234 197.34 123.234C195.98 123.234 194.941 122.844 194.223 122.062C193.512 121.281 193.148 120.137 193.133 118.629V110.32H196.52V118.512C196.52 119.832 197.121 120.492 198.324 120.492C199.473 120.492 200.262 120.094 200.691 119.297V110.32H204.09V123H200.902L200.809 121.711ZM213.512 119.496C213.512 119.082 213.305 118.758 212.891 118.523C212.484 118.281 211.828 118.066 210.922 117.879C207.906 117.246 206.398 115.965 206.398 114.035C206.398 112.91 206.863 111.973 207.793 111.223C208.73 110.465 209.953 110.086 211.461 110.086C213.07 110.086 214.355 110.465 215.316 111.223C216.285 111.98 216.77 112.965 216.77 114.176H213.383C213.383 113.691 213.227 113.293 212.914 112.98C212.602 112.66 212.113 112.5 211.449 112.5C210.879 112.5 210.438 112.629 210.125 112.887C209.812 113.145 209.656 113.473 209.656 113.871C209.656 114.246 209.832 114.551 210.184 114.785C210.543 115.012 211.145 115.211 211.988 115.383C212.832 115.547 213.543 115.734 214.121 115.945C215.91 116.602 216.805 117.738 216.805 119.355C216.805 120.512 216.309 121.449 215.316 122.168C214.324 122.879 213.043 123.234 211.473 123.234C210.41 123.234 209.465 123.047 208.637 122.672C207.816 122.289 207.172 121.77 206.703 121.113C206.234 120.449 206 119.734 206 118.969H209.211C209.242 119.57 209.465 120.031 209.879 120.352C210.293 120.672 210.848 120.832 211.543 120.832C212.191 120.832 212.68 120.711 213.008 120.469C213.344 120.219 213.512 119.895 213.512 119.496Z" fill="#AB8244"/>
<g filter="url(#filter0_i)">
<rect width="368" height="39.6719" transform="translate(71 149)" fill="white"/>
<path d="M93.3209 164.917V172.214C93.3209 173.374 92.9484 174.294 92.2034 174.973C91.4635 175.648 90.476 175.986 89.2411 175.986C87.9912 175.986 86.9988 175.653 86.2638 174.988C85.5289 174.319 85.1614 173.391 85.1614 172.206V164.917H87.0513V172.221C87.0513 172.951 87.2362 173.509 87.6062 173.894C87.9762 174.279 88.5212 174.471 89.2411 174.471C90.701 174.471 91.431 173.701 91.431 172.161V164.917H93.3209ZM96.8681 167.721L96.9206 168.659C97.5206 167.934 98.308 167.571 99.283 167.571C100.973 167.571 101.833 168.539 101.863 170.474V175.836H100.04V170.579C100.04 170.064 99.9279 169.684 99.7029 169.439C99.483 169.189 99.1205 169.064 98.6155 169.064C97.8806 169.064 97.3331 169.396 96.9731 170.061V175.836H95.1507V167.721H96.8681ZM105.665 175.836H103.843V167.721H105.665V175.836ZM103.73 165.614C103.73 165.334 103.818 165.102 103.993 164.917C104.173 164.732 104.428 164.639 104.758 164.639C105.088 164.639 105.343 164.732 105.523 164.917C105.703 165.102 105.793 165.334 105.793 165.614C105.793 165.889 105.703 166.119 105.523 166.304C105.343 166.484 105.088 166.574 104.758 166.574C104.428 166.574 104.173 166.484 103.993 166.304C103.818 166.119 103.73 165.889 103.73 165.614ZM109.94 165.749V167.721H111.372V169.071H109.94V173.601C109.94 173.911 110 174.136 110.12 174.276C110.245 174.411 110.465 174.479 110.78 174.479C110.99 174.479 111.202 174.454 111.417 174.404V175.813C111.002 175.928 110.602 175.986 110.217 175.986C108.817 175.986 108.117 175.213 108.117 173.669V169.071H106.782V167.721H108.117V165.749H109.94ZM117.319 173.631C117.319 173.306 117.184 173.059 116.914 172.889C116.649 172.719 116.207 172.569 115.587 172.439C114.967 172.309 114.449 172.144 114.035 171.944C113.125 171.504 112.67 170.866 112.67 170.031C112.67 169.331 112.965 168.746 113.555 168.276C114.145 167.806 114.894 167.571 115.804 167.571C116.774 167.571 117.557 167.811 118.152 168.291C118.752 168.771 119.052 169.394 119.052 170.159H117.229C117.229 169.809 117.099 169.519 116.839 169.289C116.579 169.054 116.234 168.936 115.804 168.936C115.404 168.936 115.077 169.029 114.822 169.214C114.572 169.399 114.447 169.646 114.447 169.956C114.447 170.236 114.564 170.454 114.799 170.609C115.034 170.764 115.509 170.921 116.224 171.081C116.939 171.236 117.499 171.424 117.904 171.644C118.314 171.859 118.617 172.119 118.812 172.424C119.012 172.729 119.112 173.099 119.112 173.534C119.112 174.264 118.809 174.856 118.204 175.311C117.599 175.761 116.807 175.986 115.827 175.986C115.162 175.986 114.569 175.866 114.05 175.626C113.53 175.386 113.125 175.056 112.835 174.636C112.545 174.216 112.4 173.764 112.4 173.279H114.17C114.195 173.709 114.357 174.041 114.657 174.276C114.957 174.506 115.354 174.621 115.849 174.621C116.329 174.621 116.694 174.531 116.944 174.351C117.194 174.166 117.319 173.926 117.319 173.631ZM131.636 171.861C131.636 173.116 131.351 174.119 130.781 174.868C130.211 175.613 129.446 175.986 128.486 175.986C127.596 175.986 126.884 175.693 126.349 175.108V178.956H124.526V167.721H126.206L126.281 168.546C126.816 167.896 127.544 167.571 128.464 167.571C129.454 167.571 130.228 167.941 130.788 168.681C131.353 169.416 131.636 170.439 131.636 171.749V171.861ZM129.821 171.704C129.821 170.894 129.659 170.251 129.334 169.776C129.014 169.301 128.554 169.064 127.954 169.064C127.209 169.064 126.674 169.371 126.349 169.986V173.586C126.679 174.216 127.219 174.531 127.969 174.531C128.549 174.531 129.001 174.299 129.326 173.834C129.656 173.364 129.821 172.654 129.821 171.704ZM135.123 175.836H133.301V167.721H135.123V175.836ZM133.188 165.614C133.188 165.334 133.276 165.102 133.451 164.917C133.631 164.732 133.886 164.639 134.216 164.639C134.546 164.639 134.801 164.732 134.981 164.917C135.161 165.102 135.251 165.334 135.251 165.614C135.251 165.889 135.161 166.119 134.981 166.304C134.801 166.484 134.546 166.574 134.216 166.574C133.886 166.574 133.631 166.484 133.451 166.304C133.276 166.119 133.188 165.889 133.188 165.614ZM140.448 174.531C140.903 174.531 141.28 174.399 141.58 174.134C141.88 173.869 142.04 173.541 142.06 173.151H143.778C143.758 173.656 143.6 174.129 143.305 174.569C143.01 175.003 142.61 175.348 142.105 175.603C141.6 175.858 141.055 175.986 140.47 175.986C139.335 175.986 138.435 175.618 137.77 174.883C137.106 174.149 136.773 173.134 136.773 171.839V171.651C136.773 170.416 137.103 169.429 137.763 168.689C138.423 167.944 139.323 167.571 140.463 167.571C141.428 167.571 142.213 167.854 142.818 168.419C143.428 168.979 143.748 169.716 143.778 170.631H142.06C142.04 170.166 141.88 169.784 141.58 169.484C141.285 169.184 140.908 169.034 140.448 169.034C139.858 169.034 139.403 169.249 139.083 169.679C138.763 170.104 138.6 170.751 138.595 171.621V171.914C138.595 172.794 138.753 173.451 139.068 173.886C139.388 174.316 139.848 174.531 140.448 174.531ZM147.79 172.356L146.98 173.189V175.836H145.158V164.317H146.98V170.961L147.55 170.249L149.792 167.721H151.982L148.967 171.104L152.305 175.836H150.197L147.79 172.356ZM156.602 175.986C155.447 175.986 154.509 175.623 153.789 174.898C153.074 174.169 152.717 173.199 152.717 171.989V171.764C152.717 170.954 152.872 170.231 153.182 169.596C153.497 168.956 153.937 168.459 154.502 168.104C155.067 167.749 155.697 167.571 156.392 167.571C157.497 167.571 158.349 167.924 158.949 168.629C159.554 169.334 159.857 170.331 159.857 171.621V172.356H154.554C154.609 173.026 154.832 173.556 155.222 173.946C155.617 174.336 156.112 174.531 156.707 174.531C157.542 174.531 158.222 174.194 158.747 173.519L159.729 174.456C159.404 174.941 158.969 175.318 158.424 175.588C157.884 175.853 157.277 175.986 156.602 175.986ZM156.384 169.034C155.884 169.034 155.479 169.209 155.169 169.559C154.864 169.909 154.669 170.396 154.584 171.021H158.057V170.886C158.017 170.276 157.854 169.816 157.569 169.506C157.284 169.191 156.889 169.034 156.384 169.034ZM160.936 171.719C160.936 170.469 161.226 169.466 161.806 168.711C162.386 167.951 163.164 167.571 164.139 167.571C164.999 167.571 165.694 167.871 166.224 168.471V164.317H168.046V175.836H166.396L166.306 174.996C165.761 175.656 165.034 175.986 164.124 175.986C163.174 175.986 162.404 175.603 161.814 174.839C161.229 174.074 160.936 173.034 160.936 171.719ZM162.759 171.876C162.759 172.701 162.916 173.346 163.231 173.811C163.551 174.271 164.004 174.501 164.589 174.501C165.334 174.501 165.879 174.169 166.224 173.504V170.039C165.889 169.389 165.349 169.064 164.604 169.064C164.014 169.064 163.559 169.299 163.239 169.769C162.919 170.234 162.759 170.936 162.759 171.876ZM173.798 171.396C173.798 170.241 173.953 169.146 174.263 168.111C174.573 167.072 175.028 166.144 175.628 165.329C176.228 164.509 176.863 163.934 177.533 163.604L177.893 164.669C177.188 165.204 176.615 166.022 176.176 167.121C175.741 168.216 175.503 169.471 175.463 170.886L175.456 171.531C175.456 173.046 175.668 174.399 176.093 175.588C176.523 176.773 177.123 177.676 177.893 178.296L177.533 179.308C176.863 178.978 176.226 178.401 175.621 177.576C175.021 176.756 174.566 175.831 174.256 174.801C173.951 173.766 173.798 172.631 173.798 171.396ZM181.118 169.544H182.228C182.788 169.539 183.23 169.394 183.555 169.109C183.885 168.824 184.05 168.411 184.05 167.871C184.05 167.351 183.913 166.949 183.638 166.664C183.368 166.374 182.953 166.229 182.393 166.229C181.903 166.229 181.5 166.372 181.185 166.657C180.87 166.937 180.713 167.304 180.713 167.759H178.89C178.89 167.199 179.038 166.689 179.333 166.229C179.633 165.769 180.048 165.412 180.578 165.157C181.113 164.897 181.71 164.767 182.37 164.767C183.46 164.767 184.315 165.042 184.935 165.592C185.56 166.137 185.872 166.897 185.872 167.871C185.872 168.361 185.715 168.824 185.4 169.259C185.09 169.689 184.687 170.014 184.192 170.234C184.792 170.439 185.247 170.761 185.557 171.201C185.872 171.641 186.03 172.166 186.03 172.776C186.03 173.756 185.692 174.536 185.017 175.116C184.347 175.696 183.465 175.986 182.37 175.986C181.32 175.986 180.46 175.706 179.79 175.146C179.12 174.586 178.785 173.841 178.785 172.911H180.608C180.608 173.391 180.768 173.781 181.088 174.081C181.413 174.381 181.848 174.531 182.393 174.531C182.958 174.531 183.403 174.381 183.728 174.081C184.052 173.781 184.215 173.346 184.215 172.776C184.215 172.201 184.045 171.759 183.705 171.449C183.365 171.139 182.86 170.984 182.19 170.984H181.118V169.544ZM195.082 175.836H187.74V174.584L191.377 170.616C191.902 170.031 192.274 169.544 192.494 169.154C192.719 168.759 192.832 168.364 192.832 167.969C192.832 167.449 192.684 167.029 192.389 166.709C192.099 166.389 191.707 166.229 191.212 166.229C190.622 166.229 190.165 166.409 189.84 166.769C189.515 167.129 189.352 167.621 189.352 168.246H187.53C187.53 167.581 187.68 166.984 187.98 166.454C188.285 165.919 188.717 165.504 189.277 165.209C189.842 164.914 190.492 164.767 191.227 164.767C192.287 164.767 193.122 165.034 193.732 165.569C194.347 166.099 194.654 166.834 194.654 167.774C194.654 168.319 194.499 168.891 194.189 169.491C193.884 170.086 193.382 170.764 192.682 171.524L190.012 174.381H195.082V175.836ZM203.586 171.239C203.586 172.809 203.291 173.994 202.701 174.794C202.116 175.588 201.224 175.986 200.024 175.986C198.844 175.986 197.954 175.598 197.354 174.824C196.759 174.044 196.454 172.891 196.439 171.366V169.476C196.439 167.906 196.732 166.729 197.317 165.944C197.907 165.159 198.804 164.767 200.009 164.767C201.204 164.767 202.094 165.149 202.679 165.914C203.269 166.679 203.571 167.824 203.586 169.349V171.239ZM201.764 169.199C201.764 168.174 201.624 167.424 201.344 166.949C201.064 166.469 200.619 166.229 200.009 166.229C199.414 166.229 198.977 166.457 198.697 166.912C198.417 167.361 198.269 168.066 198.254 169.026V171.501C198.254 172.521 198.397 173.281 198.682 173.781C198.967 174.281 199.414 174.531 200.024 174.531C200.609 174.531 201.041 174.301 201.321 173.841C201.601 173.376 201.749 172.651 201.764 171.666V169.199ZM208.828 171.516C208.828 172.626 208.676 173.699 208.371 174.734C208.066 175.763 207.603 176.701 206.984 177.546C206.364 178.396 205.716 178.983 205.041 179.308L204.681 178.296C205.431 177.716 206.024 176.831 206.459 175.641C206.899 174.446 207.119 173.084 207.119 171.554V171.381C207.119 169.991 206.929 168.726 206.549 167.586C206.169 166.442 205.624 165.524 204.914 164.834L204.681 164.624L205.041 163.604C205.681 163.914 206.301 164.464 206.901 165.254C207.501 166.044 207.961 166.929 208.281 167.909C208.601 168.884 208.781 169.891 208.821 170.931L208.828 171.516Z" fill="#65676D"/>
<path d="M373.59 171.342L376.028 164.305H377.258L374.094 172.836H373.098L369.94 164.305H371.165L373.59 171.342ZM379.394 172.836H378.31V166.496H379.394V172.836ZM378.222 164.814C378.222 164.639 378.275 164.49 378.381 164.369C378.49 164.248 378.65 164.188 378.861 164.188C379.072 164.188 379.232 164.248 379.342 164.369C379.451 164.49 379.506 164.639 379.506 164.814C379.506 164.99 379.451 165.137 379.342 165.254C379.232 165.371 379.072 165.43 378.861 165.43C378.65 165.43 378.49 165.371 378.381 165.254C378.275 165.137 378.222 164.99 378.222 164.814ZM383.745 172.953C382.886 172.953 382.186 172.672 381.647 172.109C381.108 171.543 380.839 170.787 380.839 169.842V169.643C380.839 169.014 380.958 168.453 381.196 167.961C381.438 167.465 381.774 167.078 382.204 166.801C382.638 166.52 383.106 166.379 383.61 166.379C384.434 166.379 385.075 166.65 385.532 167.193C385.989 167.736 386.218 168.514 386.218 169.525V169.977H381.923C381.938 170.602 382.12 171.107 382.468 171.494C382.819 171.877 383.264 172.068 383.804 172.068C384.186 172.068 384.511 171.99 384.776 171.834C385.042 171.678 385.274 171.471 385.473 171.213L386.136 171.729C385.604 172.545 384.807 172.953 383.745 172.953ZM383.61 167.27C383.173 167.27 382.806 167.43 382.509 167.75C382.212 168.066 382.028 168.512 381.958 169.086H385.134V169.004C385.102 168.453 384.954 168.027 384.688 167.727C384.423 167.422 384.063 167.27 383.61 167.27ZM393.07 171.342L394.289 166.496H395.373L393.527 172.836H392.648L391.107 168.031L389.607 172.836H388.728L386.889 166.496H387.967L389.215 171.242L390.691 166.496H391.564L393.07 171.342Z" fill="#2F80ED"/>
</g>
<rect width="368" height="43" transform="translate(71 188.672)" fill="white"/>
<path d="M93.3209 206.31V213.607C93.3209 214.767 92.9484 215.687 92.2034 216.367C91.4635 217.042 90.476 217.379 89.2411 217.379C87.9912 217.379 86.9988 217.047 86.2638 216.382C85.5289 215.712 85.1614 214.784 85.1614 213.6V206.31H87.0513V213.615C87.0513 214.344 87.2362 214.902 87.6062 215.287C87.9762 215.672 88.5212 215.864 89.2411 215.864C90.701 215.864 91.431 215.094 91.431 213.555V206.31H93.3209ZM96.8681 209.115L96.9206 210.052C97.5206 209.327 98.308 208.965 99.283 208.965C100.973 208.965 101.833 209.932 101.863 211.867V217.229H100.04V211.972C100.04 211.457 99.9279 211.077 99.7029 210.832C99.483 210.582 99.1205 210.457 98.6155 210.457C97.8806 210.457 97.3331 210.79 96.9731 211.455V217.229H95.1507V209.115H96.8681ZM105.665 217.229H103.843V209.115H105.665V217.229ZM103.73 207.007C103.73 206.727 103.818 206.495 103.993 206.31C104.173 206.125 104.428 206.033 104.758 206.033C105.088 206.033 105.343 206.125 105.523 206.31C105.703 206.495 105.793 206.727 105.793 207.007C105.793 207.282 105.703 207.512 105.523 207.697C105.343 207.877 105.088 207.967 104.758 207.967C104.428 207.967 104.173 207.877 103.993 207.697C103.818 207.512 103.73 207.282 103.73 207.007ZM109.94 207.142V209.115H111.372V210.465H109.94V214.994C109.94 215.304 110 215.529 110.12 215.669C110.245 215.804 110.465 215.872 110.78 215.872C110.99 215.872 111.202 215.847 111.417 215.797V217.207C111.002 217.322 110.602 217.379 110.217 217.379C108.817 217.379 108.117 216.607 108.117 215.062V210.465H106.782V209.115H108.117V207.142H109.94ZM117.319 215.024C117.319 214.699 117.184 214.452 116.914 214.282C116.649 214.112 116.207 213.962 115.587 213.832C114.967 213.702 114.449 213.537 114.035 213.337C113.125 212.897 112.67 212.26 112.67 211.425C112.67 210.725 112.965 210.14 113.555 209.67C114.145 209.2 114.894 208.965 115.804 208.965C116.774 208.965 117.557 209.205 118.152 209.685C118.752 210.165 119.052 210.787 119.052 211.552H117.229C117.229 211.202 117.099 210.912 116.839 210.682C116.579 210.447 116.234 210.33 115.804 210.33C115.404 210.33 115.077 210.422 114.822 210.607C114.572 210.792 114.447 211.04 114.447 211.35C114.447 211.63 114.564 211.847 114.799 212.002C115.034 212.157 115.509 212.315 116.224 212.475C116.939 212.63 117.499 212.817 117.904 213.037C118.314 213.252 118.617 213.512 118.812 213.817C119.012 214.122 119.112 214.492 119.112 214.927C119.112 215.657 118.809 216.249 118.204 216.704C117.599 217.154 116.807 217.379 115.827 217.379C115.162 217.379 114.569 217.259 114.05 217.019C113.53 216.779 113.125 216.449 112.835 216.029C112.545 215.609 112.4 215.157 112.4 214.672H114.17C114.195 215.102 114.357 215.434 114.657 215.669C114.957 215.899 115.354 216.014 115.849 216.014C116.329 216.014 116.694 215.924 116.944 215.744C117.194 215.559 117.319 215.319 117.319 215.024ZM131.636 213.255C131.636 214.509 131.351 215.512 130.781 216.262C130.211 217.007 129.446 217.379 128.486 217.379C127.596 217.379 126.884 217.087 126.349 216.502V220.349H124.526V209.115H126.206L126.281 209.94C126.816 209.29 127.544 208.965 128.464 208.965C129.454 208.965 130.228 209.335 130.788 210.075C131.353 210.81 131.636 211.832 131.636 213.142V213.255ZM129.821 213.097C129.821 212.287 129.659 211.645 129.334 211.17C129.014 210.695 128.554 210.457 127.954 210.457C127.209 210.457 126.674 210.765 126.349 211.38V214.979C126.679 215.609 127.219 215.924 127.969 215.924C128.549 215.924 129.001 215.692 129.326 215.227C129.656 214.757 129.821 214.047 129.821 213.097ZM136.758 217.379C135.603 217.379 134.666 217.017 133.946 216.292C133.231 215.562 132.873 214.592 132.873 213.382V213.157C132.873 212.347 133.028 211.625 133.338 210.99C133.653 210.35 134.093 209.852 134.658 209.497C135.223 209.142 135.853 208.965 136.548 208.965C137.653 208.965 138.505 209.317 139.105 210.022C139.71 210.727 140.013 211.725 140.013 213.015V213.75H134.711C134.766 214.419 134.988 214.949 135.378 215.339C135.773 215.729 136.268 215.924 136.863 215.924C137.698 215.924 138.378 215.587 138.903 214.912L139.885 215.849C139.56 216.334 139.125 216.712 138.58 216.982C138.04 217.247 137.433 217.379 136.758 217.379ZM136.541 210.427C136.041 210.427 135.636 210.602 135.326 210.952C135.021 211.302 134.826 211.79 134.741 212.415H138.213V212.28C138.173 211.67 138.01 211.21 137.725 210.9C137.441 210.585 137.046 210.427 136.541 210.427ZM143.125 209.115L143.178 210.052C143.778 209.327 144.565 208.965 145.54 208.965C147.23 208.965 148.09 209.932 148.12 211.867V217.229H146.297V211.972C146.297 211.457 146.185 211.077 145.96 210.832C145.74 210.582 145.377 210.457 144.873 210.457C144.138 210.457 143.59 210.79 143.23 211.455V217.229H141.408V209.115H143.125ZM149.642 213.112C149.642 211.862 149.932 210.86 150.512 210.105C151.092 209.345 151.87 208.965 152.845 208.965C153.704 208.965 154.399 209.265 154.929 209.865V205.71H156.752V217.229H155.102L155.012 216.389C154.467 217.049 153.739 217.379 152.83 217.379C151.88 217.379 151.11 216.997 150.52 216.232C149.935 215.467 149.642 214.427 149.642 213.112ZM151.465 213.27C151.465 214.095 151.622 214.739 151.937 215.204C152.257 215.664 152.71 215.894 153.294 215.894C154.039 215.894 154.584 215.562 154.929 214.897V211.432C154.594 210.782 154.054 210.457 153.309 210.457C152.72 210.457 152.265 210.692 151.945 211.162C151.625 211.627 151.465 212.33 151.465 213.27ZM160.592 217.229H158.769V209.115H160.592V217.229ZM158.657 207.007C158.657 206.727 158.744 206.495 158.919 206.31C159.099 206.125 159.354 206.033 159.684 206.033C160.014 206.033 160.269 206.125 160.449 206.31C160.629 206.495 160.719 206.727 160.719 207.007C160.719 207.282 160.629 207.512 160.449 207.697C160.269 207.877 160.014 207.967 159.684 207.967C159.354 207.967 159.099 207.877 158.919 207.697C158.744 207.512 158.657 207.282 158.657 207.007ZM164.274 209.115L164.326 210.052C164.926 209.327 165.714 208.965 166.689 208.965C168.379 208.965 169.238 209.932 169.268 211.867V217.229H167.446V211.972C167.446 211.457 167.334 211.077 167.109 210.832C166.889 210.582 166.526 210.457 166.021 210.457C165.286 210.457 164.739 210.79 164.379 211.455V217.229H162.556V209.115H164.274ZM170.813 213.112C170.813 211.852 171.108 210.847 171.698 210.097C172.293 209.342 173.081 208.965 174.061 208.965C174.986 208.965 175.713 209.287 176.243 209.932L176.325 209.115H177.968V216.982C177.968 218.047 177.635 218.887 176.97 219.502C176.31 220.117 175.418 220.424 174.293 220.424C173.698 220.424 173.116 220.299 172.546 220.049C171.981 219.804 171.551 219.482 171.256 219.082L172.118 217.987C172.678 218.652 173.368 218.984 174.188 218.984C174.793 218.984 175.271 218.819 175.621 218.489C175.971 218.164 176.146 217.684 176.146 217.049V216.502C175.621 217.087 174.921 217.379 174.046 217.379C173.096 217.379 172.318 217.002 171.713 216.247C171.113 215.492 170.813 214.447 170.813 213.112ZM172.628 213.27C172.628 214.085 172.793 214.727 173.123 215.197C173.458 215.662 173.921 215.894 174.511 215.894C175.246 215.894 175.791 215.579 176.146 214.949V211.38C175.801 210.765 175.261 210.457 174.526 210.457C173.926 210.457 173.458 210.695 173.123 211.17C172.793 211.645 172.628 212.345 172.628 213.27ZM183.698 212.79C183.698 211.635 183.853 210.54 184.162 209.505C184.472 208.465 184.927 207.537 185.527 206.722C186.127 205.903 186.762 205.328 187.432 204.998L187.792 206.063C187.087 206.597 186.515 207.415 186.075 208.515C185.64 209.61 185.402 210.865 185.362 212.28L185.355 212.925C185.355 214.439 185.567 215.792 185.992 216.982C186.422 218.167 187.022 219.069 187.792 219.689L187.432 220.702C186.762 220.372 186.125 219.794 185.52 218.969C184.92 218.149 184.465 217.224 184.155 216.194C183.85 215.159 183.698 214.025 183.698 212.79ZM195.787 209.19C195.787 209.725 195.649 210.202 195.374 210.622C195.099 211.037 194.724 211.365 194.249 211.605C194.819 211.87 195.257 212.232 195.562 212.692C195.872 213.152 196.027 213.672 196.027 214.252C196.027 215.212 195.702 215.974 195.052 216.539C194.402 217.099 193.537 217.379 192.457 217.379C191.372 217.379 190.502 217.097 189.847 216.532C189.197 215.967 188.872 215.207 188.872 214.252C188.872 213.667 189.027 213.142 189.337 212.677C189.647 212.212 190.082 211.855 190.642 211.605C190.172 211.365 189.8 211.037 189.525 210.622C189.255 210.202 189.12 209.725 189.12 209.19C189.12 208.26 189.42 207.522 190.02 206.977C190.62 206.433 191.43 206.16 192.449 206.16C193.474 206.16 194.287 206.433 194.887 206.977C195.487 207.522 195.787 208.26 195.787 209.19ZM194.204 214.162C194.204 213.622 194.042 213.187 193.717 212.857C193.397 212.522 192.972 212.355 192.442 212.355C191.912 212.355 191.487 212.52 191.167 212.85C190.852 213.18 190.695 213.617 190.695 214.162C190.695 214.697 190.85 215.124 191.16 215.444C191.475 215.764 191.907 215.924 192.457 215.924C193.007 215.924 193.434 215.769 193.739 215.459C194.049 215.149 194.204 214.717 194.204 214.162ZM193.972 209.257C193.972 208.782 193.834 208.392 193.559 208.087C193.284 207.777 192.914 207.622 192.449 207.622C191.984 207.622 191.617 207.77 191.347 208.065C191.077 208.355 190.942 208.752 190.942 209.257C190.942 209.757 191.077 210.155 191.347 210.45C191.622 210.745 191.992 210.892 192.457 210.892C192.922 210.892 193.289 210.745 193.559 210.45C193.834 210.155 193.972 209.757 193.972 209.257ZM201.269 212.91C201.269 214.02 201.116 215.092 200.811 216.127C200.506 217.157 200.044 218.094 199.424 218.939C198.804 219.789 198.157 220.377 197.482 220.702L197.122 219.689C197.872 219.109 198.464 218.224 198.899 217.034C199.339 215.839 199.559 214.477 199.559 212.947V212.775C199.559 211.385 199.369 210.12 198.989 208.98C198.609 207.835 198.064 206.917 197.354 206.228L197.122 206.018L197.482 204.998C198.122 205.308 198.742 205.858 199.342 206.647C199.941 207.437 200.401 208.322 200.721 209.302C201.041 210.277 201.221 211.285 201.261 212.325L201.269 212.91Z" fill="#65676D"/>
<path d="M373.59 212.678L376.028 205.641H377.258L374.094 214.172H373.098L369.94 205.641H371.165L373.59 212.678ZM379.394 214.172H378.31V207.832H379.394V214.172ZM378.222 206.15C378.222 205.975 378.275 205.826 378.381 205.705C378.49 205.584 378.65 205.523 378.861 205.523C379.072 205.523 379.232 205.584 379.342 205.705C379.451 205.826 379.506 205.975 379.506 206.15C379.506 206.326 379.451 206.473 379.342 206.59C379.232 206.707 379.072 206.766 378.861 206.766C378.65 206.766 378.49 206.707 378.381 206.59C378.275 206.473 378.222 206.326 378.222 206.15ZM383.745 214.289C382.886 214.289 382.186 214.008 381.647 213.445C381.108 212.879 380.839 212.123 380.839 211.178V210.979C380.839 210.35 380.958 209.789 381.196 209.297C381.438 208.801 381.774 208.414 382.204 208.137C382.638 207.855 383.106 207.715 383.61 207.715C384.434 207.715 385.075 207.986 385.532 208.529C385.989 209.072 386.218 209.85 386.218 210.861V211.312H381.923C381.938 211.938 382.12 212.443 382.468 212.83C382.819 213.213 383.264 213.404 383.804 213.404C384.186 213.404 384.511 213.326 384.776 213.17C385.042 213.014 385.274 212.807 385.473 212.549L386.136 213.064C385.604 213.881 384.807 214.289 383.745 214.289ZM383.61 208.605C383.173 208.605 382.806 208.766 382.509 209.086C382.212 209.402 382.028 209.848 381.958 210.422H385.134V210.34C385.102 209.789 384.954 209.363 384.688 209.062C384.423 208.758 384.063 208.605 383.61 208.605ZM393.07 212.678L394.289 207.832H395.373L393.527 214.172H392.648L391.107 209.367L389.607 214.172H388.728L386.889 207.832H387.967L389.215 212.578L390.691 207.832H391.564L393.07 212.678Z" fill="#2F80ED"/>
<rect width="337" height="43" transform="translate(102 301)" fill="white"/>
<path d="M122.446 327.015H118.216L117.331 329.557H115.359L119.484 318.638H121.186L125.318 329.557H123.338L122.446 327.015ZM118.749 325.485H121.914L120.331 320.955L118.749 325.485ZM126.046 325.44C126.046 324.19 126.336 323.188 126.916 322.433C127.496 321.673 128.273 321.293 129.248 321.293C130.108 321.293 130.803 321.593 131.333 322.193V318.038H133.155V329.557H131.505L131.415 328.717C130.87 329.377 130.143 329.707 129.233 329.707C128.283 329.707 127.513 329.325 126.923 328.56C126.338 327.795 126.046 326.755 126.046 325.44ZM127.868 325.598C127.868 326.423 128.026 327.068 128.341 327.533C128.661 327.993 129.113 328.223 129.698 328.223C130.443 328.223 130.988 327.89 131.333 327.225V323.76C130.998 323.11 130.458 322.785 129.713 322.785C129.123 322.785 128.668 323.02 128.348 323.49C128.028 323.955 127.868 324.658 127.868 325.598ZM134.715 325.44C134.715 324.19 135.005 323.188 135.585 322.433C136.165 321.673 136.943 321.293 137.917 321.293C138.777 321.293 139.472 321.593 140.002 322.193V318.038H141.825V329.557H140.175L140.085 328.717C139.54 329.377 138.812 329.707 137.902 329.707C136.953 329.707 136.183 329.325 135.593 328.56C135.008 327.795 134.715 326.755 134.715 325.44ZM136.538 325.598C136.538 326.423 136.695 327.068 137.01 327.533C137.33 327.993 137.782 328.223 138.367 328.223C139.112 328.223 139.657 327.89 140.002 327.225V323.76C139.667 323.11 139.127 322.785 138.382 322.785C137.792 322.785 137.338 323.02 137.018 323.49C136.698 323.955 136.538 324.658 136.538 325.598ZM152.399 329.557C152.319 329.402 152.249 329.15 152.189 328.8C151.609 329.405 150.899 329.707 150.059 329.707C149.244 329.707 148.579 329.475 148.064 329.01C147.549 328.545 147.292 327.97 147.292 327.285C147.292 326.42 147.612 325.758 148.252 325.298C148.897 324.833 149.817 324.6 151.012 324.6H152.129V324.068C152.129 323.648 152.012 323.313 151.777 323.063C151.542 322.808 151.184 322.68 150.704 322.68C150.289 322.68 149.949 322.785 149.684 322.995C149.419 323.2 149.287 323.463 149.287 323.783H147.464C147.464 323.338 147.612 322.923 147.907 322.538C148.202 322.148 148.602 321.843 149.107 321.623C149.617 321.403 150.184 321.293 150.809 321.293C151.759 321.293 152.517 321.533 153.081 322.013C153.646 322.488 153.936 323.158 153.951 324.023V327.683C153.951 328.413 154.054 328.995 154.259 329.43V329.557H152.399ZM150.397 328.245C150.757 328.245 151.094 328.158 151.409 327.983C151.729 327.808 151.969 327.573 152.129 327.278V325.748H151.147C150.472 325.748 149.964 325.865 149.624 326.1C149.284 326.335 149.114 326.668 149.114 327.098C149.114 327.448 149.229 327.728 149.459 327.938C149.694 328.143 150.007 328.245 150.397 328.245ZM161.623 329.557H159.801V318.038H161.623V329.557ZM167.188 329.707C166.033 329.707 165.096 329.345 164.376 328.62C163.661 327.89 163.303 326.92 163.303 325.71V325.485C163.303 324.675 163.458 323.953 163.768 323.318C164.083 322.678 164.523 322.18 165.088 321.825C165.653 321.47 166.283 321.293 166.978 321.293C168.083 321.293 168.935 321.645 169.535 322.35C170.14 323.055 170.443 324.053 170.443 325.343V326.078H165.141C165.196 326.748 165.418 327.278 165.808 327.668C166.203 328.058 166.698 328.253 167.293 328.253C168.128 328.253 168.808 327.915 169.333 327.24L170.315 328.178C169.99 328.662 169.555 329.04 169.01 329.31C168.471 329.575 167.863 329.707 167.188 329.707ZM166.971 322.755C166.471 322.755 166.066 322.93 165.756 323.28C165.451 323.63 165.256 324.118 165.171 324.743H168.643V324.608C168.603 323.998 168.441 323.538 168.156 323.228C167.871 322.913 167.476 322.755 166.971 322.755ZM175.198 328.253C175.653 328.253 176.03 328.12 176.33 327.855C176.63 327.59 176.79 327.263 176.81 326.873H178.527C178.507 327.378 178.35 327.85 178.055 328.29C177.76 328.725 177.36 329.07 176.855 329.325C176.35 329.58 175.805 329.707 175.22 329.707C174.085 329.707 173.185 329.34 172.52 328.605C171.855 327.87 171.523 326.855 171.523 325.56V325.373C171.523 324.138 171.853 323.15 172.513 322.41C173.173 321.665 174.073 321.293 175.213 321.293C176.178 321.293 176.962 321.575 177.567 322.14C178.177 322.7 178.497 323.438 178.527 324.353H176.81C176.79 323.888 176.63 323.505 176.33 323.205C176.035 322.905 175.658 322.755 175.198 322.755C174.608 322.755 174.153 322.97 173.833 323.4C173.513 323.825 173.35 324.473 173.345 325.343V325.635C173.345 326.515 173.503 327.173 173.818 327.608C174.138 328.038 174.598 328.253 175.198 328.253ZM182.187 319.471V321.443H183.62V322.793H182.187V327.323C182.187 327.633 182.247 327.858 182.367 327.998C182.492 328.133 182.712 328.2 183.027 328.2C183.237 328.2 183.45 328.175 183.665 328.125V329.535C183.25 329.65 182.85 329.707 182.465 329.707C181.065 329.707 180.365 328.935 180.365 327.39V322.793H179.03V321.443H180.365V319.471H182.187ZM189.934 328.762C189.399 329.392 188.639 329.707 187.654 329.707C186.774 329.707 186.107 329.45 185.652 328.935C185.202 328.42 184.977 327.675 184.977 326.7V321.443H186.799V326.678C186.799 327.708 187.227 328.223 188.082 328.223C188.967 328.223 189.564 327.905 189.874 327.27V321.443H191.697V329.557H189.979L189.934 328.762ZM197.801 323.108C197.561 323.068 197.314 323.048 197.059 323.048C196.224 323.048 195.661 323.368 195.371 324.008V329.557H193.549V321.443H195.289L195.334 322.35C195.774 321.645 196.384 321.293 197.164 321.293C197.424 321.293 197.639 321.328 197.809 321.398L197.801 323.108ZM202.376 329.707C201.221 329.707 200.283 329.345 199.563 328.62C198.849 327.89 198.491 326.92 198.491 325.71V325.485C198.491 324.675 198.646 323.953 198.956 323.318C199.271 322.678 199.711 322.18 200.276 321.825C200.841 321.47 201.471 321.293 202.166 321.293C203.271 321.293 204.123 321.645 204.723 322.35C205.328 323.055 205.631 324.053 205.631 325.343V326.078H200.328C200.383 326.748 200.606 327.278 200.996 327.668C201.391 328.058 201.886 328.253 202.481 328.253C203.316 328.253 203.996 327.915 204.521 327.24L205.503 328.178C205.178 328.662 204.743 329.04 204.198 329.31C203.658 329.575 203.051 329.707 202.376 329.707ZM202.158 322.755C201.658 322.755 201.253 322.93 200.943 323.28C200.638 323.63 200.443 324.118 200.358 324.743H203.831V324.608C203.791 323.998 203.628 323.538 203.343 323.228C203.058 322.913 202.663 322.755 202.158 322.755ZM211.3 323.108C211.06 323.068 210.813 323.048 210.558 323.048C209.723 323.048 209.16 323.368 208.87 324.008V329.557H207.048V321.443H208.788L208.833 322.35C209.273 321.645 209.883 321.293 210.663 321.293C210.923 321.293 211.138 321.328 211.308 321.398L211.3 323.108Z" fill="#65676D"/>
<path d="M375.477 324.273H371.903L371.1 326.5H369.94L373.198 317.969H374.182L377.446 326.5H376.292L375.477 324.273ZM372.243 323.348H375.143L373.69 319.357L372.243 323.348ZM378.14 323.277C378.14 322.305 378.371 321.523 378.832 320.934C379.293 320.34 379.896 320.043 380.642 320.043C381.385 320.043 381.972 320.297 382.406 320.805V317.5H383.49V326.5H382.494L382.441 325.82C382.008 326.352 381.404 326.617 380.631 326.617C379.896 326.617 379.297 326.316 378.832 325.715C378.371 325.113 378.14 324.328 378.14 323.359V323.277ZM379.224 323.4C379.224 324.119 379.373 324.682 379.67 325.088C379.967 325.494 380.377 325.697 380.9 325.697C381.588 325.697 382.09 325.389 382.406 324.771V321.859C382.082 321.262 381.584 320.963 380.912 320.963C380.381 320.963 379.967 321.168 379.67 321.578C379.373 321.988 379.224 322.596 379.224 323.4ZM384.893 323.277C384.893 322.305 385.124 321.523 385.585 320.934C386.046 320.34 386.649 320.043 387.395 320.043C388.138 320.043 388.725 320.297 389.159 320.805V317.5H390.243V326.5H389.247L389.194 325.82C388.761 326.352 388.157 326.617 387.384 326.617C386.649 326.617 386.05 326.316 385.585 325.715C385.124 325.113 384.893 324.328 384.893 323.359V323.277ZM385.977 323.4C385.977 324.119 386.126 324.682 386.423 325.088C386.72 325.494 387.13 325.697 387.653 325.697C388.341 325.697 388.843 325.389 389.159 324.771V321.859C388.835 321.262 388.337 320.963 387.665 320.963C387.134 320.963 386.72 321.168 386.423 321.578C386.126 321.988 385.977 322.596 385.977 323.4Z" fill="#2F80ED"/>
<g filter="url(#filter1_d)">
<path d="M72 731H211H291H431C435.418 731 439 734.582 439 739V804C439 808.418 435.418 812 431 812H72C67.5817 812 64 808.418 64 804V739C64 734.582 67.5817 731 72 731Z" fill="white"/>
</g>
<rect opacity="0.34" x="179" y="794" width="134" height="5" rx="2.5" fill="#137D4E"/>
<path fill-rule="evenodd" clip-rule="evenodd" d="M231.812 759.938C231.812 759.788 231.872 759.645 231.977 759.54C232.083 759.434 232.226 759.375 232.375 759.375H243.625C243.774 759.375 243.917 759.434 244.023 759.54C244.128 759.645 244.188 759.788 244.188 759.938C244.188 760.087 244.128 760.23 244.023 760.335C243.917 760.441 243.774 760.5 243.625 760.5H232.375C232.226 760.5 232.083 760.441 231.977 760.335C231.872 760.23 231.812 760.087 231.812 759.938ZM231.812 755.438C231.812 755.288 231.872 755.145 231.977 755.04C232.083 754.934 232.226 754.875 232.375 754.875H243.625C243.774 754.875 243.917 754.934 244.023 755.04C244.128 755.145 244.188 755.288 244.188 755.438C244.188 755.587 244.128 755.73 244.023 755.835C243.917 755.941 243.774 756 243.625 756H232.375C232.226 756 232.083 755.941 231.977 755.835C231.872 755.73 231.812 755.587 231.812 755.438ZM231.812 750.938C231.812 750.788 231.872 750.645 231.977 750.54C232.083 750.434 232.226 750.375 232.375 750.375H243.625C243.774 750.375 243.917 750.434 244.023 750.54C244.128 750.645 244.188 750.788 244.188 750.938C244.188 751.087 244.128 751.23 244.023 751.335C243.917 751.441 243.774 751.5 243.625 751.5H232.375C232.226 751.5 232.083 751.441 231.977 751.335C231.872 751.23 231.812 751.087 231.812 750.938Z" fill="#007AFF"/>
<path d="M230.136 772.765V778.848C230.136 779.858 229.819 780.658 229.185 781.245C228.555 781.833 227.692 782.127 226.597 782.127C225.519 782.127 224.663 781.841 224.029 781.271C223.394 780.7 223.071 779.915 223.058 778.918V772.765H224.961V778.86C224.961 779.465 225.105 779.907 225.392 780.186C225.684 780.461 226.086 780.598 226.597 780.598C227.667 780.598 228.21 780.036 228.227 778.911V772.765H230.136ZM233.263 775.137L233.32 775.93C233.811 775.317 234.468 775.011 235.293 775.011C236.02 775.011 236.561 775.224 236.916 775.651C237.272 776.078 237.453 776.717 237.462 777.567V782H235.629V777.611C235.629 777.222 235.544 776.941 235.375 776.767C235.206 776.59 234.925 776.501 234.532 776.501C234.016 776.501 233.629 776.721 233.371 777.161V782H231.538V775.137H233.263ZM240.792 782H238.952V775.137H240.792V782ZM238.845 773.362C238.845 773.087 238.936 772.86 239.117 772.683C239.303 772.505 239.555 772.416 239.872 772.416C240.185 772.416 240.434 772.505 240.621 772.683C240.807 772.86 240.9 773.087 240.9 773.362C240.9 773.641 240.804 773.869 240.614 774.047C240.428 774.224 240.181 774.313 239.872 774.313C239.563 774.313 239.314 774.224 239.124 774.047C238.938 773.869 238.845 773.641 238.845 773.362ZM244.502 773.45V775.137H245.675V776.482H244.502V779.907C244.502 780.161 244.551 780.342 244.648 780.452C244.745 780.562 244.931 780.617 245.206 780.617C245.409 780.617 245.589 780.603 245.745 780.573V781.962C245.386 782.072 245.016 782.127 244.635 782.127C243.35 782.127 242.695 781.478 242.669 780.18V776.482H241.667V775.137H242.669V773.45H244.502ZM250.413 780.104C250.413 779.879 250.301 779.704 250.077 779.577C249.857 779.446 249.502 779.33 249.012 779.228C247.379 778.886 246.563 778.192 246.563 777.148C246.563 776.539 246.815 776.032 247.318 775.626C247.826 775.216 248.487 775.011 249.303 775.011C250.174 775.011 250.87 775.216 251.39 775.626C251.914 776.036 252.177 776.569 252.177 777.224H250.344C250.344 776.962 250.259 776.746 250.09 776.577C249.921 776.404 249.656 776.317 249.297 776.317C248.988 776.317 248.749 776.387 248.58 776.526C248.411 776.666 248.327 776.844 248.327 777.059C248.327 777.262 248.422 777.427 248.612 777.554C248.807 777.677 249.132 777.784 249.589 777.877C250.045 777.966 250.43 778.068 250.743 778.182C251.711 778.537 252.196 779.152 252.196 780.027C252.196 780.653 251.927 781.161 251.39 781.55C250.853 781.934 250.16 782.127 249.31 782.127C248.735 782.127 248.223 782.025 247.775 781.822C247.331 781.615 246.982 781.334 246.728 780.979C246.475 780.619 246.348 780.233 246.348 779.818H248.086C248.103 780.144 248.223 780.393 248.447 780.567C248.671 780.74 248.971 780.827 249.348 780.827C249.699 780.827 249.963 780.761 250.141 780.63C250.322 780.495 250.413 780.319 250.413 780.104Z" fill="#007AFF"/>
<path d="M126.677 754.764L120.471 749.055C120.269 748.869 120.004 748.769 119.73 748.774C119.456 748.78 119.194 748.891 119.001 749.085L113.293 754.793L113 755.086V763.5H118.5V758.25H121.5V763.5H127V755.061L126.677 754.764ZM119.751 749.774C119.76 749.774 119.755 749.776 119.751 749.78C119.747 749.776 119.742 749.774 119.751 749.774ZM126 762.5H122.5V758.25C122.5 757.985 122.395 757.73 122.207 757.543C122.02 757.355 121.765 757.25 121.5 757.25H118.5C118.235 757.25 117.98 757.355 117.793 757.543C117.605 757.73 117.5 757.985 117.5 758.25V762.5H114V755.5L119.751 749.792C119.752 749.792 119.752 749.792 119.752 749.791L126 755.5V762.5Z" fill="#A4A4A4"/>
<path d="M110.437 782H108.534V778.042H104.823V782H102.921V772.765H104.823V776.507H108.534V772.765H110.437V782ZM111.699 778.505C111.699 777.825 111.83 777.218 112.092 776.685C112.354 776.152 112.73 775.74 113.221 775.448C113.716 775.156 114.289 775.011 114.94 775.011C115.866 775.011 116.621 775.294 117.204 775.86C117.792 776.427 118.119 777.197 118.187 778.169L118.2 778.638C118.2 779.691 117.906 780.537 117.318 781.175C116.73 781.81 115.942 782.127 114.952 782.127C113.963 782.127 113.172 781.81 112.58 781.175C111.993 780.541 111.699 779.679 111.699 778.588V778.505ZM113.532 778.638C113.532 779.29 113.654 779.789 113.9 780.135C114.145 780.478 114.496 780.649 114.952 780.649C115.396 780.649 115.743 780.48 115.993 780.142C116.242 779.799 116.367 779.254 116.367 778.505C116.367 777.867 116.242 777.372 115.993 777.021C115.743 776.67 115.392 776.495 114.94 776.495C114.492 776.495 114.145 776.67 113.9 777.021C113.654 777.368 113.532 777.907 113.532 778.638ZM121.048 775.137L121.105 775.905C121.591 775.309 122.248 775.011 123.077 775.011C123.961 775.011 124.568 775.359 124.897 776.057C125.379 775.359 126.067 775.011 126.959 775.011C127.703 775.011 128.257 775.228 128.621 775.664C128.984 776.095 129.166 776.746 129.166 777.617V782H127.327V777.624C127.327 777.235 127.251 776.951 127.098 776.774C126.946 776.592 126.678 776.501 126.293 776.501C125.743 776.501 125.363 776.763 125.151 777.288L125.158 782H123.325V777.63C123.325 777.233 123.246 776.945 123.09 776.767C122.933 776.59 122.667 776.501 122.291 776.501C121.771 776.501 121.394 776.717 121.162 777.148V782H119.329V775.137H121.048ZM133.739 782.127C132.733 782.127 131.912 781.818 131.278 781.201C130.648 780.584 130.333 779.761 130.333 778.734V778.556C130.333 777.867 130.466 777.252 130.733 776.71C130.999 776.165 131.375 775.746 131.862 775.455C132.352 775.159 132.91 775.011 133.536 775.011C134.475 775.011 135.212 775.307 135.749 775.899C136.291 776.49 136.561 777.33 136.561 778.416V779.165H132.191C132.251 779.613 132.428 779.973 132.724 780.243C133.024 780.514 133.403 780.649 133.859 780.649C134.566 780.649 135.117 780.393 135.515 779.882L136.415 780.89C136.141 781.279 135.769 781.584 135.299 781.803C134.83 782.019 134.31 782.127 133.739 782.127ZM133.53 776.495C133.166 776.495 132.87 776.617 132.642 776.863C132.418 777.108 132.274 777.459 132.21 777.915H134.76V777.77C134.752 777.364 134.642 777.051 134.43 776.831C134.219 776.607 133.919 776.495 133.53 776.495Z" fill="#A4A4A4"/>
<path d="M372 747C375.314 747 378 749.686 378 753" stroke="#A4A4A4" stroke-width="1.5" stroke-linecap="round" stroke-linejoin="round"/>
<path d="M378 753V757" stroke="#A4A4A4" stroke-width="1.5" stroke-linecap="round" stroke-linejoin="round"/>
<path d="M372 747C368.686 747 366 749.686 366 753" stroke="#A4A4A4" stroke-width="1.5" stroke-linecap="round" stroke-linejoin="round"/>
<path d="M366 753V757" stroke="#A4A4A4" stroke-width="1.5" stroke-linecap="round" stroke-linejoin="round"/>
<path d="M378 757C378 757.986 378.447 758.919 379.216 759.537" stroke="#A4A4A4" stroke-width="1.5" stroke-linecap="round" stroke-linejoin="round"/>
<path d="M366 757C366 757.986 365.553 758.919 364.784 759.537" stroke="#A4A4A4" stroke-width="1.5" stroke-linecap="round" stroke-linejoin="round"/>
<path d="M364.784 759.537L364.475 759.785C363.559 760.521 364.08 762 365.255 762H378.745C379.92 762 380.441 760.521 379.525 759.785L379.216 759.537" stroke="#A4A4A4" stroke-width="1.5" stroke-linecap="round" stroke-linejoin="round"/>
<path d="M370.5 765H373.5" stroke="#A4A4A4" stroke-width="1.5" stroke-linecap="round" stroke-linejoin="round"/>
<path d="M346.104 782H344.201L340.497 775.924V782H338.594V772.765H340.497L344.207 778.854V772.765H346.104V782ZM347.359 778.505C347.359 777.825 347.49 777.218 347.753 776.685C348.015 776.152 348.391 775.74 348.882 775.448C349.376 775.156 349.949 775.011 350.6 775.011C351.526 775.011 352.281 775.294 352.865 775.86C353.452 776.427 353.78 777.197 353.848 778.169L353.86 778.638C353.86 779.691 353.567 780.537 352.979 781.175C352.391 781.81 351.603 782.127 350.613 782.127C349.624 782.127 348.833 781.81 348.241 781.175C347.653 780.541 347.359 779.679 347.359 778.588V778.505ZM349.192 778.638C349.192 779.29 349.315 779.789 349.56 780.135C349.805 780.478 350.156 780.649 350.613 780.649C351.057 780.649 351.404 780.48 351.653 780.142C351.903 779.799 352.027 779.254 352.027 778.505C352.027 777.867 351.903 777.372 351.653 777.021C351.404 776.67 351.053 776.495 350.6 776.495C350.152 776.495 349.805 776.67 349.56 777.021C349.315 777.368 349.192 777.907 349.192 778.638ZM357.184 773.45V775.137H358.357V776.482H357.184V779.907C357.184 780.161 357.233 780.342 357.33 780.452C357.427 780.562 357.613 780.617 357.888 780.617C358.091 780.617 358.271 780.603 358.427 780.573V781.962C358.068 782.072 357.698 782.127 357.317 782.127C356.032 782.127 355.376 781.478 355.351 780.18V776.482H354.349V775.137H355.351V773.45H357.184ZM361.313 782H359.474V775.137H361.313V782ZM359.366 773.362C359.366 773.087 359.457 772.86 359.638 772.683C359.825 772.505 360.076 772.416 360.393 772.416C360.706 772.416 360.956 772.505 361.142 772.683C361.328 772.86 361.421 773.087 361.421 773.362C361.421 773.641 361.326 773.869 361.135 774.047C360.949 774.224 360.702 774.313 360.393 774.313C360.085 774.313 359.835 774.224 359.645 774.047C359.459 773.869 359.366 773.641 359.366 773.362ZM363.273 782V776.482H362.252V775.137H363.273V774.82C363.281 773.958 363.545 773.294 364.066 772.829C364.59 772.359 365.328 772.125 366.279 772.125C366.85 772.125 367.543 772.249 368.359 772.499L368.093 774.015C367.679 773.892 367.357 773.814 367.129 773.78C366.901 773.742 366.655 773.723 366.393 773.723C365.539 773.723 365.112 774.101 365.112 774.858V775.137H366.463V776.482H365.112V782H363.273ZM369.216 782H367.376V775.137H369.216V782ZM373.586 780.649C373.924 780.649 374.199 780.556 374.41 780.37C374.622 780.184 374.732 779.937 374.74 779.628H376.459C376.455 780.093 376.328 780.52 376.078 780.909C375.829 781.294 375.486 781.594 375.051 781.81C374.619 782.021 374.142 782.127 373.617 782.127C372.636 782.127 371.863 781.816 371.296 781.195C370.729 780.569 370.446 779.706 370.446 778.607V778.486C370.446 777.429 370.727 776.586 371.29 775.956C371.852 775.326 372.624 775.011 373.605 775.011C374.463 775.011 375.15 775.256 375.666 775.746C376.186 776.233 376.45 776.882 376.459 777.693H374.74C374.732 777.338 374.622 777.051 374.41 776.831C374.199 776.607 373.92 776.495 373.573 776.495C373.146 776.495 372.822 776.651 372.603 776.964C372.387 777.273 372.279 777.776 372.279 778.474V778.664C372.279 779.37 372.387 779.877 372.603 780.186C372.818 780.495 373.146 780.649 373.586 780.649ZM381.482 782C381.397 781.835 381.336 781.63 381.298 781.385C380.854 781.879 380.277 782.127 379.567 782.127C378.894 782.127 378.336 781.932 377.892 781.543C377.452 781.154 377.233 780.664 377.233 780.072C377.233 779.345 377.501 778.786 378.038 778.397C378.579 778.008 379.359 777.812 380.378 777.808H381.222V777.414C381.222 777.097 381.14 776.844 380.975 776.653C380.814 776.463 380.558 776.368 380.207 776.368C379.899 776.368 379.655 776.442 379.478 776.59C379.304 776.738 379.218 776.941 379.218 777.199H377.385C377.385 776.801 377.507 776.433 377.753 776.095C377.998 775.757 378.345 775.493 378.793 775.302C379.241 775.108 379.744 775.011 380.302 775.011C381.148 775.011 381.818 775.224 382.313 775.651C382.812 776.074 383.061 776.67 383.061 777.44V780.414C383.066 781.066 383.156 781.558 383.334 781.892V782H381.482ZM379.966 780.725C380.237 780.725 380.486 780.666 380.715 780.548C380.943 780.425 381.112 780.262 381.222 780.059V778.879H380.537C379.619 778.879 379.131 779.197 379.072 779.831L379.066 779.939C379.066 780.167 379.146 780.355 379.307 780.503C379.467 780.651 379.687 780.725 379.966 780.725ZM386.664 773.45V775.137H387.837V776.482H386.664V779.907C386.664 780.161 386.712 780.342 386.81 780.452C386.907 780.562 387.093 780.617 387.368 780.617C387.571 780.617 387.751 780.603 387.907 780.573V781.962C387.548 782.072 387.178 782.127 386.797 782.127C385.512 782.127 384.856 781.478 384.831 780.18V776.482H383.829V775.137H384.831V773.45H386.664ZM390.793 782H388.953V775.137H390.793V782ZM388.846 773.362C388.846 773.087 388.937 772.86 389.118 772.683C389.304 772.505 389.556 772.416 389.873 772.416C390.186 772.416 390.436 772.505 390.622 772.683C390.808 772.86 390.901 773.087 390.901 773.362C390.901 773.641 390.806 773.869 390.615 774.047C390.429 774.224 390.182 774.313 389.873 774.313C389.564 774.313 389.315 774.224 389.125 774.047C388.939 773.869 388.846 773.641 388.846 773.362ZM392.023 778.505C392.023 777.825 392.154 777.218 392.417 776.685C392.679 776.152 393.055 775.74 393.545 775.448C394.04 775.156 394.613 775.011 395.264 775.011C396.19 775.011 396.945 775.294 397.529 775.86C398.116 776.427 398.444 777.197 398.512 778.169L398.524 778.638C398.524 779.691 398.23 780.537 397.643 781.175C397.055 781.81 396.266 782.127 395.277 782.127C394.288 782.127 393.497 781.81 392.905 781.175C392.317 780.541 392.023 779.679 392.023 778.588V778.505ZM393.856 778.638C393.856 779.29 393.979 779.789 394.224 780.135C394.469 780.478 394.82 780.649 395.277 780.649C395.721 780.649 396.068 780.48 396.317 780.142C396.567 779.799 396.691 779.254 396.691 778.505C396.691 777.867 396.567 777.372 396.317 777.021C396.068 776.67 395.717 776.495 395.264 776.495C394.816 776.495 394.469 776.67 394.224 777.021C393.979 777.368 393.856 777.907 393.856 778.638ZM401.34 775.137L401.397 775.93C401.888 775.317 402.545 775.011 403.37 775.011C404.097 775.011 404.639 775.224 404.994 775.651C405.349 776.078 405.531 776.717 405.539 777.567V782H403.706V777.611C403.706 777.222 403.622 776.941 403.452 776.767C403.283 776.59 403.002 776.501 402.609 776.501C402.093 776.501 401.706 776.721 401.448 777.161V782H399.615V775.137H401.34Z" fill="#A4A4A4"/>
<path fill-rule="evenodd" clip-rule="evenodd" d="M90.5462 331H93.4553V324.455H100V321.546H93.4553V315H90.5462V321.546H84V324.455H90.5462V331Z" fill="#65676D"/>
<defs>
<filter id="filter0_i" x="71" y="149" width="368" height="39.6719" filterUnits="userSpaceOnUse" color-interpolation-filters="sRGB">
<feFlood flood-opacity="0" result="BackgroundImageFix"/>
<feBlend mode="normal" in="SourceGraphic" in2="BackgroundImageFix" result="shape"/>
<feColorMatrix in="SourceAlpha" type="matrix" values="0 0 0 0 0 0 0 0 0 0 0 0 0 0 0 0 0 0 127 0" result="hardAlpha"/>
<feOffset dy="-0.661198"/>
<feComposite in2="hardAlpha" operator="arithmetic" k2="-1" k3="1"/>
<feColorMatrix type="matrix" values="0 0 0 0 0 0 0 0 0 0 0 0 0 0 0 0 0 0 0.1 0"/>
<feBlend mode="normal" in2="shape" result="effect1_innerShadow"/>
</filter>
<filter id="filter1_d" x="0" y="691" width="503" height="209" filterUnits="userSpaceOnUse" color-interpolation-filters="sRGB">
<feFlood flood-opacity="0" result="BackgroundImageFix"/>
<feColorMatrix in="SourceAlpha" type="matrix" values="0 0 0 0 0 0 0 0 0 0 0 0 0 0 0 0 0 0 127 0" result="hardAlpha"/>
<feOffset dy="24"/>
<feGaussianBlur stdDeviation="32"/>
<feColorMatrix type="matrix" values="0 0 0 0 0.0313726 0 0 0 0 0.835294 0 0 0 0 0.52549 0 0 0 0.16 0"/>
<feBlend mode="normal" in2="BackgroundImageFix" result="effect1_dropShadow"/>
<feBlend mode="normal" in="SourceGraphic" in2="effect1_dropShadow" result="shape"/>
</filter>
</defs>
</svg>
